M48
METRIC,TZ
T1C0.400
T2C0.762
T3C1.000
T4C1.300
T5C1.500
T6C1.900
T7C3.000
%
G90
G05
T1
X113614Y-90856
X153873Y-93078
X164401Y-95872
T2
X121412Y-37871
X123952Y-37871
X126492Y-37871
T3
X136004Y-116497
X139428Y-116497
X141679Y-116497
X143929Y-116497
X132423Y-109309
X134455Y-109309
X150564Y-39497
X153099Y-39497
X131610Y-88570
X134150Y-88570
X136690Y-88570
X136347Y-38240
X138887Y-38240
X141427Y-38240
T4
X133596Y-116497
X146337Y-116497
T5
X136601Y-70206
X142951Y-67666
X116281Y-50025
X122631Y-47485
X156756Y-50025
X163106Y-47485
X136576Y-50025
X142926Y-47485
X116281Y-70206
X122631Y-67666
T6
X158252Y-73358
X159167Y-70361
X160706Y-74760
X162240Y-70361
X163159Y-73358
T7
X106947Y-38913
X173190Y-115481
X106947Y-115481
X173190Y-38913
T0
M30
