G04 #@! TF.GenerationSoftware,KiCad,Pcbnew,5.0.2+dfsg1-1~bpo9+1*
G04 #@! TF.CreationDate,2019-11-16T16:08:00+00:00*
G04 #@! TF.ProjectId,remote_cherry,72656d6f-7465-45f6-9368-657272792e6b,rev?*
G04 #@! TF.SameCoordinates,Original*
G04 #@! TF.FileFunction,Copper,L2,Bot*
G04 #@! TF.FilePolarity,Positive*
%FSLAX46Y46*%
G04 Gerber Fmt 4.6, Leading zero omitted, Abs format (unit mm)*
G04 Created by KiCad (PCBNEW 5.0.2+dfsg1-1~bpo9+1) date Sat 16 Nov 2019 16:08:00 GMT*
%MOMM*%
%LPD*%
G01*
G04 APERTURE LIST*
G04 #@! TA.AperFunction,ComponentPad*
%ADD10C,2.200000*%
G04 #@! TD*
G04 #@! TA.AperFunction,ComponentPad*
%ADD11C,1.600000*%
G04 #@! TD*
G04 #@! TA.AperFunction,ComponentPad*
%ADD12C,2.500000*%
G04 #@! TD*
G04 #@! TA.AperFunction,ComponentPad*
%ADD13C,1.524000*%
G04 #@! TD*
G04 #@! TA.AperFunction,ComponentPad*
%ADD14C,3.500000*%
G04 #@! TD*
G04 #@! TA.AperFunction,ComponentPad*
%ADD15C,1.900000*%
G04 #@! TD*
G04 #@! TA.AperFunction,ViaPad*
%ADD16C,0.800000*%
G04 #@! TD*
G04 #@! TA.AperFunction,Conductor*
%ADD17C,0.250000*%
G04 #@! TD*
G04 #@! TA.AperFunction,Conductor*
%ADD18C,0.254000*%
G04 #@! TD*
G04 APERTURE END LIST*
D10*
G04 #@! TO.P,SW1,1*
G04 #@! TO.N,Net-(D1-Pad1)*
X163106100Y-47485300D03*
G04 #@! TO.P,SW1,2*
G04 #@! TO.N,Net-(SW1-Pad2)*
X156756100Y-50025300D03*
G04 #@! TD*
G04 #@! TO.P,SW2,1*
G04 #@! TO.N,Net-(D1-Pad1)*
X142925800Y-47485300D03*
G04 #@! TO.P,SW2,2*
G04 #@! TO.N,Net-(SW2-Pad2)*
X136575800Y-50025300D03*
G04 #@! TD*
G04 #@! TO.P,SW3,2*
G04 #@! TO.N,Net-(SW3-Pad2)*
X116281200Y-50025300D03*
G04 #@! TO.P,SW3,1*
G04 #@! TO.N,Net-(D1-Pad1)*
X122631200Y-47485300D03*
G04 #@! TD*
G04 #@! TO.P,SW4,1*
G04 #@! TO.N,Net-(D1-Pad1)*
X142951200Y-67665600D03*
G04 #@! TO.P,SW4,2*
G04 #@! TO.N,Net-(SW4-Pad2)*
X136601200Y-70205600D03*
G04 #@! TD*
G04 #@! TO.P,SW5,1*
G04 #@! TO.N,Net-(D1-Pad1)*
X122631200Y-67665600D03*
G04 #@! TO.P,SW5,2*
G04 #@! TO.N,Net-(SW5-Pad2)*
X116281200Y-70205600D03*
G04 #@! TD*
D11*
G04 #@! TO.P,D1,2*
G04 #@! TO.N,Net-(D1-Pad2)*
X150563580Y-39497000D03*
G04 #@! TO.P,D1,1*
G04 #@! TO.N,Net-(D1-Pad1)*
X153098500Y-39497000D03*
G04 #@! TD*
G04 #@! TO.P,Q1,1*
G04 #@! TO.N,Net-(Q1-Pad1)*
X138887200Y-38239700D03*
G04 #@! TO.P,Q1,2*
G04 #@! TO.N,Net-(Q1-Pad2)*
X141427200Y-38239700D03*
G04 #@! TO.P,Q1,3*
G04 #@! TO.N,Net-(Q1-Pad3)*
X136347200Y-38239700D03*
G04 #@! TD*
D12*
G04 #@! TO.P,U3,5*
G04 #@! TO.N,Net-(U1-Pad25)*
X159166560Y-70360540D03*
G04 #@! TO.P,U3,1*
G04 #@! TO.N,Net-(U1-Pad29)*
X162239960Y-70360540D03*
G04 #@! TO.P,U3,4*
G04 #@! TO.N,Net-(U1-Pad26)*
X158252160Y-73357740D03*
G04 #@! TO.P,U3,2*
G04 #@! TO.N,Net-(U1-Pad28)*
X163159440Y-73357740D03*
G04 #@! TO.P,U3,3*
G04 #@! TO.N,Net-(U1-Pad27)*
X160705800Y-74759820D03*
G04 #@! TD*
D11*
G04 #@! TO.P,U4,1*
G04 #@! TO.N,Net-(U2-Pad3)*
X131610100Y-88569800D03*
G04 #@! TO.P,U4,2*
G04 #@! TO.N,Net-(D1-Pad1)*
X134150100Y-88569800D03*
G04 #@! TO.P,U4,3*
G04 #@! TO.N,Net-(Q1-Pad3)*
X136690100Y-88569800D03*
G04 #@! TD*
G04 #@! TO.P,U5,1*
G04 #@! TO.N,Net-(U2-Pad5)*
X134454900Y-109308900D03*
G04 #@! TO.P,U5,2*
G04 #@! TO.N,Net-(U2-Pad4)*
X132422900Y-109308900D03*
G04 #@! TD*
D13*
G04 #@! TO.P,U6,3*
G04 #@! TO.N,Net-(U1-Pad23)*
X126492000Y-37871400D03*
G04 #@! TO.P,U6,2*
G04 #@! TO.N,Net-(D1-Pad1)*
X123952000Y-37871400D03*
G04 #@! TO.P,U6,1*
G04 #@! TO.N,Net-(Q1-Pad3)*
X121412000Y-37871400D03*
G04 #@! TD*
D14*
G04 #@! TO.P,U7,1*
G04 #@! TO.N,Net-(U7-Pad1)*
X173189900Y-38912800D03*
G04 #@! TD*
G04 #@! TO.P,U8,1*
G04 #@! TO.N,Net-(U8-Pad1)*
X106946700Y-38912800D03*
G04 #@! TD*
G04 #@! TO.P,U9,1*
G04 #@! TO.N,Net-(U9-Pad1)*
X173189900Y-115481100D03*
G04 #@! TD*
G04 #@! TO.P,U10,1*
G04 #@! TO.N,Net-(U10-Pad1)*
X106946700Y-115481100D03*
G04 #@! TD*
D11*
G04 #@! TO.P,SW6,3*
G04 #@! TO.N,Net-(D1-Pad1)*
X139428220Y-116497100D03*
G04 #@! TO.P,SW6,4*
G04 #@! TO.N,Net-(SW6-Pad4)*
X136004300Y-116497100D03*
G04 #@! TO.P,SW6,2*
G04 #@! TO.N,Net-(SW6-Pad2)*
X141678660Y-116497100D03*
G04 #@! TO.P,SW6,1*
G04 #@! TO.N,Net-(SW6-Pad1)*
X143929100Y-116497100D03*
D15*
G04 #@! TO.P,SW6,5*
G04 #@! TO.N,N/C*
X146337020Y-116497100D03*
G04 #@! TO.P,SW6,6*
X133596380Y-116497100D03*
G04 #@! TD*
D16*
G04 #@! TO.N,Net-(Q1-Pad3)*
X164401500Y-95872300D03*
G04 #@! TO.N,Net-(D1-Pad1)*
X153873200Y-93078300D03*
G04 #@! TO.N,Net-(U2-Pad3)*
X113614200Y-90855800D03*
G04 #@! TD*
D17*
G04 #@! TO.N,Net-(Q1-Pad3)*
X157099000Y-88569800D02*
X164401500Y-95872300D01*
X144691100Y-88569800D02*
X144691100Y-88214200D01*
X136690100Y-88569800D02*
X144691100Y-88569800D01*
X144691100Y-88569800D02*
X157099000Y-88569800D01*
X144691100Y-88214200D02*
X130644900Y-74168000D01*
X130644900Y-43942000D02*
X136347200Y-38239700D01*
X121412000Y-38949030D02*
X130644900Y-48181930D01*
X121412000Y-37871400D02*
X121412000Y-38949030D01*
X130644900Y-48181930D02*
X130644900Y-48475900D01*
X130644900Y-74168000D02*
X130644900Y-48475900D01*
X130644900Y-48475900D02*
X130644900Y-43942000D01*
G04 #@! TO.N,Net-(D1-Pad1)*
X140228219Y-94647919D02*
X134150100Y-88569800D01*
X140228219Y-115697101D02*
X140228219Y-94647919D01*
X139428220Y-116497100D02*
X140228219Y-115697101D01*
X140228219Y-94647919D02*
X140228219Y-96857719D01*
X140228219Y-96857719D02*
X144934738Y-92151200D01*
X144934738Y-92151200D02*
X152946100Y-92151200D01*
X152946100Y-92151200D02*
X153873200Y-93078300D01*
G04 #@! TO.N,Net-(U2-Pad3)*
X115900200Y-88569800D02*
X113614200Y-90855800D01*
X131610100Y-88569800D02*
X115900200Y-88569800D01*
G04 #@! TD*
D18*
G04 #@! TO.N,Net-(D1-Pad1)*
G36*
X174562099Y-35920658D02*
X175931562Y-37346845D01*
X175982193Y-37612262D01*
X175985106Y-37704961D01*
X175997793Y-116312785D01*
X175935904Y-116802696D01*
X174687694Y-118100834D01*
X174249139Y-118184493D01*
X174156636Y-118187400D01*
X105772167Y-118187400D01*
X105369726Y-118136560D01*
X103978096Y-116845998D01*
X103900407Y-116438739D01*
X103897500Y-116346236D01*
X103897500Y-115006694D01*
X104561700Y-115006694D01*
X104561700Y-115955506D01*
X104924795Y-116832094D01*
X105595706Y-117503005D01*
X106472294Y-117866100D01*
X107421106Y-117866100D01*
X108297694Y-117503005D01*
X108968605Y-116832094D01*
X109237955Y-116181824D01*
X132011380Y-116181824D01*
X132011380Y-116812376D01*
X132252682Y-117394930D01*
X132698550Y-117840798D01*
X133281104Y-118082100D01*
X133911656Y-118082100D01*
X134494210Y-117840798D01*
X134906406Y-117428602D01*
X135191438Y-117713634D01*
X135718861Y-117932100D01*
X136289739Y-117932100D01*
X136817162Y-117713634D01*
X137025951Y-117504845D01*
X138600081Y-117504845D01*
X138674215Y-117750964D01*
X139211443Y-117944065D01*
X139781674Y-117916878D01*
X140182225Y-117750964D01*
X140256359Y-117504845D01*
X139428220Y-116676705D01*
X138600081Y-117504845D01*
X137025951Y-117504845D01*
X137220834Y-117309962D01*
X137439300Y-116782539D01*
X137439300Y-116280323D01*
X137981255Y-116280323D01*
X138008442Y-116850554D01*
X138174356Y-117251105D01*
X138420475Y-117325239D01*
X139248615Y-116497100D01*
X139607825Y-116497100D01*
X140435965Y-117325239D01*
X140467811Y-117315647D01*
X140865798Y-117713634D01*
X141393221Y-117932100D01*
X141964099Y-117932100D01*
X142491522Y-117713634D01*
X142803880Y-117401276D01*
X143116238Y-117713634D01*
X143643661Y-117932100D01*
X144214539Y-117932100D01*
X144741962Y-117713634D01*
X145026994Y-117428602D01*
X145439190Y-117840798D01*
X146021744Y-118082100D01*
X146652296Y-118082100D01*
X147234850Y-117840798D01*
X147680718Y-117394930D01*
X147922020Y-116812376D01*
X147922020Y-116181824D01*
X147680718Y-115599270D01*
X147234850Y-115153402D01*
X146880666Y-115006694D01*
X170804900Y-115006694D01*
X170804900Y-115955506D01*
X171167995Y-116832094D01*
X171838906Y-117503005D01*
X172715494Y-117866100D01*
X173664306Y-117866100D01*
X174540894Y-117503005D01*
X175211805Y-116832094D01*
X175574900Y-115955506D01*
X175574900Y-115006694D01*
X175211805Y-114130106D01*
X174540894Y-113459195D01*
X173664306Y-113096100D01*
X172715494Y-113096100D01*
X171838906Y-113459195D01*
X171167995Y-114130106D01*
X170804900Y-115006694D01*
X146880666Y-115006694D01*
X146652296Y-114912100D01*
X146021744Y-114912100D01*
X145439190Y-115153402D01*
X145026994Y-115565598D01*
X144741962Y-115280566D01*
X144214539Y-115062100D01*
X143643661Y-115062100D01*
X143116238Y-115280566D01*
X142803880Y-115592924D01*
X142491522Y-115280566D01*
X141964099Y-115062100D01*
X141393221Y-115062100D01*
X140865798Y-115280566D01*
X140467811Y-115678553D01*
X140435965Y-115668961D01*
X139607825Y-116497100D01*
X139248615Y-116497100D01*
X138420475Y-115668961D01*
X138174356Y-115743095D01*
X137981255Y-116280323D01*
X137439300Y-116280323D01*
X137439300Y-116211661D01*
X137220834Y-115684238D01*
X137025951Y-115489355D01*
X138600081Y-115489355D01*
X139428220Y-116317495D01*
X140256359Y-115489355D01*
X140182225Y-115243236D01*
X139644997Y-115050135D01*
X139074766Y-115077322D01*
X138674215Y-115243236D01*
X138600081Y-115489355D01*
X137025951Y-115489355D01*
X136817162Y-115280566D01*
X136289739Y-115062100D01*
X135718861Y-115062100D01*
X135191438Y-115280566D01*
X134906406Y-115565598D01*
X134494210Y-115153402D01*
X133911656Y-114912100D01*
X133281104Y-114912100D01*
X132698550Y-115153402D01*
X132252682Y-115599270D01*
X132011380Y-116181824D01*
X109237955Y-116181824D01*
X109331700Y-115955506D01*
X109331700Y-115006694D01*
X108968605Y-114130106D01*
X108297694Y-113459195D01*
X107421106Y-113096100D01*
X106472294Y-113096100D01*
X105595706Y-113459195D01*
X104924795Y-114130106D01*
X104561700Y-115006694D01*
X103897500Y-115006694D01*
X103897500Y-109023461D01*
X130987900Y-109023461D01*
X130987900Y-109594339D01*
X131206366Y-110121762D01*
X131610038Y-110525434D01*
X132137461Y-110743900D01*
X132708339Y-110743900D01*
X133235762Y-110525434D01*
X133438900Y-110322296D01*
X133642038Y-110525434D01*
X134169461Y-110743900D01*
X134740339Y-110743900D01*
X135267762Y-110525434D01*
X135671434Y-110121762D01*
X135889900Y-109594339D01*
X135889900Y-109023461D01*
X135671434Y-108496038D01*
X135267762Y-108092366D01*
X134740339Y-107873900D01*
X134169461Y-107873900D01*
X133642038Y-108092366D01*
X133438900Y-108295504D01*
X133235762Y-108092366D01*
X132708339Y-107873900D01*
X132137461Y-107873900D01*
X131610038Y-108092366D01*
X131206366Y-108496038D01*
X130987900Y-109023461D01*
X103897500Y-109023461D01*
X103897500Y-90649926D01*
X112579200Y-90649926D01*
X112579200Y-91061674D01*
X112736769Y-91442080D01*
X113027920Y-91733231D01*
X113408326Y-91890800D01*
X113820074Y-91890800D01*
X114200480Y-91733231D01*
X114491631Y-91442080D01*
X114649200Y-91061674D01*
X114649200Y-90895601D01*
X116215002Y-89329800D01*
X130371670Y-89329800D01*
X130393566Y-89382662D01*
X130797238Y-89786334D01*
X131324661Y-90004800D01*
X131895539Y-90004800D01*
X132422962Y-89786334D01*
X132631751Y-89577545D01*
X133321961Y-89577545D01*
X133396095Y-89823664D01*
X133933323Y-90016765D01*
X134503554Y-89989578D01*
X134904105Y-89823664D01*
X134978239Y-89577545D01*
X134150100Y-88749405D01*
X133321961Y-89577545D01*
X132631751Y-89577545D01*
X132826634Y-89382662D01*
X132873625Y-89269217D01*
X132896236Y-89323805D01*
X133142355Y-89397939D01*
X133970495Y-88569800D01*
X133142355Y-87741661D01*
X132896236Y-87815795D01*
X132875226Y-87874248D01*
X132826634Y-87756938D01*
X132631751Y-87562055D01*
X133321961Y-87562055D01*
X134150100Y-88390195D01*
X134978239Y-87562055D01*
X134904105Y-87315936D01*
X134366877Y-87122835D01*
X133796646Y-87150022D01*
X133396095Y-87315936D01*
X133321961Y-87562055D01*
X132631751Y-87562055D01*
X132422962Y-87353266D01*
X131895539Y-87134800D01*
X131324661Y-87134800D01*
X130797238Y-87353266D01*
X130393566Y-87756938D01*
X130371670Y-87809800D01*
X115975046Y-87809800D01*
X115900199Y-87794912D01*
X115825352Y-87809800D01*
X115825348Y-87809800D01*
X115603663Y-87853896D01*
X115352271Y-88021871D01*
X115309871Y-88085327D01*
X113574399Y-89820800D01*
X113408326Y-89820800D01*
X113027920Y-89978369D01*
X112736769Y-90269520D01*
X112579200Y-90649926D01*
X103897500Y-90649926D01*
X103897500Y-72450215D01*
X113526200Y-72450215D01*
X113526200Y-73040985D01*
X113752278Y-73586785D01*
X114170015Y-74004522D01*
X114715815Y-74230600D01*
X115306585Y-74230600D01*
X115852385Y-74004522D01*
X116270122Y-73586785D01*
X116496200Y-73040985D01*
X116496200Y-72450215D01*
X116401449Y-72221466D01*
X117456200Y-72221466D01*
X117456200Y-73269734D01*
X117857355Y-74238208D01*
X118598592Y-74979445D01*
X119567066Y-75380600D01*
X120615334Y-75380600D01*
X121583808Y-74979445D01*
X122325045Y-74238208D01*
X122726200Y-73269734D01*
X122726200Y-72450215D01*
X123686200Y-72450215D01*
X123686200Y-73040985D01*
X123912278Y-73586785D01*
X124330015Y-74004522D01*
X124875815Y-74230600D01*
X125466585Y-74230600D01*
X126012385Y-74004522D01*
X126430122Y-73586785D01*
X126656200Y-73040985D01*
X126656200Y-72450215D01*
X126430122Y-71904415D01*
X126012385Y-71486678D01*
X125466585Y-71260600D01*
X124875815Y-71260600D01*
X124330015Y-71486678D01*
X123912278Y-71904415D01*
X123686200Y-72450215D01*
X122726200Y-72450215D01*
X122726200Y-72221466D01*
X122325045Y-71252992D01*
X121583808Y-70511755D01*
X120615334Y-70110600D01*
X119567066Y-70110600D01*
X118598592Y-70511755D01*
X117857355Y-71252992D01*
X117456200Y-72221466D01*
X116401449Y-72221466D01*
X116285110Y-71940600D01*
X116626313Y-71940600D01*
X117263999Y-71676462D01*
X117752062Y-71188399D01*
X118016200Y-70550713D01*
X118016200Y-69860487D01*
X117752062Y-69222801D01*
X117419729Y-68890468D01*
X121585937Y-68890468D01*
X121696841Y-69167699D01*
X122342793Y-69410923D01*
X123032653Y-69388436D01*
X123565559Y-69167699D01*
X123676463Y-68890468D01*
X122631200Y-67845205D01*
X121585937Y-68890468D01*
X117419729Y-68890468D01*
X117263999Y-68734738D01*
X116626313Y-68470600D01*
X115936087Y-68470600D01*
X115298401Y-68734738D01*
X114810338Y-69222801D01*
X114546200Y-69860487D01*
X114546200Y-70550713D01*
X114810338Y-71188399D01*
X114882539Y-71260600D01*
X114715815Y-71260600D01*
X114170015Y-71486678D01*
X113752278Y-71904415D01*
X113526200Y-72450215D01*
X103897500Y-72450215D01*
X103897500Y-67377193D01*
X120885877Y-67377193D01*
X120908364Y-68067053D01*
X121129101Y-68599959D01*
X121406332Y-68710863D01*
X122451595Y-67665600D01*
X122810805Y-67665600D01*
X123856068Y-68710863D01*
X124133299Y-68599959D01*
X124376523Y-67954007D01*
X124354036Y-67264147D01*
X124133299Y-66731241D01*
X123856068Y-66620337D01*
X122810805Y-67665600D01*
X122451595Y-67665600D01*
X121406332Y-66620337D01*
X121129101Y-66731241D01*
X120885877Y-67377193D01*
X103897500Y-67377193D01*
X103897500Y-66440732D01*
X121585937Y-66440732D01*
X122631200Y-67485995D01*
X123676463Y-66440732D01*
X123565559Y-66163501D01*
X122919607Y-65920277D01*
X122229747Y-65942764D01*
X121696841Y-66163501D01*
X121585937Y-66440732D01*
X103897500Y-66440732D01*
X103897500Y-52269915D01*
X113526200Y-52269915D01*
X113526200Y-52860685D01*
X113752278Y-53406485D01*
X114170015Y-53824222D01*
X114715815Y-54050300D01*
X115306585Y-54050300D01*
X115852385Y-53824222D01*
X116270122Y-53406485D01*
X116496200Y-52860685D01*
X116496200Y-52269915D01*
X116401449Y-52041166D01*
X117456200Y-52041166D01*
X117456200Y-53089434D01*
X117857355Y-54057908D01*
X118598592Y-54799145D01*
X119567066Y-55200300D01*
X120615334Y-55200300D01*
X121583808Y-54799145D01*
X122325045Y-54057908D01*
X122726200Y-53089434D01*
X122726200Y-52269915D01*
X123686200Y-52269915D01*
X123686200Y-52860685D01*
X123912278Y-53406485D01*
X124330015Y-53824222D01*
X124875815Y-54050300D01*
X125466585Y-54050300D01*
X126012385Y-53824222D01*
X126430122Y-53406485D01*
X126656200Y-52860685D01*
X126656200Y-52269915D01*
X126430122Y-51724115D01*
X126012385Y-51306378D01*
X125466585Y-51080300D01*
X124875815Y-51080300D01*
X124330015Y-51306378D01*
X123912278Y-51724115D01*
X123686200Y-52269915D01*
X122726200Y-52269915D01*
X122726200Y-52041166D01*
X122325045Y-51072692D01*
X121583808Y-50331455D01*
X120615334Y-49930300D01*
X119567066Y-49930300D01*
X118598592Y-50331455D01*
X117857355Y-51072692D01*
X117456200Y-52041166D01*
X116401449Y-52041166D01*
X116285110Y-51760300D01*
X116626313Y-51760300D01*
X117263999Y-51496162D01*
X117752062Y-51008099D01*
X118016200Y-50370413D01*
X118016200Y-49680187D01*
X117752062Y-49042501D01*
X117419729Y-48710168D01*
X121585937Y-48710168D01*
X121696841Y-48987399D01*
X122342793Y-49230623D01*
X123032653Y-49208136D01*
X123565559Y-48987399D01*
X123676463Y-48710168D01*
X122631200Y-47664905D01*
X121585937Y-48710168D01*
X117419729Y-48710168D01*
X117263999Y-48554438D01*
X116626313Y-48290300D01*
X115936087Y-48290300D01*
X115298401Y-48554438D01*
X114810338Y-49042501D01*
X114546200Y-49680187D01*
X114546200Y-50370413D01*
X114810338Y-51008099D01*
X114882539Y-51080300D01*
X114715815Y-51080300D01*
X114170015Y-51306378D01*
X113752278Y-51724115D01*
X113526200Y-52269915D01*
X103897500Y-52269915D01*
X103897500Y-47196893D01*
X120885877Y-47196893D01*
X120908364Y-47886753D01*
X121129101Y-48419659D01*
X121406332Y-48530563D01*
X122451595Y-47485300D01*
X122810805Y-47485300D01*
X123856068Y-48530563D01*
X124133299Y-48419659D01*
X124376523Y-47773707D01*
X124354036Y-47083847D01*
X124133299Y-46550941D01*
X123856068Y-46440037D01*
X122810805Y-47485300D01*
X122451595Y-47485300D01*
X121406332Y-46440037D01*
X121129101Y-46550941D01*
X120885877Y-47196893D01*
X103897500Y-47196893D01*
X103897500Y-46260432D01*
X121585937Y-46260432D01*
X122631200Y-47305695D01*
X123676463Y-46260432D01*
X123565559Y-45983201D01*
X122919607Y-45739977D01*
X122229747Y-45762464D01*
X121696841Y-45983201D01*
X121585937Y-46260432D01*
X103897500Y-46260432D01*
X103897500Y-38438394D01*
X104561700Y-38438394D01*
X104561700Y-39387206D01*
X104924795Y-40263794D01*
X105595706Y-40934705D01*
X106472294Y-41297800D01*
X107421106Y-41297800D01*
X108297694Y-40934705D01*
X108968605Y-40263794D01*
X109331700Y-39387206D01*
X109331700Y-38438394D01*
X108981741Y-37593519D01*
X120015000Y-37593519D01*
X120015000Y-38149281D01*
X120227680Y-38662737D01*
X120620663Y-39055720D01*
X120661716Y-39072725D01*
X120696097Y-39245567D01*
X120864072Y-39496959D01*
X120927528Y-39539359D01*
X129884900Y-48496733D01*
X129884900Y-48550752D01*
X129884901Y-48550757D01*
X129884900Y-74093153D01*
X129870012Y-74168000D01*
X129884900Y-74242847D01*
X129884900Y-74242851D01*
X129928996Y-74464536D01*
X130096971Y-74715929D01*
X130160430Y-74758331D01*
X143211898Y-87809800D01*
X137928530Y-87809800D01*
X137906634Y-87756938D01*
X137502962Y-87353266D01*
X136975539Y-87134800D01*
X136404661Y-87134800D01*
X135877238Y-87353266D01*
X135473566Y-87756938D01*
X135426575Y-87870383D01*
X135403964Y-87815795D01*
X135157845Y-87741661D01*
X134329705Y-88569800D01*
X135157845Y-89397939D01*
X135403964Y-89323805D01*
X135424974Y-89265352D01*
X135473566Y-89382662D01*
X135877238Y-89786334D01*
X136404661Y-90004800D01*
X136975539Y-90004800D01*
X137502962Y-89786334D01*
X137906634Y-89382662D01*
X137928530Y-89329800D01*
X144616248Y-89329800D01*
X144691100Y-89344689D01*
X144765952Y-89329800D01*
X156784199Y-89329800D01*
X163366500Y-95912102D01*
X163366500Y-96078174D01*
X163524069Y-96458580D01*
X163815220Y-96749731D01*
X164195626Y-96907300D01*
X164607374Y-96907300D01*
X164987780Y-96749731D01*
X165278931Y-96458580D01*
X165436500Y-96078174D01*
X165436500Y-95666426D01*
X165278931Y-95286020D01*
X164987780Y-94994869D01*
X164607374Y-94837300D01*
X164441302Y-94837300D01*
X157689331Y-88085330D01*
X157646929Y-88021871D01*
X157395537Y-87853896D01*
X157173852Y-87809800D01*
X157173847Y-87809800D01*
X157099000Y-87794912D01*
X157024153Y-87809800D01*
X145334932Y-87809800D01*
X145239029Y-87666271D01*
X145175573Y-87623871D01*
X131404900Y-73853199D01*
X131404900Y-72450215D01*
X133846200Y-72450215D01*
X133846200Y-73040985D01*
X134072278Y-73586785D01*
X134490015Y-74004522D01*
X135035815Y-74230600D01*
X135626585Y-74230600D01*
X136172385Y-74004522D01*
X136590122Y-73586785D01*
X136816200Y-73040985D01*
X136816200Y-72450215D01*
X136721449Y-72221466D01*
X137776200Y-72221466D01*
X137776200Y-73269734D01*
X138177355Y-74238208D01*
X138918592Y-74979445D01*
X139887066Y-75380600D01*
X140935334Y-75380600D01*
X141903808Y-74979445D01*
X142645045Y-74238208D01*
X143046200Y-73269734D01*
X143046200Y-72450215D01*
X144006200Y-72450215D01*
X144006200Y-73040985D01*
X144232278Y-73586785D01*
X144650015Y-74004522D01*
X145195815Y-74230600D01*
X145786585Y-74230600D01*
X146332385Y-74004522D01*
X146750122Y-73586785D01*
X146976200Y-73040985D01*
X146976200Y-72982790D01*
X156367160Y-72982790D01*
X156367160Y-73732690D01*
X156654134Y-74425507D01*
X157184393Y-74955766D01*
X157877210Y-75242740D01*
X158627110Y-75242740D01*
X158830608Y-75158448D01*
X159107774Y-75827587D01*
X159638033Y-76357846D01*
X160330850Y-76644820D01*
X161080750Y-76644820D01*
X161773567Y-76357846D01*
X162303826Y-75827587D01*
X162580992Y-75158448D01*
X162784490Y-75242740D01*
X163534390Y-75242740D01*
X164227207Y-74955766D01*
X164757466Y-74425507D01*
X165044440Y-73732690D01*
X165044440Y-72982790D01*
X164757466Y-72289973D01*
X164227207Y-71759714D01*
X163717646Y-71548647D01*
X163837986Y-71428307D01*
X164124960Y-70735490D01*
X164124960Y-69985590D01*
X163837986Y-69292773D01*
X163307727Y-68762514D01*
X162614910Y-68475540D01*
X161865010Y-68475540D01*
X161172193Y-68762514D01*
X160703260Y-69231447D01*
X160234327Y-68762514D01*
X159541510Y-68475540D01*
X158791610Y-68475540D01*
X158098793Y-68762514D01*
X157568534Y-69292773D01*
X157281560Y-69985590D01*
X157281560Y-70735490D01*
X157568534Y-71428307D01*
X157690362Y-71550135D01*
X157184393Y-71759714D01*
X156654134Y-72289973D01*
X156367160Y-72982790D01*
X146976200Y-72982790D01*
X146976200Y-72450215D01*
X146750122Y-71904415D01*
X146332385Y-71486678D01*
X145786585Y-71260600D01*
X145195815Y-71260600D01*
X144650015Y-71486678D01*
X144232278Y-71904415D01*
X144006200Y-72450215D01*
X143046200Y-72450215D01*
X143046200Y-72221466D01*
X142645045Y-71252992D01*
X141903808Y-70511755D01*
X140935334Y-70110600D01*
X139887066Y-70110600D01*
X138918592Y-70511755D01*
X138177355Y-71252992D01*
X137776200Y-72221466D01*
X136721449Y-72221466D01*
X136605110Y-71940600D01*
X136946313Y-71940600D01*
X137583999Y-71676462D01*
X138072062Y-71188399D01*
X138336200Y-70550713D01*
X138336200Y-69860487D01*
X138072062Y-69222801D01*
X137739729Y-68890468D01*
X141905937Y-68890468D01*
X142016841Y-69167699D01*
X142662793Y-69410923D01*
X143352653Y-69388436D01*
X143885559Y-69167699D01*
X143996463Y-68890468D01*
X142951200Y-67845205D01*
X141905937Y-68890468D01*
X137739729Y-68890468D01*
X137583999Y-68734738D01*
X136946313Y-68470600D01*
X136256087Y-68470600D01*
X135618401Y-68734738D01*
X135130338Y-69222801D01*
X134866200Y-69860487D01*
X134866200Y-70550713D01*
X135130338Y-71188399D01*
X135202539Y-71260600D01*
X135035815Y-71260600D01*
X134490015Y-71486678D01*
X134072278Y-71904415D01*
X133846200Y-72450215D01*
X131404900Y-72450215D01*
X131404900Y-67377193D01*
X141205877Y-67377193D01*
X141228364Y-68067053D01*
X141449101Y-68599959D01*
X141726332Y-68710863D01*
X142771595Y-67665600D01*
X143130805Y-67665600D01*
X144176068Y-68710863D01*
X144453299Y-68599959D01*
X144696523Y-67954007D01*
X144674036Y-67264147D01*
X144453299Y-66731241D01*
X144176068Y-66620337D01*
X143130805Y-67665600D01*
X142771595Y-67665600D01*
X141726332Y-66620337D01*
X141449101Y-66731241D01*
X141205877Y-67377193D01*
X131404900Y-67377193D01*
X131404900Y-66440732D01*
X141905937Y-66440732D01*
X142951200Y-67485995D01*
X143996463Y-66440732D01*
X143885559Y-66163501D01*
X143239607Y-65920277D01*
X142549747Y-65942764D01*
X142016841Y-66163501D01*
X141905937Y-66440732D01*
X131404900Y-66440732D01*
X131404900Y-52269915D01*
X133820800Y-52269915D01*
X133820800Y-52860685D01*
X134046878Y-53406485D01*
X134464615Y-53824222D01*
X135010415Y-54050300D01*
X135601185Y-54050300D01*
X136146985Y-53824222D01*
X136564722Y-53406485D01*
X136790800Y-52860685D01*
X136790800Y-52269915D01*
X136696049Y-52041166D01*
X137750800Y-52041166D01*
X137750800Y-53089434D01*
X138151955Y-54057908D01*
X138893192Y-54799145D01*
X139861666Y-55200300D01*
X140909934Y-55200300D01*
X141878408Y-54799145D01*
X142619645Y-54057908D01*
X143020800Y-53089434D01*
X143020800Y-52269915D01*
X143980800Y-52269915D01*
X143980800Y-52860685D01*
X144206878Y-53406485D01*
X144624615Y-53824222D01*
X145170415Y-54050300D01*
X145761185Y-54050300D01*
X146306985Y-53824222D01*
X146724722Y-53406485D01*
X146950800Y-52860685D01*
X146950800Y-52269915D01*
X154001100Y-52269915D01*
X154001100Y-52860685D01*
X154227178Y-53406485D01*
X154644915Y-53824222D01*
X155190715Y-54050300D01*
X155781485Y-54050300D01*
X156327285Y-53824222D01*
X156745022Y-53406485D01*
X156971100Y-52860685D01*
X156971100Y-52269915D01*
X156876349Y-52041166D01*
X157931100Y-52041166D01*
X157931100Y-53089434D01*
X158332255Y-54057908D01*
X159073492Y-54799145D01*
X160041966Y-55200300D01*
X161090234Y-55200300D01*
X162058708Y-54799145D01*
X162799945Y-54057908D01*
X163201100Y-53089434D01*
X163201100Y-52269915D01*
X164161100Y-52269915D01*
X164161100Y-52860685D01*
X164387178Y-53406485D01*
X164804915Y-53824222D01*
X165350715Y-54050300D01*
X165941485Y-54050300D01*
X166487285Y-53824222D01*
X166905022Y-53406485D01*
X167131100Y-52860685D01*
X167131100Y-52269915D01*
X166905022Y-51724115D01*
X166487285Y-51306378D01*
X165941485Y-51080300D01*
X165350715Y-51080300D01*
X164804915Y-51306378D01*
X164387178Y-51724115D01*
X164161100Y-52269915D01*
X163201100Y-52269915D01*
X163201100Y-52041166D01*
X162799945Y-51072692D01*
X162058708Y-50331455D01*
X161090234Y-49930300D01*
X160041966Y-49930300D01*
X159073492Y-50331455D01*
X158332255Y-51072692D01*
X157931100Y-52041166D01*
X156876349Y-52041166D01*
X156760010Y-51760300D01*
X157101213Y-51760300D01*
X157738899Y-51496162D01*
X158226962Y-51008099D01*
X158491100Y-50370413D01*
X158491100Y-49680187D01*
X158226962Y-49042501D01*
X157894629Y-48710168D01*
X162060837Y-48710168D01*
X162171741Y-48987399D01*
X162817693Y-49230623D01*
X163507553Y-49208136D01*
X164040459Y-48987399D01*
X164151363Y-48710168D01*
X163106100Y-47664905D01*
X162060837Y-48710168D01*
X157894629Y-48710168D01*
X157738899Y-48554438D01*
X157101213Y-48290300D01*
X156410987Y-48290300D01*
X155773301Y-48554438D01*
X155285238Y-49042501D01*
X155021100Y-49680187D01*
X155021100Y-50370413D01*
X155285238Y-51008099D01*
X155357439Y-51080300D01*
X155190715Y-51080300D01*
X154644915Y-51306378D01*
X154227178Y-51724115D01*
X154001100Y-52269915D01*
X146950800Y-52269915D01*
X146724722Y-51724115D01*
X146306985Y-51306378D01*
X145761185Y-51080300D01*
X145170415Y-51080300D01*
X144624615Y-51306378D01*
X144206878Y-51724115D01*
X143980800Y-52269915D01*
X143020800Y-52269915D01*
X143020800Y-52041166D01*
X142619645Y-51072692D01*
X141878408Y-50331455D01*
X140909934Y-49930300D01*
X139861666Y-49930300D01*
X138893192Y-50331455D01*
X138151955Y-51072692D01*
X137750800Y-52041166D01*
X136696049Y-52041166D01*
X136579710Y-51760300D01*
X136920913Y-51760300D01*
X137558599Y-51496162D01*
X138046662Y-51008099D01*
X138310800Y-50370413D01*
X138310800Y-49680187D01*
X138046662Y-49042501D01*
X137714329Y-48710168D01*
X141880537Y-48710168D01*
X141991441Y-48987399D01*
X142637393Y-49230623D01*
X143327253Y-49208136D01*
X143860159Y-48987399D01*
X143971063Y-48710168D01*
X142925800Y-47664905D01*
X141880537Y-48710168D01*
X137714329Y-48710168D01*
X137558599Y-48554438D01*
X136920913Y-48290300D01*
X136230687Y-48290300D01*
X135593001Y-48554438D01*
X135104938Y-49042501D01*
X134840800Y-49680187D01*
X134840800Y-50370413D01*
X135104938Y-51008099D01*
X135177139Y-51080300D01*
X135010415Y-51080300D01*
X134464615Y-51306378D01*
X134046878Y-51724115D01*
X133820800Y-52269915D01*
X131404900Y-52269915D01*
X131404900Y-48256776D01*
X131419788Y-48181929D01*
X131404900Y-48107082D01*
X131404900Y-47196893D01*
X141180477Y-47196893D01*
X141202964Y-47886753D01*
X141423701Y-48419659D01*
X141700932Y-48530563D01*
X142746195Y-47485300D01*
X143105405Y-47485300D01*
X144150668Y-48530563D01*
X144427899Y-48419659D01*
X144671123Y-47773707D01*
X144652321Y-47196893D01*
X161360777Y-47196893D01*
X161383264Y-47886753D01*
X161604001Y-48419659D01*
X161881232Y-48530563D01*
X162926495Y-47485300D01*
X163285705Y-47485300D01*
X164330968Y-48530563D01*
X164608199Y-48419659D01*
X164851423Y-47773707D01*
X164828936Y-47083847D01*
X164608199Y-46550941D01*
X164330968Y-46440037D01*
X163285705Y-47485300D01*
X162926495Y-47485300D01*
X161881232Y-46440037D01*
X161604001Y-46550941D01*
X161360777Y-47196893D01*
X144652321Y-47196893D01*
X144648636Y-47083847D01*
X144427899Y-46550941D01*
X144150668Y-46440037D01*
X143105405Y-47485300D01*
X142746195Y-47485300D01*
X141700932Y-46440037D01*
X141423701Y-46550941D01*
X141180477Y-47196893D01*
X131404900Y-47196893D01*
X131404900Y-46260432D01*
X141880537Y-46260432D01*
X142925800Y-47305695D01*
X143971063Y-46260432D01*
X162060837Y-46260432D01*
X163106100Y-47305695D01*
X164151363Y-46260432D01*
X164040459Y-45983201D01*
X163394507Y-45739977D01*
X162704647Y-45762464D01*
X162171741Y-45983201D01*
X162060837Y-46260432D01*
X143971063Y-46260432D01*
X143860159Y-45983201D01*
X143214207Y-45739977D01*
X142524347Y-45762464D01*
X141991441Y-45983201D01*
X141880537Y-46260432D01*
X131404900Y-46260432D01*
X131404900Y-44256801D01*
X136008898Y-39652804D01*
X136061761Y-39674700D01*
X136632639Y-39674700D01*
X137160062Y-39456234D01*
X137563734Y-39052562D01*
X137617200Y-38923484D01*
X137670666Y-39052562D01*
X138074338Y-39456234D01*
X138601761Y-39674700D01*
X139172639Y-39674700D01*
X139700062Y-39456234D01*
X140103734Y-39052562D01*
X140157200Y-38923484D01*
X140210666Y-39052562D01*
X140614338Y-39456234D01*
X141141761Y-39674700D01*
X141712639Y-39674700D01*
X142240062Y-39456234D01*
X142484735Y-39211561D01*
X149128580Y-39211561D01*
X149128580Y-39782439D01*
X149347046Y-40309862D01*
X149750718Y-40713534D01*
X150278141Y-40932000D01*
X150849019Y-40932000D01*
X151376442Y-40713534D01*
X151585231Y-40504745D01*
X152270361Y-40504745D01*
X152344495Y-40750864D01*
X152881723Y-40943965D01*
X153451954Y-40916778D01*
X153852505Y-40750864D01*
X153926639Y-40504745D01*
X153098500Y-39676605D01*
X152270361Y-40504745D01*
X151585231Y-40504745D01*
X151780114Y-40309862D01*
X151824565Y-40202549D01*
X151844636Y-40251005D01*
X152090755Y-40325139D01*
X152918895Y-39497000D01*
X153278105Y-39497000D01*
X154106245Y-40325139D01*
X154352364Y-40251005D01*
X154545465Y-39713777D01*
X154518278Y-39143546D01*
X154352364Y-38742995D01*
X154106245Y-38668861D01*
X153278105Y-39497000D01*
X152918895Y-39497000D01*
X152090755Y-38668861D01*
X151844636Y-38742995D01*
X151825986Y-38794882D01*
X151780114Y-38684138D01*
X151585231Y-38489255D01*
X152270361Y-38489255D01*
X153098500Y-39317395D01*
X153926639Y-38489255D01*
X153911320Y-38438394D01*
X170804900Y-38438394D01*
X170804900Y-39387206D01*
X171167995Y-40263794D01*
X171838906Y-40934705D01*
X172715494Y-41297800D01*
X173664306Y-41297800D01*
X174540894Y-40934705D01*
X175211805Y-40263794D01*
X175574900Y-39387206D01*
X175574900Y-38438394D01*
X175211805Y-37561806D01*
X174540894Y-36890895D01*
X173664306Y-36527800D01*
X172715494Y-36527800D01*
X171838906Y-36890895D01*
X171167995Y-37561806D01*
X170804900Y-38438394D01*
X153911320Y-38438394D01*
X153852505Y-38243136D01*
X153315277Y-38050035D01*
X152745046Y-38077222D01*
X152344495Y-38243136D01*
X152270361Y-38489255D01*
X151585231Y-38489255D01*
X151376442Y-38280466D01*
X150849019Y-38062000D01*
X150278141Y-38062000D01*
X149750718Y-38280466D01*
X149347046Y-38684138D01*
X149128580Y-39211561D01*
X142484735Y-39211561D01*
X142643734Y-39052562D01*
X142862200Y-38525139D01*
X142862200Y-37954261D01*
X142643734Y-37426838D01*
X142240062Y-37023166D01*
X141712639Y-36804700D01*
X141141761Y-36804700D01*
X140614338Y-37023166D01*
X140210666Y-37426838D01*
X140157200Y-37555916D01*
X140103734Y-37426838D01*
X139700062Y-37023166D01*
X139172639Y-36804700D01*
X138601761Y-36804700D01*
X138074338Y-37023166D01*
X137670666Y-37426838D01*
X137617200Y-37555916D01*
X137563734Y-37426838D01*
X137160062Y-37023166D01*
X136632639Y-36804700D01*
X136061761Y-36804700D01*
X135534338Y-37023166D01*
X135130666Y-37426838D01*
X134912200Y-37954261D01*
X134912200Y-38525139D01*
X134934096Y-38578002D01*
X130160428Y-43351671D01*
X130096972Y-43394071D01*
X130054572Y-43457527D01*
X130054571Y-43457528D01*
X129928997Y-43645463D01*
X129870012Y-43942000D01*
X129884901Y-44016852D01*
X129884900Y-46347128D01*
X122398414Y-38860643D01*
X122407444Y-38851613D01*
X123151392Y-38851613D01*
X123220857Y-39093797D01*
X123744302Y-39280544D01*
X124299368Y-39252762D01*
X124683143Y-39093797D01*
X124752608Y-38851613D01*
X123952000Y-38051005D01*
X123151392Y-38851613D01*
X122407444Y-38851613D01*
X122596320Y-38662737D01*
X122675428Y-38471753D01*
X122729603Y-38602543D01*
X122971787Y-38672008D01*
X123772395Y-37871400D01*
X124131605Y-37871400D01*
X124932213Y-38672008D01*
X125174397Y-38602543D01*
X125224535Y-38462007D01*
X125307680Y-38662737D01*
X125700663Y-39055720D01*
X126214119Y-39268400D01*
X126769881Y-39268400D01*
X127283337Y-39055720D01*
X127676320Y-38662737D01*
X127889000Y-38149281D01*
X127889000Y-37593519D01*
X127676320Y-37080063D01*
X127283337Y-36687080D01*
X126769881Y-36474400D01*
X126214119Y-36474400D01*
X125700663Y-36687080D01*
X125307680Y-37080063D01*
X125228572Y-37271047D01*
X125174397Y-37140257D01*
X124932213Y-37070792D01*
X124131605Y-37871400D01*
X123772395Y-37871400D01*
X122971787Y-37070792D01*
X122729603Y-37140257D01*
X122679465Y-37280793D01*
X122596320Y-37080063D01*
X122407444Y-36891187D01*
X123151392Y-36891187D01*
X123952000Y-37691795D01*
X124752608Y-36891187D01*
X124683143Y-36649003D01*
X124159698Y-36462256D01*
X123604632Y-36490038D01*
X123220857Y-36649003D01*
X123151392Y-36891187D01*
X122407444Y-36891187D01*
X122203337Y-36687080D01*
X121689881Y-36474400D01*
X121134119Y-36474400D01*
X120620663Y-36687080D01*
X120227680Y-37080063D01*
X120015000Y-37593519D01*
X108981741Y-37593519D01*
X108968605Y-37561806D01*
X108297694Y-36890895D01*
X107421106Y-36527800D01*
X106472294Y-36527800D01*
X105595706Y-36890895D01*
X104924795Y-37561806D01*
X104561700Y-38438394D01*
X103897500Y-38438394D01*
X103897500Y-37738266D01*
X103959002Y-37251428D01*
X105309558Y-35930717D01*
X105646162Y-35866507D01*
X105738664Y-35863600D01*
X174110434Y-35863600D01*
X174562099Y-35920658D01*
X174562099Y-35920658D01*
G37*
X174562099Y-35920658D02*
X175931562Y-37346845D01*
X175982193Y-37612262D01*
X175985106Y-37704961D01*
X175997793Y-116312785D01*
X175935904Y-116802696D01*
X174687694Y-118100834D01*
X174249139Y-118184493D01*
X174156636Y-118187400D01*
X105772167Y-118187400D01*
X105369726Y-118136560D01*
X103978096Y-116845998D01*
X103900407Y-116438739D01*
X103897500Y-116346236D01*
X103897500Y-115006694D01*
X104561700Y-115006694D01*
X104561700Y-115955506D01*
X104924795Y-116832094D01*
X105595706Y-117503005D01*
X106472294Y-117866100D01*
X107421106Y-117866100D01*
X108297694Y-117503005D01*
X108968605Y-116832094D01*
X109237955Y-116181824D01*
X132011380Y-116181824D01*
X132011380Y-116812376D01*
X132252682Y-117394930D01*
X132698550Y-117840798D01*
X133281104Y-118082100D01*
X133911656Y-118082100D01*
X134494210Y-117840798D01*
X134906406Y-117428602D01*
X135191438Y-117713634D01*
X135718861Y-117932100D01*
X136289739Y-117932100D01*
X136817162Y-117713634D01*
X137025951Y-117504845D01*
X138600081Y-117504845D01*
X138674215Y-117750964D01*
X139211443Y-117944065D01*
X139781674Y-117916878D01*
X140182225Y-117750964D01*
X140256359Y-117504845D01*
X139428220Y-116676705D01*
X138600081Y-117504845D01*
X137025951Y-117504845D01*
X137220834Y-117309962D01*
X137439300Y-116782539D01*
X137439300Y-116280323D01*
X137981255Y-116280323D01*
X138008442Y-116850554D01*
X138174356Y-117251105D01*
X138420475Y-117325239D01*
X139248615Y-116497100D01*
X139607825Y-116497100D01*
X140435965Y-117325239D01*
X140467811Y-117315647D01*
X140865798Y-117713634D01*
X141393221Y-117932100D01*
X141964099Y-117932100D01*
X142491522Y-117713634D01*
X142803880Y-117401276D01*
X143116238Y-117713634D01*
X143643661Y-117932100D01*
X144214539Y-117932100D01*
X144741962Y-117713634D01*
X145026994Y-117428602D01*
X145439190Y-117840798D01*
X146021744Y-118082100D01*
X146652296Y-118082100D01*
X147234850Y-117840798D01*
X147680718Y-117394930D01*
X147922020Y-116812376D01*
X147922020Y-116181824D01*
X147680718Y-115599270D01*
X147234850Y-115153402D01*
X146880666Y-115006694D01*
X170804900Y-115006694D01*
X170804900Y-115955506D01*
X171167995Y-116832094D01*
X171838906Y-117503005D01*
X172715494Y-117866100D01*
X173664306Y-117866100D01*
X174540894Y-117503005D01*
X175211805Y-116832094D01*
X175574900Y-115955506D01*
X175574900Y-115006694D01*
X175211805Y-114130106D01*
X174540894Y-113459195D01*
X173664306Y-113096100D01*
X172715494Y-113096100D01*
X171838906Y-113459195D01*
X171167995Y-114130106D01*
X170804900Y-115006694D01*
X146880666Y-115006694D01*
X146652296Y-114912100D01*
X146021744Y-114912100D01*
X145439190Y-115153402D01*
X145026994Y-115565598D01*
X144741962Y-115280566D01*
X144214539Y-115062100D01*
X143643661Y-115062100D01*
X143116238Y-115280566D01*
X142803880Y-115592924D01*
X142491522Y-115280566D01*
X141964099Y-115062100D01*
X141393221Y-115062100D01*
X140865798Y-115280566D01*
X140467811Y-115678553D01*
X140435965Y-115668961D01*
X139607825Y-116497100D01*
X139248615Y-116497100D01*
X138420475Y-115668961D01*
X138174356Y-115743095D01*
X137981255Y-116280323D01*
X137439300Y-116280323D01*
X137439300Y-116211661D01*
X137220834Y-115684238D01*
X137025951Y-115489355D01*
X138600081Y-115489355D01*
X139428220Y-116317495D01*
X140256359Y-115489355D01*
X140182225Y-115243236D01*
X139644997Y-115050135D01*
X139074766Y-115077322D01*
X138674215Y-115243236D01*
X138600081Y-115489355D01*
X137025951Y-115489355D01*
X136817162Y-115280566D01*
X136289739Y-115062100D01*
X135718861Y-115062100D01*
X135191438Y-115280566D01*
X134906406Y-115565598D01*
X134494210Y-115153402D01*
X133911656Y-114912100D01*
X133281104Y-114912100D01*
X132698550Y-115153402D01*
X132252682Y-115599270D01*
X132011380Y-116181824D01*
X109237955Y-116181824D01*
X109331700Y-115955506D01*
X109331700Y-115006694D01*
X108968605Y-114130106D01*
X108297694Y-113459195D01*
X107421106Y-113096100D01*
X106472294Y-113096100D01*
X105595706Y-113459195D01*
X104924795Y-114130106D01*
X104561700Y-115006694D01*
X103897500Y-115006694D01*
X103897500Y-109023461D01*
X130987900Y-109023461D01*
X130987900Y-109594339D01*
X131206366Y-110121762D01*
X131610038Y-110525434D01*
X132137461Y-110743900D01*
X132708339Y-110743900D01*
X133235762Y-110525434D01*
X133438900Y-110322296D01*
X133642038Y-110525434D01*
X134169461Y-110743900D01*
X134740339Y-110743900D01*
X135267762Y-110525434D01*
X135671434Y-110121762D01*
X135889900Y-109594339D01*
X135889900Y-109023461D01*
X135671434Y-108496038D01*
X135267762Y-108092366D01*
X134740339Y-107873900D01*
X134169461Y-107873900D01*
X133642038Y-108092366D01*
X133438900Y-108295504D01*
X133235762Y-108092366D01*
X132708339Y-107873900D01*
X132137461Y-107873900D01*
X131610038Y-108092366D01*
X131206366Y-108496038D01*
X130987900Y-109023461D01*
X103897500Y-109023461D01*
X103897500Y-90649926D01*
X112579200Y-90649926D01*
X112579200Y-91061674D01*
X112736769Y-91442080D01*
X113027920Y-91733231D01*
X113408326Y-91890800D01*
X113820074Y-91890800D01*
X114200480Y-91733231D01*
X114491631Y-91442080D01*
X114649200Y-91061674D01*
X114649200Y-90895601D01*
X116215002Y-89329800D01*
X130371670Y-89329800D01*
X130393566Y-89382662D01*
X130797238Y-89786334D01*
X131324661Y-90004800D01*
X131895539Y-90004800D01*
X132422962Y-89786334D01*
X132631751Y-89577545D01*
X133321961Y-89577545D01*
X133396095Y-89823664D01*
X133933323Y-90016765D01*
X134503554Y-89989578D01*
X134904105Y-89823664D01*
X134978239Y-89577545D01*
X134150100Y-88749405D01*
X133321961Y-89577545D01*
X132631751Y-89577545D01*
X132826634Y-89382662D01*
X132873625Y-89269217D01*
X132896236Y-89323805D01*
X133142355Y-89397939D01*
X133970495Y-88569800D01*
X133142355Y-87741661D01*
X132896236Y-87815795D01*
X132875226Y-87874248D01*
X132826634Y-87756938D01*
X132631751Y-87562055D01*
X133321961Y-87562055D01*
X134150100Y-88390195D01*
X134978239Y-87562055D01*
X134904105Y-87315936D01*
X134366877Y-87122835D01*
X133796646Y-87150022D01*
X133396095Y-87315936D01*
X133321961Y-87562055D01*
X132631751Y-87562055D01*
X132422962Y-87353266D01*
X131895539Y-87134800D01*
X131324661Y-87134800D01*
X130797238Y-87353266D01*
X130393566Y-87756938D01*
X130371670Y-87809800D01*
X115975046Y-87809800D01*
X115900199Y-87794912D01*
X115825352Y-87809800D01*
X115825348Y-87809800D01*
X115603663Y-87853896D01*
X115352271Y-88021871D01*
X115309871Y-88085327D01*
X113574399Y-89820800D01*
X113408326Y-89820800D01*
X113027920Y-89978369D01*
X112736769Y-90269520D01*
X112579200Y-90649926D01*
X103897500Y-90649926D01*
X103897500Y-72450215D01*
X113526200Y-72450215D01*
X113526200Y-73040985D01*
X113752278Y-73586785D01*
X114170015Y-74004522D01*
X114715815Y-74230600D01*
X115306585Y-74230600D01*
X115852385Y-74004522D01*
X116270122Y-73586785D01*
X116496200Y-73040985D01*
X116496200Y-72450215D01*
X116401449Y-72221466D01*
X117456200Y-72221466D01*
X117456200Y-73269734D01*
X117857355Y-74238208D01*
X118598592Y-74979445D01*
X119567066Y-75380600D01*
X120615334Y-75380600D01*
X121583808Y-74979445D01*
X122325045Y-74238208D01*
X122726200Y-73269734D01*
X122726200Y-72450215D01*
X123686200Y-72450215D01*
X123686200Y-73040985D01*
X123912278Y-73586785D01*
X124330015Y-74004522D01*
X124875815Y-74230600D01*
X125466585Y-74230600D01*
X126012385Y-74004522D01*
X126430122Y-73586785D01*
X126656200Y-73040985D01*
X126656200Y-72450215D01*
X126430122Y-71904415D01*
X126012385Y-71486678D01*
X125466585Y-71260600D01*
X124875815Y-71260600D01*
X124330015Y-71486678D01*
X123912278Y-71904415D01*
X123686200Y-72450215D01*
X122726200Y-72450215D01*
X122726200Y-72221466D01*
X122325045Y-71252992D01*
X121583808Y-70511755D01*
X120615334Y-70110600D01*
X119567066Y-70110600D01*
X118598592Y-70511755D01*
X117857355Y-71252992D01*
X117456200Y-72221466D01*
X116401449Y-72221466D01*
X116285110Y-71940600D01*
X116626313Y-71940600D01*
X117263999Y-71676462D01*
X117752062Y-71188399D01*
X118016200Y-70550713D01*
X118016200Y-69860487D01*
X117752062Y-69222801D01*
X117419729Y-68890468D01*
X121585937Y-68890468D01*
X121696841Y-69167699D01*
X122342793Y-69410923D01*
X123032653Y-69388436D01*
X123565559Y-69167699D01*
X123676463Y-68890468D01*
X122631200Y-67845205D01*
X121585937Y-68890468D01*
X117419729Y-68890468D01*
X117263999Y-68734738D01*
X116626313Y-68470600D01*
X115936087Y-68470600D01*
X115298401Y-68734738D01*
X114810338Y-69222801D01*
X114546200Y-69860487D01*
X114546200Y-70550713D01*
X114810338Y-71188399D01*
X114882539Y-71260600D01*
X114715815Y-71260600D01*
X114170015Y-71486678D01*
X113752278Y-71904415D01*
X113526200Y-72450215D01*
X103897500Y-72450215D01*
X103897500Y-67377193D01*
X120885877Y-67377193D01*
X120908364Y-68067053D01*
X121129101Y-68599959D01*
X121406332Y-68710863D01*
X122451595Y-67665600D01*
X122810805Y-67665600D01*
X123856068Y-68710863D01*
X124133299Y-68599959D01*
X124376523Y-67954007D01*
X124354036Y-67264147D01*
X124133299Y-66731241D01*
X123856068Y-66620337D01*
X122810805Y-67665600D01*
X122451595Y-67665600D01*
X121406332Y-66620337D01*
X121129101Y-66731241D01*
X120885877Y-67377193D01*
X103897500Y-67377193D01*
X103897500Y-66440732D01*
X121585937Y-66440732D01*
X122631200Y-67485995D01*
X123676463Y-66440732D01*
X123565559Y-66163501D01*
X122919607Y-65920277D01*
X122229747Y-65942764D01*
X121696841Y-66163501D01*
X121585937Y-66440732D01*
X103897500Y-66440732D01*
X103897500Y-52269915D01*
X113526200Y-52269915D01*
X113526200Y-52860685D01*
X113752278Y-53406485D01*
X114170015Y-53824222D01*
X114715815Y-54050300D01*
X115306585Y-54050300D01*
X115852385Y-53824222D01*
X116270122Y-53406485D01*
X116496200Y-52860685D01*
X116496200Y-52269915D01*
X116401449Y-52041166D01*
X117456200Y-52041166D01*
X117456200Y-53089434D01*
X117857355Y-54057908D01*
X118598592Y-54799145D01*
X119567066Y-55200300D01*
X120615334Y-55200300D01*
X121583808Y-54799145D01*
X122325045Y-54057908D01*
X122726200Y-53089434D01*
X122726200Y-52269915D01*
X123686200Y-52269915D01*
X123686200Y-52860685D01*
X123912278Y-53406485D01*
X124330015Y-53824222D01*
X124875815Y-54050300D01*
X125466585Y-54050300D01*
X126012385Y-53824222D01*
X126430122Y-53406485D01*
X126656200Y-52860685D01*
X126656200Y-52269915D01*
X126430122Y-51724115D01*
X126012385Y-51306378D01*
X125466585Y-51080300D01*
X124875815Y-51080300D01*
X124330015Y-51306378D01*
X123912278Y-51724115D01*
X123686200Y-52269915D01*
X122726200Y-52269915D01*
X122726200Y-52041166D01*
X122325045Y-51072692D01*
X121583808Y-50331455D01*
X120615334Y-49930300D01*
X119567066Y-49930300D01*
X118598592Y-50331455D01*
X117857355Y-51072692D01*
X117456200Y-52041166D01*
X116401449Y-52041166D01*
X116285110Y-51760300D01*
X116626313Y-51760300D01*
X117263999Y-51496162D01*
X117752062Y-51008099D01*
X118016200Y-50370413D01*
X118016200Y-49680187D01*
X117752062Y-49042501D01*
X117419729Y-48710168D01*
X121585937Y-48710168D01*
X121696841Y-48987399D01*
X122342793Y-49230623D01*
X123032653Y-49208136D01*
X123565559Y-48987399D01*
X123676463Y-48710168D01*
X122631200Y-47664905D01*
X121585937Y-48710168D01*
X117419729Y-48710168D01*
X117263999Y-48554438D01*
X116626313Y-48290300D01*
X115936087Y-48290300D01*
X115298401Y-48554438D01*
X114810338Y-49042501D01*
X114546200Y-49680187D01*
X114546200Y-50370413D01*
X114810338Y-51008099D01*
X114882539Y-51080300D01*
X114715815Y-51080300D01*
X114170015Y-51306378D01*
X113752278Y-51724115D01*
X113526200Y-52269915D01*
X103897500Y-52269915D01*
X103897500Y-47196893D01*
X120885877Y-47196893D01*
X120908364Y-47886753D01*
X121129101Y-48419659D01*
X121406332Y-48530563D01*
X122451595Y-47485300D01*
X122810805Y-47485300D01*
X123856068Y-48530563D01*
X124133299Y-48419659D01*
X124376523Y-47773707D01*
X124354036Y-47083847D01*
X124133299Y-46550941D01*
X123856068Y-46440037D01*
X122810805Y-47485300D01*
X122451595Y-47485300D01*
X121406332Y-46440037D01*
X121129101Y-46550941D01*
X120885877Y-47196893D01*
X103897500Y-47196893D01*
X103897500Y-46260432D01*
X121585937Y-46260432D01*
X122631200Y-47305695D01*
X123676463Y-46260432D01*
X123565559Y-45983201D01*
X122919607Y-45739977D01*
X122229747Y-45762464D01*
X121696841Y-45983201D01*
X121585937Y-46260432D01*
X103897500Y-46260432D01*
X103897500Y-38438394D01*
X104561700Y-38438394D01*
X104561700Y-39387206D01*
X104924795Y-40263794D01*
X105595706Y-40934705D01*
X106472294Y-41297800D01*
X107421106Y-41297800D01*
X108297694Y-40934705D01*
X108968605Y-40263794D01*
X109331700Y-39387206D01*
X109331700Y-38438394D01*
X108981741Y-37593519D01*
X120015000Y-37593519D01*
X120015000Y-38149281D01*
X120227680Y-38662737D01*
X120620663Y-39055720D01*
X120661716Y-39072725D01*
X120696097Y-39245567D01*
X120864072Y-39496959D01*
X120927528Y-39539359D01*
X129884900Y-48496733D01*
X129884900Y-48550752D01*
X129884901Y-48550757D01*
X129884900Y-74093153D01*
X129870012Y-74168000D01*
X129884900Y-74242847D01*
X129884900Y-74242851D01*
X129928996Y-74464536D01*
X130096971Y-74715929D01*
X130160430Y-74758331D01*
X143211898Y-87809800D01*
X137928530Y-87809800D01*
X137906634Y-87756938D01*
X137502962Y-87353266D01*
X136975539Y-87134800D01*
X136404661Y-87134800D01*
X135877238Y-87353266D01*
X135473566Y-87756938D01*
X135426575Y-87870383D01*
X135403964Y-87815795D01*
X135157845Y-87741661D01*
X134329705Y-88569800D01*
X135157845Y-89397939D01*
X135403964Y-89323805D01*
X135424974Y-89265352D01*
X135473566Y-89382662D01*
X135877238Y-89786334D01*
X136404661Y-90004800D01*
X136975539Y-90004800D01*
X137502962Y-89786334D01*
X137906634Y-89382662D01*
X137928530Y-89329800D01*
X144616248Y-89329800D01*
X144691100Y-89344689D01*
X144765952Y-89329800D01*
X156784199Y-89329800D01*
X163366500Y-95912102D01*
X163366500Y-96078174D01*
X163524069Y-96458580D01*
X163815220Y-96749731D01*
X164195626Y-96907300D01*
X164607374Y-96907300D01*
X164987780Y-96749731D01*
X165278931Y-96458580D01*
X165436500Y-96078174D01*
X165436500Y-95666426D01*
X165278931Y-95286020D01*
X164987780Y-94994869D01*
X164607374Y-94837300D01*
X164441302Y-94837300D01*
X157689331Y-88085330D01*
X157646929Y-88021871D01*
X157395537Y-87853896D01*
X157173852Y-87809800D01*
X157173847Y-87809800D01*
X157099000Y-87794912D01*
X157024153Y-87809800D01*
X145334932Y-87809800D01*
X145239029Y-87666271D01*
X145175573Y-87623871D01*
X131404900Y-73853199D01*
X131404900Y-72450215D01*
X133846200Y-72450215D01*
X133846200Y-73040985D01*
X134072278Y-73586785D01*
X134490015Y-74004522D01*
X135035815Y-74230600D01*
X135626585Y-74230600D01*
X136172385Y-74004522D01*
X136590122Y-73586785D01*
X136816200Y-73040985D01*
X136816200Y-72450215D01*
X136721449Y-72221466D01*
X137776200Y-72221466D01*
X137776200Y-73269734D01*
X138177355Y-74238208D01*
X138918592Y-74979445D01*
X139887066Y-75380600D01*
X140935334Y-75380600D01*
X141903808Y-74979445D01*
X142645045Y-74238208D01*
X143046200Y-73269734D01*
X143046200Y-72450215D01*
X144006200Y-72450215D01*
X144006200Y-73040985D01*
X144232278Y-73586785D01*
X144650015Y-74004522D01*
X145195815Y-74230600D01*
X145786585Y-74230600D01*
X146332385Y-74004522D01*
X146750122Y-73586785D01*
X146976200Y-73040985D01*
X146976200Y-72982790D01*
X156367160Y-72982790D01*
X156367160Y-73732690D01*
X156654134Y-74425507D01*
X157184393Y-74955766D01*
X157877210Y-75242740D01*
X158627110Y-75242740D01*
X158830608Y-75158448D01*
X159107774Y-75827587D01*
X159638033Y-76357846D01*
X160330850Y-76644820D01*
X161080750Y-76644820D01*
X161773567Y-76357846D01*
X162303826Y-75827587D01*
X162580992Y-75158448D01*
X162784490Y-75242740D01*
X163534390Y-75242740D01*
X164227207Y-74955766D01*
X164757466Y-74425507D01*
X165044440Y-73732690D01*
X165044440Y-72982790D01*
X164757466Y-72289973D01*
X164227207Y-71759714D01*
X163717646Y-71548647D01*
X163837986Y-71428307D01*
X164124960Y-70735490D01*
X164124960Y-69985590D01*
X163837986Y-69292773D01*
X163307727Y-68762514D01*
X162614910Y-68475540D01*
X161865010Y-68475540D01*
X161172193Y-68762514D01*
X160703260Y-69231447D01*
X160234327Y-68762514D01*
X159541510Y-68475540D01*
X158791610Y-68475540D01*
X158098793Y-68762514D01*
X157568534Y-69292773D01*
X157281560Y-69985590D01*
X157281560Y-70735490D01*
X157568534Y-71428307D01*
X157690362Y-71550135D01*
X157184393Y-71759714D01*
X156654134Y-72289973D01*
X156367160Y-72982790D01*
X146976200Y-72982790D01*
X146976200Y-72450215D01*
X146750122Y-71904415D01*
X146332385Y-71486678D01*
X145786585Y-71260600D01*
X145195815Y-71260600D01*
X144650015Y-71486678D01*
X144232278Y-71904415D01*
X144006200Y-72450215D01*
X143046200Y-72450215D01*
X143046200Y-72221466D01*
X142645045Y-71252992D01*
X141903808Y-70511755D01*
X140935334Y-70110600D01*
X139887066Y-70110600D01*
X138918592Y-70511755D01*
X138177355Y-71252992D01*
X137776200Y-72221466D01*
X136721449Y-72221466D01*
X136605110Y-71940600D01*
X136946313Y-71940600D01*
X137583999Y-71676462D01*
X138072062Y-71188399D01*
X138336200Y-70550713D01*
X138336200Y-69860487D01*
X138072062Y-69222801D01*
X137739729Y-68890468D01*
X141905937Y-68890468D01*
X142016841Y-69167699D01*
X142662793Y-69410923D01*
X143352653Y-69388436D01*
X143885559Y-69167699D01*
X143996463Y-68890468D01*
X142951200Y-67845205D01*
X141905937Y-68890468D01*
X137739729Y-68890468D01*
X137583999Y-68734738D01*
X136946313Y-68470600D01*
X136256087Y-68470600D01*
X135618401Y-68734738D01*
X135130338Y-69222801D01*
X134866200Y-69860487D01*
X134866200Y-70550713D01*
X135130338Y-71188399D01*
X135202539Y-71260600D01*
X135035815Y-71260600D01*
X134490015Y-71486678D01*
X134072278Y-71904415D01*
X133846200Y-72450215D01*
X131404900Y-72450215D01*
X131404900Y-67377193D01*
X141205877Y-67377193D01*
X141228364Y-68067053D01*
X141449101Y-68599959D01*
X141726332Y-68710863D01*
X142771595Y-67665600D01*
X143130805Y-67665600D01*
X144176068Y-68710863D01*
X144453299Y-68599959D01*
X144696523Y-67954007D01*
X144674036Y-67264147D01*
X144453299Y-66731241D01*
X144176068Y-66620337D01*
X143130805Y-67665600D01*
X142771595Y-67665600D01*
X141726332Y-66620337D01*
X141449101Y-66731241D01*
X141205877Y-67377193D01*
X131404900Y-67377193D01*
X131404900Y-66440732D01*
X141905937Y-66440732D01*
X142951200Y-67485995D01*
X143996463Y-66440732D01*
X143885559Y-66163501D01*
X143239607Y-65920277D01*
X142549747Y-65942764D01*
X142016841Y-66163501D01*
X141905937Y-66440732D01*
X131404900Y-66440732D01*
X131404900Y-52269915D01*
X133820800Y-52269915D01*
X133820800Y-52860685D01*
X134046878Y-53406485D01*
X134464615Y-53824222D01*
X135010415Y-54050300D01*
X135601185Y-54050300D01*
X136146985Y-53824222D01*
X136564722Y-53406485D01*
X136790800Y-52860685D01*
X136790800Y-52269915D01*
X136696049Y-52041166D01*
X137750800Y-52041166D01*
X137750800Y-53089434D01*
X138151955Y-54057908D01*
X138893192Y-54799145D01*
X139861666Y-55200300D01*
X140909934Y-55200300D01*
X141878408Y-54799145D01*
X142619645Y-54057908D01*
X143020800Y-53089434D01*
X143020800Y-52269915D01*
X143980800Y-52269915D01*
X143980800Y-52860685D01*
X144206878Y-53406485D01*
X144624615Y-53824222D01*
X145170415Y-54050300D01*
X145761185Y-54050300D01*
X146306985Y-53824222D01*
X146724722Y-53406485D01*
X146950800Y-52860685D01*
X146950800Y-52269915D01*
X154001100Y-52269915D01*
X154001100Y-52860685D01*
X154227178Y-53406485D01*
X154644915Y-53824222D01*
X155190715Y-54050300D01*
X155781485Y-54050300D01*
X156327285Y-53824222D01*
X156745022Y-53406485D01*
X156971100Y-52860685D01*
X156971100Y-52269915D01*
X156876349Y-52041166D01*
X157931100Y-52041166D01*
X157931100Y-53089434D01*
X158332255Y-54057908D01*
X159073492Y-54799145D01*
X160041966Y-55200300D01*
X161090234Y-55200300D01*
X162058708Y-54799145D01*
X162799945Y-54057908D01*
X163201100Y-53089434D01*
X163201100Y-52269915D01*
X164161100Y-52269915D01*
X164161100Y-52860685D01*
X164387178Y-53406485D01*
X164804915Y-53824222D01*
X165350715Y-54050300D01*
X165941485Y-54050300D01*
X166487285Y-53824222D01*
X166905022Y-53406485D01*
X167131100Y-52860685D01*
X167131100Y-52269915D01*
X166905022Y-51724115D01*
X166487285Y-51306378D01*
X165941485Y-51080300D01*
X165350715Y-51080300D01*
X164804915Y-51306378D01*
X164387178Y-51724115D01*
X164161100Y-52269915D01*
X163201100Y-52269915D01*
X163201100Y-52041166D01*
X162799945Y-51072692D01*
X162058708Y-50331455D01*
X161090234Y-49930300D01*
X160041966Y-49930300D01*
X159073492Y-50331455D01*
X158332255Y-51072692D01*
X157931100Y-52041166D01*
X156876349Y-52041166D01*
X156760010Y-51760300D01*
X157101213Y-51760300D01*
X157738899Y-51496162D01*
X158226962Y-51008099D01*
X158491100Y-50370413D01*
X158491100Y-49680187D01*
X158226962Y-49042501D01*
X157894629Y-48710168D01*
X162060837Y-48710168D01*
X162171741Y-48987399D01*
X162817693Y-49230623D01*
X163507553Y-49208136D01*
X164040459Y-48987399D01*
X164151363Y-48710168D01*
X163106100Y-47664905D01*
X162060837Y-48710168D01*
X157894629Y-48710168D01*
X157738899Y-48554438D01*
X157101213Y-48290300D01*
X156410987Y-48290300D01*
X155773301Y-48554438D01*
X155285238Y-49042501D01*
X155021100Y-49680187D01*
X155021100Y-50370413D01*
X155285238Y-51008099D01*
X155357439Y-51080300D01*
X155190715Y-51080300D01*
X154644915Y-51306378D01*
X154227178Y-51724115D01*
X154001100Y-52269915D01*
X146950800Y-52269915D01*
X146724722Y-51724115D01*
X146306985Y-51306378D01*
X145761185Y-51080300D01*
X145170415Y-51080300D01*
X144624615Y-51306378D01*
X144206878Y-51724115D01*
X143980800Y-52269915D01*
X143020800Y-52269915D01*
X143020800Y-52041166D01*
X142619645Y-51072692D01*
X141878408Y-50331455D01*
X140909934Y-49930300D01*
X139861666Y-49930300D01*
X138893192Y-50331455D01*
X138151955Y-51072692D01*
X137750800Y-52041166D01*
X136696049Y-52041166D01*
X136579710Y-51760300D01*
X136920913Y-51760300D01*
X137558599Y-51496162D01*
X138046662Y-51008099D01*
X138310800Y-50370413D01*
X138310800Y-49680187D01*
X138046662Y-49042501D01*
X137714329Y-48710168D01*
X141880537Y-48710168D01*
X141991441Y-48987399D01*
X142637393Y-49230623D01*
X143327253Y-49208136D01*
X143860159Y-48987399D01*
X143971063Y-48710168D01*
X142925800Y-47664905D01*
X141880537Y-48710168D01*
X137714329Y-48710168D01*
X137558599Y-48554438D01*
X136920913Y-48290300D01*
X136230687Y-48290300D01*
X135593001Y-48554438D01*
X135104938Y-49042501D01*
X134840800Y-49680187D01*
X134840800Y-50370413D01*
X135104938Y-51008099D01*
X135177139Y-51080300D01*
X135010415Y-51080300D01*
X134464615Y-51306378D01*
X134046878Y-51724115D01*
X133820800Y-52269915D01*
X131404900Y-52269915D01*
X131404900Y-48256776D01*
X131419788Y-48181929D01*
X131404900Y-48107082D01*
X131404900Y-47196893D01*
X141180477Y-47196893D01*
X141202964Y-47886753D01*
X141423701Y-48419659D01*
X141700932Y-48530563D01*
X142746195Y-47485300D01*
X143105405Y-47485300D01*
X144150668Y-48530563D01*
X144427899Y-48419659D01*
X144671123Y-47773707D01*
X144652321Y-47196893D01*
X161360777Y-47196893D01*
X161383264Y-47886753D01*
X161604001Y-48419659D01*
X161881232Y-48530563D01*
X162926495Y-47485300D01*
X163285705Y-47485300D01*
X164330968Y-48530563D01*
X164608199Y-48419659D01*
X164851423Y-47773707D01*
X164828936Y-47083847D01*
X164608199Y-46550941D01*
X164330968Y-46440037D01*
X163285705Y-47485300D01*
X162926495Y-47485300D01*
X161881232Y-46440037D01*
X161604001Y-46550941D01*
X161360777Y-47196893D01*
X144652321Y-47196893D01*
X144648636Y-47083847D01*
X144427899Y-46550941D01*
X144150668Y-46440037D01*
X143105405Y-47485300D01*
X142746195Y-47485300D01*
X141700932Y-46440037D01*
X141423701Y-46550941D01*
X141180477Y-47196893D01*
X131404900Y-47196893D01*
X131404900Y-46260432D01*
X141880537Y-46260432D01*
X142925800Y-47305695D01*
X143971063Y-46260432D01*
X162060837Y-46260432D01*
X163106100Y-47305695D01*
X164151363Y-46260432D01*
X164040459Y-45983201D01*
X163394507Y-45739977D01*
X162704647Y-45762464D01*
X162171741Y-45983201D01*
X162060837Y-46260432D01*
X143971063Y-46260432D01*
X143860159Y-45983201D01*
X143214207Y-45739977D01*
X142524347Y-45762464D01*
X141991441Y-45983201D01*
X141880537Y-46260432D01*
X131404900Y-46260432D01*
X131404900Y-44256801D01*
X136008898Y-39652804D01*
X136061761Y-39674700D01*
X136632639Y-39674700D01*
X137160062Y-39456234D01*
X137563734Y-39052562D01*
X137617200Y-38923484D01*
X137670666Y-39052562D01*
X138074338Y-39456234D01*
X138601761Y-39674700D01*
X139172639Y-39674700D01*
X139700062Y-39456234D01*
X140103734Y-39052562D01*
X140157200Y-38923484D01*
X140210666Y-39052562D01*
X140614338Y-39456234D01*
X141141761Y-39674700D01*
X141712639Y-39674700D01*
X142240062Y-39456234D01*
X142484735Y-39211561D01*
X149128580Y-39211561D01*
X149128580Y-39782439D01*
X149347046Y-40309862D01*
X149750718Y-40713534D01*
X150278141Y-40932000D01*
X150849019Y-40932000D01*
X151376442Y-40713534D01*
X151585231Y-40504745D01*
X152270361Y-40504745D01*
X152344495Y-40750864D01*
X152881723Y-40943965D01*
X153451954Y-40916778D01*
X153852505Y-40750864D01*
X153926639Y-40504745D01*
X153098500Y-39676605D01*
X152270361Y-40504745D01*
X151585231Y-40504745D01*
X151780114Y-40309862D01*
X151824565Y-40202549D01*
X151844636Y-40251005D01*
X152090755Y-40325139D01*
X152918895Y-39497000D01*
X153278105Y-39497000D01*
X154106245Y-40325139D01*
X154352364Y-40251005D01*
X154545465Y-39713777D01*
X154518278Y-39143546D01*
X154352364Y-38742995D01*
X154106245Y-38668861D01*
X153278105Y-39497000D01*
X152918895Y-39497000D01*
X152090755Y-38668861D01*
X151844636Y-38742995D01*
X151825986Y-38794882D01*
X151780114Y-38684138D01*
X151585231Y-38489255D01*
X152270361Y-38489255D01*
X153098500Y-39317395D01*
X153926639Y-38489255D01*
X153911320Y-38438394D01*
X170804900Y-38438394D01*
X170804900Y-39387206D01*
X171167995Y-40263794D01*
X171838906Y-40934705D01*
X172715494Y-41297800D01*
X173664306Y-41297800D01*
X174540894Y-40934705D01*
X175211805Y-40263794D01*
X175574900Y-39387206D01*
X175574900Y-38438394D01*
X175211805Y-37561806D01*
X174540894Y-36890895D01*
X173664306Y-36527800D01*
X172715494Y-36527800D01*
X171838906Y-36890895D01*
X171167995Y-37561806D01*
X170804900Y-38438394D01*
X153911320Y-38438394D01*
X153852505Y-38243136D01*
X153315277Y-38050035D01*
X152745046Y-38077222D01*
X152344495Y-38243136D01*
X152270361Y-38489255D01*
X151585231Y-38489255D01*
X151376442Y-38280466D01*
X150849019Y-38062000D01*
X150278141Y-38062000D01*
X149750718Y-38280466D01*
X149347046Y-38684138D01*
X149128580Y-39211561D01*
X142484735Y-39211561D01*
X142643734Y-39052562D01*
X142862200Y-38525139D01*
X142862200Y-37954261D01*
X142643734Y-37426838D01*
X142240062Y-37023166D01*
X141712639Y-36804700D01*
X141141761Y-36804700D01*
X140614338Y-37023166D01*
X140210666Y-37426838D01*
X140157200Y-37555916D01*
X140103734Y-37426838D01*
X139700062Y-37023166D01*
X139172639Y-36804700D01*
X138601761Y-36804700D01*
X138074338Y-37023166D01*
X137670666Y-37426838D01*
X137617200Y-37555916D01*
X137563734Y-37426838D01*
X137160062Y-37023166D01*
X136632639Y-36804700D01*
X136061761Y-36804700D01*
X135534338Y-37023166D01*
X135130666Y-37426838D01*
X134912200Y-37954261D01*
X134912200Y-38525139D01*
X134934096Y-38578002D01*
X130160428Y-43351671D01*
X130096972Y-43394071D01*
X130054572Y-43457527D01*
X130054571Y-43457528D01*
X129928997Y-43645463D01*
X129870012Y-43942000D01*
X129884901Y-44016852D01*
X129884900Y-46347128D01*
X122398414Y-38860643D01*
X122407444Y-38851613D01*
X123151392Y-38851613D01*
X123220857Y-39093797D01*
X123744302Y-39280544D01*
X124299368Y-39252762D01*
X124683143Y-39093797D01*
X124752608Y-38851613D01*
X123952000Y-38051005D01*
X123151392Y-38851613D01*
X122407444Y-38851613D01*
X122596320Y-38662737D01*
X122675428Y-38471753D01*
X122729603Y-38602543D01*
X122971787Y-38672008D01*
X123772395Y-37871400D01*
X124131605Y-37871400D01*
X124932213Y-38672008D01*
X125174397Y-38602543D01*
X125224535Y-38462007D01*
X125307680Y-38662737D01*
X125700663Y-39055720D01*
X126214119Y-39268400D01*
X126769881Y-39268400D01*
X127283337Y-39055720D01*
X127676320Y-38662737D01*
X127889000Y-38149281D01*
X127889000Y-37593519D01*
X127676320Y-37080063D01*
X127283337Y-36687080D01*
X126769881Y-36474400D01*
X126214119Y-36474400D01*
X125700663Y-36687080D01*
X125307680Y-37080063D01*
X125228572Y-37271047D01*
X125174397Y-37140257D01*
X124932213Y-37070792D01*
X124131605Y-37871400D01*
X123772395Y-37871400D01*
X122971787Y-37070792D01*
X122729603Y-37140257D01*
X122679465Y-37280793D01*
X122596320Y-37080063D01*
X122407444Y-36891187D01*
X123151392Y-36891187D01*
X123952000Y-37691795D01*
X124752608Y-36891187D01*
X124683143Y-36649003D01*
X124159698Y-36462256D01*
X123604632Y-36490038D01*
X123220857Y-36649003D01*
X123151392Y-36891187D01*
X122407444Y-36891187D01*
X122203337Y-36687080D01*
X121689881Y-36474400D01*
X121134119Y-36474400D01*
X120620663Y-36687080D01*
X120227680Y-37080063D01*
X120015000Y-37593519D01*
X108981741Y-37593519D01*
X108968605Y-37561806D01*
X108297694Y-36890895D01*
X107421106Y-36527800D01*
X106472294Y-36527800D01*
X105595706Y-36890895D01*
X104924795Y-37561806D01*
X104561700Y-38438394D01*
X103897500Y-38438394D01*
X103897500Y-37738266D01*
X103959002Y-37251428D01*
X105309558Y-35930717D01*
X105646162Y-35866507D01*
X105738664Y-35863600D01*
X174110434Y-35863600D01*
X174562099Y-35920658D01*
G04 #@! TD*
M02*
