G04 #@! TF.GenerationSoftware,KiCad,Pcbnew,5.0.2+dfsg1-1~bpo9+1*
G04 #@! TF.CreationDate,2019-11-16T16:08:00+00:00*
G04 #@! TF.ProjectId,remote_cherry,72656d6f-7465-45f6-9368-657272792e6b,rev?*
G04 #@! TF.SameCoordinates,Original*
G04 #@! TF.FileFunction,Soldermask,Top*
G04 #@! TF.FilePolarity,Negative*
%FSLAX46Y46*%
G04 Gerber Fmt 4.6, Leading zero omitted, Abs format (unit mm)*
G04 Created by KiCad (PCBNEW 5.0.2+dfsg1-1~bpo9+1) date Sat 16 Nov 2019 16:08:00 GMT*
%MOMM*%
%LPD*%
G01*
G04 APERTURE LIST*
%ADD10C,0.100000*%
G04 APERTURE END LIST*
D10*
G36*
X127228498Y-115996568D02*
X127296484Y-116017191D01*
X127359137Y-116050680D01*
X127414052Y-116095748D01*
X127459120Y-116150663D01*
X127492609Y-116213316D01*
X127513232Y-116281302D01*
X127520800Y-116358140D01*
X127520800Y-117321860D01*
X127513232Y-117398698D01*
X127492609Y-117466684D01*
X127459120Y-117529337D01*
X127414052Y-117584252D01*
X127359137Y-117629320D01*
X127296484Y-117662809D01*
X127228498Y-117683432D01*
X127151660Y-117691000D01*
X126187940Y-117691000D01*
X126111102Y-117683432D01*
X126043116Y-117662809D01*
X125980463Y-117629320D01*
X125925548Y-117584252D01*
X125880480Y-117529337D01*
X125846991Y-117466684D01*
X125826368Y-117398698D01*
X125818800Y-117321860D01*
X125818800Y-116358140D01*
X125826368Y-116281302D01*
X125846991Y-116213316D01*
X125880480Y-116150663D01*
X125925548Y-116095748D01*
X125980463Y-116050680D01*
X126043116Y-116017191D01*
X126111102Y-115996568D01*
X126187940Y-115989000D01*
X127151660Y-115989000D01*
X127228498Y-115996568D01*
X127228498Y-115996568D01*
G37*
G36*
X113512498Y-115983868D02*
X113580484Y-116004491D01*
X113643137Y-116037980D01*
X113698052Y-116083048D01*
X113743120Y-116137963D01*
X113776609Y-116200616D01*
X113797232Y-116268602D01*
X113804800Y-116345440D01*
X113804800Y-117309160D01*
X113797232Y-117385998D01*
X113776609Y-117453984D01*
X113743120Y-117516637D01*
X113698052Y-117571552D01*
X113643137Y-117616620D01*
X113580484Y-117650109D01*
X113512498Y-117670732D01*
X113435660Y-117678300D01*
X112471940Y-117678300D01*
X112395102Y-117670732D01*
X112327116Y-117650109D01*
X112264463Y-117616620D01*
X112209548Y-117571552D01*
X112164480Y-117516637D01*
X112130991Y-117453984D01*
X112110368Y-117385998D01*
X112102800Y-117309160D01*
X112102800Y-116345440D01*
X112110368Y-116268602D01*
X112130991Y-116200616D01*
X112164480Y-116137963D01*
X112209548Y-116083048D01*
X112264463Y-116037980D01*
X112327116Y-116004491D01*
X112395102Y-115983868D01*
X112471940Y-115976300D01*
X113435660Y-115976300D01*
X113512498Y-115983868D01*
X113512498Y-115983868D01*
G37*
G36*
X146629001Y-115534568D02*
X146811170Y-115610025D01*
X146975123Y-115719575D01*
X147114545Y-115858997D01*
X147224095Y-116022950D01*
X147299552Y-116205119D01*
X147338020Y-116398510D01*
X147338020Y-116595690D01*
X147299552Y-116789081D01*
X147224095Y-116971250D01*
X147114545Y-117135203D01*
X146975123Y-117274625D01*
X146811170Y-117384175D01*
X146642636Y-117453984D01*
X146629001Y-117459632D01*
X146435610Y-117498100D01*
X146238430Y-117498100D01*
X146045039Y-117459632D01*
X146031404Y-117453984D01*
X145862870Y-117384175D01*
X145698917Y-117274625D01*
X145559495Y-117135203D01*
X145449945Y-116971250D01*
X145374488Y-116789081D01*
X145336020Y-116595690D01*
X145336020Y-116398510D01*
X145374488Y-116205119D01*
X145449945Y-116022950D01*
X145559495Y-115858997D01*
X145698917Y-115719575D01*
X145862870Y-115610025D01*
X146045039Y-115534568D01*
X146238430Y-115496100D01*
X146435610Y-115496100D01*
X146629001Y-115534568D01*
X146629001Y-115534568D01*
G37*
G36*
X133888361Y-115534568D02*
X134070530Y-115610025D01*
X134234483Y-115719575D01*
X134373905Y-115858997D01*
X134483455Y-116022950D01*
X134558912Y-116205119D01*
X134597380Y-116398510D01*
X134597380Y-116595690D01*
X134558912Y-116789081D01*
X134483455Y-116971250D01*
X134373905Y-117135203D01*
X134234483Y-117274625D01*
X134070530Y-117384175D01*
X133901996Y-117453984D01*
X133888361Y-117459632D01*
X133694970Y-117498100D01*
X133497790Y-117498100D01*
X133304399Y-117459632D01*
X133290764Y-117453984D01*
X133122230Y-117384175D01*
X132958277Y-117274625D01*
X132818855Y-117135203D01*
X132709305Y-116971250D01*
X132633848Y-116789081D01*
X132595380Y-116595690D01*
X132595380Y-116398510D01*
X132633848Y-116205119D01*
X132709305Y-116022950D01*
X132818855Y-115858997D01*
X132958277Y-115719575D01*
X133122230Y-115610025D01*
X133304399Y-115534568D01*
X133497790Y-115496100D01*
X133694970Y-115496100D01*
X133888361Y-115534568D01*
X133888361Y-115534568D01*
G37*
G36*
X144177328Y-115678803D02*
X144332200Y-115742953D01*
X144471581Y-115836085D01*
X144590115Y-115954619D01*
X144683247Y-116094000D01*
X144747397Y-116248872D01*
X144780100Y-116413284D01*
X144780100Y-116580916D01*
X144747397Y-116745328D01*
X144683247Y-116900200D01*
X144590115Y-117039581D01*
X144471581Y-117158115D01*
X144332200Y-117251247D01*
X144177328Y-117315397D01*
X144012916Y-117348100D01*
X143845284Y-117348100D01*
X143680872Y-117315397D01*
X143526000Y-117251247D01*
X143386619Y-117158115D01*
X143268085Y-117039581D01*
X143174953Y-116900200D01*
X143110803Y-116745328D01*
X143078100Y-116580916D01*
X143078100Y-116413284D01*
X143110803Y-116248872D01*
X143174953Y-116094000D01*
X143268085Y-115954619D01*
X143386619Y-115836085D01*
X143526000Y-115742953D01*
X143680872Y-115678803D01*
X143845284Y-115646100D01*
X144012916Y-115646100D01*
X144177328Y-115678803D01*
X144177328Y-115678803D01*
G37*
G36*
X141926888Y-115678803D02*
X142081760Y-115742953D01*
X142221141Y-115836085D01*
X142339675Y-115954619D01*
X142432807Y-116094000D01*
X142496957Y-116248872D01*
X142529660Y-116413284D01*
X142529660Y-116580916D01*
X142496957Y-116745328D01*
X142432807Y-116900200D01*
X142339675Y-117039581D01*
X142221141Y-117158115D01*
X142081760Y-117251247D01*
X141926888Y-117315397D01*
X141762476Y-117348100D01*
X141594844Y-117348100D01*
X141430432Y-117315397D01*
X141275560Y-117251247D01*
X141136179Y-117158115D01*
X141017645Y-117039581D01*
X140924513Y-116900200D01*
X140860363Y-116745328D01*
X140827660Y-116580916D01*
X140827660Y-116413284D01*
X140860363Y-116248872D01*
X140924513Y-116094000D01*
X141017645Y-115954619D01*
X141136179Y-115836085D01*
X141275560Y-115742953D01*
X141430432Y-115678803D01*
X141594844Y-115646100D01*
X141762476Y-115646100D01*
X141926888Y-115678803D01*
X141926888Y-115678803D01*
G37*
G36*
X139676448Y-115678803D02*
X139831320Y-115742953D01*
X139970701Y-115836085D01*
X140089235Y-115954619D01*
X140182367Y-116094000D01*
X140246517Y-116248872D01*
X140279220Y-116413284D01*
X140279220Y-116580916D01*
X140246517Y-116745328D01*
X140182367Y-116900200D01*
X140089235Y-117039581D01*
X139970701Y-117158115D01*
X139831320Y-117251247D01*
X139676448Y-117315397D01*
X139512036Y-117348100D01*
X139344404Y-117348100D01*
X139179992Y-117315397D01*
X139025120Y-117251247D01*
X138885739Y-117158115D01*
X138767205Y-117039581D01*
X138674073Y-116900200D01*
X138609923Y-116745328D01*
X138577220Y-116580916D01*
X138577220Y-116413284D01*
X138609923Y-116248872D01*
X138674073Y-116094000D01*
X138767205Y-115954619D01*
X138885739Y-115836085D01*
X139025120Y-115742953D01*
X139179992Y-115678803D01*
X139344404Y-115646100D01*
X139512036Y-115646100D01*
X139676448Y-115678803D01*
X139676448Y-115678803D01*
G37*
G36*
X136252528Y-115678803D02*
X136407400Y-115742953D01*
X136546781Y-115836085D01*
X136665315Y-115954619D01*
X136758447Y-116094000D01*
X136822597Y-116248872D01*
X136855300Y-116413284D01*
X136855300Y-116580916D01*
X136822597Y-116745328D01*
X136758447Y-116900200D01*
X136665315Y-117039581D01*
X136546781Y-117158115D01*
X136407400Y-117251247D01*
X136252528Y-117315397D01*
X136088116Y-117348100D01*
X135920484Y-117348100D01*
X135756072Y-117315397D01*
X135601200Y-117251247D01*
X135461819Y-117158115D01*
X135343285Y-117039581D01*
X135250153Y-116900200D01*
X135186003Y-116745328D01*
X135153300Y-116580916D01*
X135153300Y-116413284D01*
X135186003Y-116248872D01*
X135250153Y-116094000D01*
X135343285Y-115954619D01*
X135461819Y-115836085D01*
X135601200Y-115742953D01*
X135756072Y-115678803D01*
X135920484Y-115646100D01*
X136088116Y-115646100D01*
X136252528Y-115678803D01*
X136252528Y-115678803D01*
G37*
G36*
X173715231Y-113749311D02*
X174042992Y-113885074D01*
X174337973Y-114082174D01*
X174588826Y-114333027D01*
X174785926Y-114628008D01*
X174921689Y-114955769D01*
X174990900Y-115303716D01*
X174990900Y-115658484D01*
X174921689Y-116006431D01*
X174785926Y-116334192D01*
X174588826Y-116629173D01*
X174337973Y-116880026D01*
X174042992Y-117077126D01*
X173715231Y-117212889D01*
X173367284Y-117282100D01*
X173012516Y-117282100D01*
X172664569Y-117212889D01*
X172336808Y-117077126D01*
X172041827Y-116880026D01*
X171790974Y-116629173D01*
X171593874Y-116334192D01*
X171458111Y-116006431D01*
X171388900Y-115658484D01*
X171388900Y-115303716D01*
X171458111Y-114955769D01*
X171593874Y-114628008D01*
X171790974Y-114333027D01*
X172041827Y-114082174D01*
X172336808Y-113885074D01*
X172664569Y-113749311D01*
X173012516Y-113680100D01*
X173367284Y-113680100D01*
X173715231Y-113749311D01*
X173715231Y-113749311D01*
G37*
G36*
X107472031Y-113749311D02*
X107799792Y-113885074D01*
X108094773Y-114082174D01*
X108345626Y-114333027D01*
X108542726Y-114628008D01*
X108678489Y-114955769D01*
X108747700Y-115303716D01*
X108747700Y-115658484D01*
X108678489Y-116006431D01*
X108542726Y-116334192D01*
X108345626Y-116629173D01*
X108094773Y-116880026D01*
X107799792Y-117077126D01*
X107472031Y-117212889D01*
X107124084Y-117282100D01*
X106769316Y-117282100D01*
X106421369Y-117212889D01*
X106093608Y-117077126D01*
X105798627Y-116880026D01*
X105547774Y-116629173D01*
X105350674Y-116334192D01*
X105214911Y-116006431D01*
X105145700Y-115658484D01*
X105145700Y-115303716D01*
X105214911Y-114955769D01*
X105350674Y-114628008D01*
X105547774Y-114333027D01*
X105798627Y-114082174D01*
X106093608Y-113885074D01*
X106421369Y-113749311D01*
X106769316Y-113680100D01*
X107124084Y-113680100D01*
X107472031Y-113749311D01*
X107472031Y-113749311D01*
G37*
G36*
X167652598Y-115539368D02*
X167720584Y-115559991D01*
X167783237Y-115593480D01*
X167838152Y-115638548D01*
X167883220Y-115693463D01*
X167916709Y-115756116D01*
X167937332Y-115824102D01*
X167944900Y-115900940D01*
X167944900Y-116864660D01*
X167937332Y-116941498D01*
X167916709Y-117009484D01*
X167883220Y-117072137D01*
X167838152Y-117127052D01*
X167783237Y-117172120D01*
X167720584Y-117205609D01*
X167652598Y-117226232D01*
X167575760Y-117233800D01*
X166612040Y-117233800D01*
X166535202Y-117226232D01*
X166467216Y-117205609D01*
X166404563Y-117172120D01*
X166349648Y-117127052D01*
X166304580Y-117072137D01*
X166271091Y-117009484D01*
X166250468Y-116941498D01*
X166242900Y-116864660D01*
X166242900Y-115900940D01*
X166250468Y-115824102D01*
X166271091Y-115756116D01*
X166304580Y-115693463D01*
X166349648Y-115638548D01*
X166404563Y-115593480D01*
X166467216Y-115559991D01*
X166535202Y-115539368D01*
X166612040Y-115531800D01*
X167575760Y-115531800D01*
X167652598Y-115539368D01*
X167652598Y-115539368D01*
G37*
G36*
X152412598Y-115539368D02*
X152480584Y-115559991D01*
X152543237Y-115593480D01*
X152598152Y-115638548D01*
X152643220Y-115693463D01*
X152676709Y-115756116D01*
X152697332Y-115824102D01*
X152704900Y-115900940D01*
X152704900Y-116864660D01*
X152697332Y-116941498D01*
X152676709Y-117009484D01*
X152643220Y-117072137D01*
X152598152Y-117127052D01*
X152543237Y-117172120D01*
X152480584Y-117205609D01*
X152412598Y-117226232D01*
X152335760Y-117233800D01*
X151372040Y-117233800D01*
X151295202Y-117226232D01*
X151227216Y-117205609D01*
X151164563Y-117172120D01*
X151109648Y-117127052D01*
X151064580Y-117072137D01*
X151031091Y-117009484D01*
X151010468Y-116941498D01*
X151002900Y-116864660D01*
X151002900Y-115900940D01*
X151010468Y-115824102D01*
X151031091Y-115756116D01*
X151064580Y-115693463D01*
X151109648Y-115638548D01*
X151164563Y-115593480D01*
X151227216Y-115559991D01*
X151295202Y-115539368D01*
X151372040Y-115531800D01*
X152335760Y-115531800D01*
X152412598Y-115539368D01*
X152412598Y-115539368D01*
G37*
G36*
X167652598Y-112999368D02*
X167720584Y-113019991D01*
X167783237Y-113053480D01*
X167838152Y-113098548D01*
X167883220Y-113153463D01*
X167916709Y-113216116D01*
X167937332Y-113284102D01*
X167944900Y-113360940D01*
X167944900Y-114324660D01*
X167937332Y-114401498D01*
X167916709Y-114469484D01*
X167883220Y-114532137D01*
X167838152Y-114587052D01*
X167783237Y-114632120D01*
X167720584Y-114665609D01*
X167652598Y-114686232D01*
X167575760Y-114693800D01*
X166612040Y-114693800D01*
X166535202Y-114686232D01*
X166467216Y-114665609D01*
X166404563Y-114632120D01*
X166349648Y-114587052D01*
X166304580Y-114532137D01*
X166271091Y-114469484D01*
X166250468Y-114401498D01*
X166242900Y-114324660D01*
X166242900Y-113360940D01*
X166250468Y-113284102D01*
X166271091Y-113216116D01*
X166304580Y-113153463D01*
X166349648Y-113098548D01*
X166404563Y-113053480D01*
X166467216Y-113019991D01*
X166535202Y-112999368D01*
X166612040Y-112991800D01*
X167575760Y-112991800D01*
X167652598Y-112999368D01*
X167652598Y-112999368D01*
G37*
G36*
X152412598Y-112999368D02*
X152480584Y-113019991D01*
X152543237Y-113053480D01*
X152598152Y-113098548D01*
X152643220Y-113153463D01*
X152676709Y-113216116D01*
X152697332Y-113284102D01*
X152704900Y-113360940D01*
X152704900Y-114324660D01*
X152697332Y-114401498D01*
X152676709Y-114469484D01*
X152643220Y-114532137D01*
X152598152Y-114587052D01*
X152543237Y-114632120D01*
X152480584Y-114665609D01*
X152412598Y-114686232D01*
X152335760Y-114693800D01*
X151372040Y-114693800D01*
X151295202Y-114686232D01*
X151227216Y-114665609D01*
X151164563Y-114632120D01*
X151109648Y-114587052D01*
X151064580Y-114532137D01*
X151031091Y-114469484D01*
X151010468Y-114401498D01*
X151002900Y-114324660D01*
X151002900Y-113360940D01*
X151010468Y-113284102D01*
X151031091Y-113216116D01*
X151064580Y-113153463D01*
X151109648Y-113098548D01*
X151164563Y-113053480D01*
X151227216Y-113019991D01*
X151295202Y-112999368D01*
X151372040Y-112991800D01*
X152335760Y-112991800D01*
X152412598Y-112999368D01*
X152412598Y-112999368D01*
G37*
G36*
X152412598Y-110459368D02*
X152480584Y-110479991D01*
X152543237Y-110513480D01*
X152598152Y-110558548D01*
X152643220Y-110613463D01*
X152676709Y-110676116D01*
X152697332Y-110744102D01*
X152704900Y-110820940D01*
X152704900Y-111784660D01*
X152697332Y-111861498D01*
X152676709Y-111929484D01*
X152643220Y-111992137D01*
X152598152Y-112047052D01*
X152543237Y-112092120D01*
X152480584Y-112125609D01*
X152412598Y-112146232D01*
X152335760Y-112153800D01*
X151372040Y-112153800D01*
X151295202Y-112146232D01*
X151227216Y-112125609D01*
X151164563Y-112092120D01*
X151109648Y-112047052D01*
X151064580Y-111992137D01*
X151031091Y-111929484D01*
X151010468Y-111861498D01*
X151002900Y-111784660D01*
X151002900Y-110820940D01*
X151010468Y-110744102D01*
X151031091Y-110676116D01*
X151064580Y-110613463D01*
X151109648Y-110558548D01*
X151164563Y-110513480D01*
X151227216Y-110479991D01*
X151295202Y-110459368D01*
X151372040Y-110451800D01*
X152335760Y-110451800D01*
X152412598Y-110459368D01*
X152412598Y-110459368D01*
G37*
G36*
X167652598Y-110459368D02*
X167720584Y-110479991D01*
X167783237Y-110513480D01*
X167838152Y-110558548D01*
X167883220Y-110613463D01*
X167916709Y-110676116D01*
X167937332Y-110744102D01*
X167944900Y-110820940D01*
X167944900Y-111784660D01*
X167937332Y-111861498D01*
X167916709Y-111929484D01*
X167883220Y-111992137D01*
X167838152Y-112047052D01*
X167783237Y-112092120D01*
X167720584Y-112125609D01*
X167652598Y-112146232D01*
X167575760Y-112153800D01*
X166612040Y-112153800D01*
X166535202Y-112146232D01*
X166467216Y-112125609D01*
X166404563Y-112092120D01*
X166349648Y-112047052D01*
X166304580Y-111992137D01*
X166271091Y-111929484D01*
X166250468Y-111861498D01*
X166242900Y-111784660D01*
X166242900Y-110820940D01*
X166250468Y-110744102D01*
X166271091Y-110676116D01*
X166304580Y-110613463D01*
X166349648Y-110558548D01*
X166404563Y-110513480D01*
X166467216Y-110479991D01*
X166535202Y-110459368D01*
X166612040Y-110451800D01*
X167575760Y-110451800D01*
X167652598Y-110459368D01*
X167652598Y-110459368D01*
G37*
G36*
X134703128Y-108490603D02*
X134858000Y-108554753D01*
X134997381Y-108647885D01*
X135115915Y-108766419D01*
X135209047Y-108905800D01*
X135273197Y-109060672D01*
X135305900Y-109225084D01*
X135305900Y-109392716D01*
X135273197Y-109557128D01*
X135209047Y-109712000D01*
X135115915Y-109851381D01*
X134997381Y-109969915D01*
X134858000Y-110063047D01*
X134703128Y-110127197D01*
X134538716Y-110159900D01*
X134371084Y-110159900D01*
X134206672Y-110127197D01*
X134051800Y-110063047D01*
X133912419Y-109969915D01*
X133793885Y-109851381D01*
X133700753Y-109712000D01*
X133636603Y-109557128D01*
X133603900Y-109392716D01*
X133603900Y-109225084D01*
X133636603Y-109060672D01*
X133700753Y-108905800D01*
X133793885Y-108766419D01*
X133912419Y-108647885D01*
X134051800Y-108554753D01*
X134206672Y-108490603D01*
X134371084Y-108457900D01*
X134538716Y-108457900D01*
X134703128Y-108490603D01*
X134703128Y-108490603D01*
G37*
G36*
X132671128Y-108490603D02*
X132826000Y-108554753D01*
X132965381Y-108647885D01*
X133083915Y-108766419D01*
X133177047Y-108905800D01*
X133241197Y-109060672D01*
X133273900Y-109225084D01*
X133273900Y-109392716D01*
X133241197Y-109557128D01*
X133177047Y-109712000D01*
X133083915Y-109851381D01*
X132965381Y-109969915D01*
X132826000Y-110063047D01*
X132671128Y-110127197D01*
X132506716Y-110159900D01*
X132339084Y-110159900D01*
X132174672Y-110127197D01*
X132019800Y-110063047D01*
X131880419Y-109969915D01*
X131761885Y-109851381D01*
X131668753Y-109712000D01*
X131604603Y-109557128D01*
X131571900Y-109392716D01*
X131571900Y-109225084D01*
X131604603Y-109060672D01*
X131668753Y-108905800D01*
X131761885Y-108766419D01*
X131880419Y-108647885D01*
X132019800Y-108554753D01*
X132174672Y-108490603D01*
X132339084Y-108457900D01*
X132506716Y-108457900D01*
X132671128Y-108490603D01*
X132671128Y-108490603D01*
G37*
G36*
X167652598Y-107919368D02*
X167720584Y-107939991D01*
X167783237Y-107973480D01*
X167838152Y-108018548D01*
X167883220Y-108073463D01*
X167916709Y-108136116D01*
X167937332Y-108204102D01*
X167944900Y-108280940D01*
X167944900Y-109244660D01*
X167937332Y-109321498D01*
X167916709Y-109389484D01*
X167883220Y-109452137D01*
X167838152Y-109507052D01*
X167783237Y-109552120D01*
X167720584Y-109585609D01*
X167652598Y-109606232D01*
X167575760Y-109613800D01*
X166612040Y-109613800D01*
X166535202Y-109606232D01*
X166467216Y-109585609D01*
X166404563Y-109552120D01*
X166349648Y-109507052D01*
X166304580Y-109452137D01*
X166271091Y-109389484D01*
X166250468Y-109321498D01*
X166242900Y-109244660D01*
X166242900Y-108280940D01*
X166250468Y-108204102D01*
X166271091Y-108136116D01*
X166304580Y-108073463D01*
X166349648Y-108018548D01*
X166404563Y-107973480D01*
X166467216Y-107939991D01*
X166535202Y-107919368D01*
X166612040Y-107911800D01*
X167575760Y-107911800D01*
X167652598Y-107919368D01*
X167652598Y-107919368D01*
G37*
G36*
X152412598Y-107919368D02*
X152480584Y-107939991D01*
X152543237Y-107973480D01*
X152598152Y-108018548D01*
X152643220Y-108073463D01*
X152676709Y-108136116D01*
X152697332Y-108204102D01*
X152704900Y-108280940D01*
X152704900Y-109244660D01*
X152697332Y-109321498D01*
X152676709Y-109389484D01*
X152643220Y-109452137D01*
X152598152Y-109507052D01*
X152543237Y-109552120D01*
X152480584Y-109585609D01*
X152412598Y-109606232D01*
X152335760Y-109613800D01*
X151372040Y-109613800D01*
X151295202Y-109606232D01*
X151227216Y-109585609D01*
X151164563Y-109552120D01*
X151109648Y-109507052D01*
X151064580Y-109452137D01*
X151031091Y-109389484D01*
X151010468Y-109321498D01*
X151002900Y-109244660D01*
X151002900Y-108280940D01*
X151010468Y-108204102D01*
X151031091Y-108136116D01*
X151064580Y-108073463D01*
X151109648Y-108018548D01*
X151164563Y-107973480D01*
X151227216Y-107939991D01*
X151295202Y-107919368D01*
X151372040Y-107911800D01*
X152335760Y-107911800D01*
X152412598Y-107919368D01*
X152412598Y-107919368D01*
G37*
G36*
X152412598Y-105379368D02*
X152480584Y-105399991D01*
X152543237Y-105433480D01*
X152598152Y-105478548D01*
X152643220Y-105533463D01*
X152676709Y-105596116D01*
X152697332Y-105664102D01*
X152704900Y-105740940D01*
X152704900Y-106704660D01*
X152697332Y-106781498D01*
X152676709Y-106849484D01*
X152643220Y-106912137D01*
X152598152Y-106967052D01*
X152543237Y-107012120D01*
X152480584Y-107045609D01*
X152412598Y-107066232D01*
X152335760Y-107073800D01*
X151372040Y-107073800D01*
X151295202Y-107066232D01*
X151227216Y-107045609D01*
X151164563Y-107012120D01*
X151109648Y-106967052D01*
X151064580Y-106912137D01*
X151031091Y-106849484D01*
X151010468Y-106781498D01*
X151002900Y-106704660D01*
X151002900Y-105740940D01*
X151010468Y-105664102D01*
X151031091Y-105596116D01*
X151064580Y-105533463D01*
X151109648Y-105478548D01*
X151164563Y-105433480D01*
X151227216Y-105399991D01*
X151295202Y-105379368D01*
X151372040Y-105371800D01*
X152335760Y-105371800D01*
X152412598Y-105379368D01*
X152412598Y-105379368D01*
G37*
G36*
X167652598Y-105379368D02*
X167720584Y-105399991D01*
X167783237Y-105433480D01*
X167838152Y-105478548D01*
X167883220Y-105533463D01*
X167916709Y-105596116D01*
X167937332Y-105664102D01*
X167944900Y-105740940D01*
X167944900Y-106704660D01*
X167937332Y-106781498D01*
X167916709Y-106849484D01*
X167883220Y-106912137D01*
X167838152Y-106967052D01*
X167783237Y-107012120D01*
X167720584Y-107045609D01*
X167652598Y-107066232D01*
X167575760Y-107073800D01*
X166612040Y-107073800D01*
X166535202Y-107066232D01*
X166467216Y-107045609D01*
X166404563Y-107012120D01*
X166349648Y-106967052D01*
X166304580Y-106912137D01*
X166271091Y-106849484D01*
X166250468Y-106781498D01*
X166242900Y-106704660D01*
X166242900Y-105740940D01*
X166250468Y-105664102D01*
X166271091Y-105596116D01*
X166304580Y-105533463D01*
X166349648Y-105478548D01*
X166404563Y-105433480D01*
X166467216Y-105399991D01*
X166535202Y-105379368D01*
X166612040Y-105371800D01*
X167575760Y-105371800D01*
X167652598Y-105379368D01*
X167652598Y-105379368D01*
G37*
G36*
X167652598Y-102839368D02*
X167720584Y-102859991D01*
X167783237Y-102893480D01*
X167838152Y-102938548D01*
X167883220Y-102993463D01*
X167916709Y-103056116D01*
X167937332Y-103124102D01*
X167944900Y-103200940D01*
X167944900Y-104164660D01*
X167937332Y-104241498D01*
X167916709Y-104309484D01*
X167883220Y-104372137D01*
X167838152Y-104427052D01*
X167783237Y-104472120D01*
X167720584Y-104505609D01*
X167652598Y-104526232D01*
X167575760Y-104533800D01*
X166612040Y-104533800D01*
X166535202Y-104526232D01*
X166467216Y-104505609D01*
X166404563Y-104472120D01*
X166349648Y-104427052D01*
X166304580Y-104372137D01*
X166271091Y-104309484D01*
X166250468Y-104241498D01*
X166242900Y-104164660D01*
X166242900Y-103200940D01*
X166250468Y-103124102D01*
X166271091Y-103056116D01*
X166304580Y-102993463D01*
X166349648Y-102938548D01*
X166404563Y-102893480D01*
X166467216Y-102859991D01*
X166535202Y-102839368D01*
X166612040Y-102831800D01*
X167575760Y-102831800D01*
X167652598Y-102839368D01*
X167652598Y-102839368D01*
G37*
G36*
X152412598Y-102839368D02*
X152480584Y-102859991D01*
X152543237Y-102893480D01*
X152598152Y-102938548D01*
X152643220Y-102993463D01*
X152676709Y-103056116D01*
X152697332Y-103124102D01*
X152704900Y-103200940D01*
X152704900Y-104164660D01*
X152697332Y-104241498D01*
X152676709Y-104309484D01*
X152643220Y-104372137D01*
X152598152Y-104427052D01*
X152543237Y-104472120D01*
X152480584Y-104505609D01*
X152412598Y-104526232D01*
X152335760Y-104533800D01*
X151372040Y-104533800D01*
X151295202Y-104526232D01*
X151227216Y-104505609D01*
X151164563Y-104472120D01*
X151109648Y-104427052D01*
X151064580Y-104372137D01*
X151031091Y-104309484D01*
X151010468Y-104241498D01*
X151002900Y-104164660D01*
X151002900Y-103200940D01*
X151010468Y-103124102D01*
X151031091Y-103056116D01*
X151064580Y-102993463D01*
X151109648Y-102938548D01*
X151164563Y-102893480D01*
X151227216Y-102859991D01*
X151295202Y-102839368D01*
X151372040Y-102831800D01*
X152335760Y-102831800D01*
X152412598Y-102839368D01*
X152412598Y-102839368D01*
G37*
G36*
X167652598Y-100299368D02*
X167720584Y-100319991D01*
X167783237Y-100353480D01*
X167838152Y-100398548D01*
X167883220Y-100453463D01*
X167916709Y-100516116D01*
X167937332Y-100584102D01*
X167944900Y-100660940D01*
X167944900Y-101624660D01*
X167937332Y-101701498D01*
X167916709Y-101769484D01*
X167883220Y-101832137D01*
X167838152Y-101887052D01*
X167783237Y-101932120D01*
X167720584Y-101965609D01*
X167652598Y-101986232D01*
X167575760Y-101993800D01*
X166612040Y-101993800D01*
X166535202Y-101986232D01*
X166467216Y-101965609D01*
X166404563Y-101932120D01*
X166349648Y-101887052D01*
X166304580Y-101832137D01*
X166271091Y-101769484D01*
X166250468Y-101701498D01*
X166242900Y-101624660D01*
X166242900Y-100660940D01*
X166250468Y-100584102D01*
X166271091Y-100516116D01*
X166304580Y-100453463D01*
X166349648Y-100398548D01*
X166404563Y-100353480D01*
X166467216Y-100319991D01*
X166535202Y-100299368D01*
X166612040Y-100291800D01*
X167575760Y-100291800D01*
X167652598Y-100299368D01*
X167652598Y-100299368D01*
G37*
G36*
X152412598Y-100299368D02*
X152480584Y-100319991D01*
X152543237Y-100353480D01*
X152598152Y-100398548D01*
X152643220Y-100453463D01*
X152676709Y-100516116D01*
X152697332Y-100584102D01*
X152704900Y-100660940D01*
X152704900Y-101624660D01*
X152697332Y-101701498D01*
X152676709Y-101769484D01*
X152643220Y-101832137D01*
X152598152Y-101887052D01*
X152543237Y-101932120D01*
X152480584Y-101965609D01*
X152412598Y-101986232D01*
X152335760Y-101993800D01*
X151372040Y-101993800D01*
X151295202Y-101986232D01*
X151227216Y-101965609D01*
X151164563Y-101932120D01*
X151109648Y-101887052D01*
X151064580Y-101832137D01*
X151031091Y-101769484D01*
X151010468Y-101701498D01*
X151002900Y-101624660D01*
X151002900Y-100660940D01*
X151010468Y-100584102D01*
X151031091Y-100516116D01*
X151064580Y-100453463D01*
X151109648Y-100398548D01*
X151164563Y-100353480D01*
X151227216Y-100319991D01*
X151295202Y-100299368D01*
X151372040Y-100291800D01*
X152335760Y-100291800D01*
X152412598Y-100299368D01*
X152412598Y-100299368D01*
G37*
G36*
X152412598Y-97759368D02*
X152480584Y-97779991D01*
X152543237Y-97813480D01*
X152598152Y-97858548D01*
X152643220Y-97913463D01*
X152676709Y-97976116D01*
X152697332Y-98044102D01*
X152704900Y-98120940D01*
X152704900Y-99084660D01*
X152697332Y-99161498D01*
X152676709Y-99229484D01*
X152643220Y-99292137D01*
X152598152Y-99347052D01*
X152543237Y-99392120D01*
X152480584Y-99425609D01*
X152412598Y-99446232D01*
X152335760Y-99453800D01*
X151372040Y-99453800D01*
X151295202Y-99446232D01*
X151227216Y-99425609D01*
X151164563Y-99392120D01*
X151109648Y-99347052D01*
X151064580Y-99292137D01*
X151031091Y-99229484D01*
X151010468Y-99161498D01*
X151002900Y-99084660D01*
X151002900Y-98120940D01*
X151010468Y-98044102D01*
X151031091Y-97976116D01*
X151064580Y-97913463D01*
X151109648Y-97858548D01*
X151164563Y-97813480D01*
X151227216Y-97779991D01*
X151295202Y-97759368D01*
X151372040Y-97751800D01*
X152335760Y-97751800D01*
X152412598Y-97759368D01*
X152412598Y-97759368D01*
G37*
G36*
X167652598Y-97759368D02*
X167720584Y-97779991D01*
X167783237Y-97813480D01*
X167838152Y-97858548D01*
X167883220Y-97913463D01*
X167916709Y-97976116D01*
X167937332Y-98044102D01*
X167944900Y-98120940D01*
X167944900Y-99084660D01*
X167937332Y-99161498D01*
X167916709Y-99229484D01*
X167883220Y-99292137D01*
X167838152Y-99347052D01*
X167783237Y-99392120D01*
X167720584Y-99425609D01*
X167652598Y-99446232D01*
X167575760Y-99453800D01*
X166612040Y-99453800D01*
X166535202Y-99446232D01*
X166467216Y-99425609D01*
X166404563Y-99392120D01*
X166349648Y-99347052D01*
X166304580Y-99292137D01*
X166271091Y-99229484D01*
X166250468Y-99161498D01*
X166242900Y-99084660D01*
X166242900Y-98120940D01*
X166250468Y-98044102D01*
X166271091Y-97976116D01*
X166304580Y-97913463D01*
X166349648Y-97858548D01*
X166404563Y-97813480D01*
X166467216Y-97779991D01*
X166535202Y-97759368D01*
X166612040Y-97751800D01*
X167575760Y-97751800D01*
X167652598Y-97759368D01*
X167652598Y-97759368D01*
G37*
G36*
X152412598Y-95219368D02*
X152480584Y-95239991D01*
X152543237Y-95273480D01*
X152598152Y-95318548D01*
X152643220Y-95373463D01*
X152676709Y-95436116D01*
X152697332Y-95504102D01*
X152704900Y-95580940D01*
X152704900Y-96544660D01*
X152697332Y-96621498D01*
X152676709Y-96689484D01*
X152643220Y-96752137D01*
X152598152Y-96807052D01*
X152543237Y-96852120D01*
X152480584Y-96885609D01*
X152412598Y-96906232D01*
X152335760Y-96913800D01*
X151372040Y-96913800D01*
X151295202Y-96906232D01*
X151227216Y-96885609D01*
X151164563Y-96852120D01*
X151109648Y-96807052D01*
X151064580Y-96752137D01*
X151031091Y-96689484D01*
X151010468Y-96621498D01*
X151002900Y-96544660D01*
X151002900Y-95580940D01*
X151010468Y-95504102D01*
X151031091Y-95436116D01*
X151064580Y-95373463D01*
X151109648Y-95318548D01*
X151164563Y-95273480D01*
X151227216Y-95239991D01*
X151295202Y-95219368D01*
X151372040Y-95211800D01*
X152335760Y-95211800D01*
X152412598Y-95219368D01*
X152412598Y-95219368D01*
G37*
G36*
X167652598Y-95219368D02*
X167720584Y-95239991D01*
X167783237Y-95273480D01*
X167838152Y-95318548D01*
X167883220Y-95373463D01*
X167916709Y-95436116D01*
X167937332Y-95504102D01*
X167944900Y-95580940D01*
X167944900Y-96544660D01*
X167937332Y-96621498D01*
X167916709Y-96689484D01*
X167883220Y-96752137D01*
X167838152Y-96807052D01*
X167783237Y-96852120D01*
X167720584Y-96885609D01*
X167652598Y-96906232D01*
X167575760Y-96913800D01*
X166612040Y-96913800D01*
X166535202Y-96906232D01*
X166467216Y-96885609D01*
X166404563Y-96852120D01*
X166349648Y-96807052D01*
X166304580Y-96752137D01*
X166271091Y-96689484D01*
X166250468Y-96621498D01*
X166242900Y-96544660D01*
X166242900Y-95580940D01*
X166250468Y-95504102D01*
X166271091Y-95436116D01*
X166304580Y-95373463D01*
X166349648Y-95318548D01*
X166404563Y-95273480D01*
X166467216Y-95239991D01*
X166535202Y-95219368D01*
X166612040Y-95211800D01*
X167575760Y-95211800D01*
X167652598Y-95219368D01*
X167652598Y-95219368D01*
G37*
G36*
X113436298Y-93200068D02*
X113504284Y-93220691D01*
X113566937Y-93254180D01*
X113621852Y-93299248D01*
X113666920Y-93354163D01*
X113700409Y-93416816D01*
X113721032Y-93484802D01*
X113728600Y-93561640D01*
X113728600Y-94525360D01*
X113721032Y-94602198D01*
X113700409Y-94670184D01*
X113666920Y-94732837D01*
X113621852Y-94787752D01*
X113566937Y-94832820D01*
X113504284Y-94866309D01*
X113436298Y-94886932D01*
X113359460Y-94894500D01*
X112395740Y-94894500D01*
X112318902Y-94886932D01*
X112250916Y-94866309D01*
X112188263Y-94832820D01*
X112133348Y-94787752D01*
X112088280Y-94732837D01*
X112054791Y-94670184D01*
X112034168Y-94602198D01*
X112026600Y-94525360D01*
X112026600Y-93561640D01*
X112034168Y-93484802D01*
X112054791Y-93416816D01*
X112088280Y-93354163D01*
X112133348Y-93299248D01*
X112188263Y-93254180D01*
X112250916Y-93220691D01*
X112318902Y-93200068D01*
X112395740Y-93192500D01*
X113359460Y-93192500D01*
X113436298Y-93200068D01*
X113436298Y-93200068D01*
G37*
G36*
X116687498Y-93200068D02*
X116755484Y-93220691D01*
X116818137Y-93254180D01*
X116873052Y-93299248D01*
X116918120Y-93354163D01*
X116951609Y-93416816D01*
X116972232Y-93484802D01*
X116979800Y-93561640D01*
X116979800Y-94525360D01*
X116972232Y-94602198D01*
X116951609Y-94670184D01*
X116918120Y-94732837D01*
X116873052Y-94787752D01*
X116818137Y-94832820D01*
X116755484Y-94866309D01*
X116687498Y-94886932D01*
X116610660Y-94894500D01*
X115646940Y-94894500D01*
X115570102Y-94886932D01*
X115502116Y-94866309D01*
X115439463Y-94832820D01*
X115384548Y-94787752D01*
X115339480Y-94732837D01*
X115305991Y-94670184D01*
X115285368Y-94602198D01*
X115277800Y-94525360D01*
X115277800Y-93561640D01*
X115285368Y-93484802D01*
X115305991Y-93416816D01*
X115339480Y-93354163D01*
X115384548Y-93299248D01*
X115439463Y-93254180D01*
X115502116Y-93220691D01*
X115570102Y-93200068D01*
X115646940Y-93192500D01*
X116610660Y-93192500D01*
X116687498Y-93200068D01*
X116687498Y-93200068D01*
G37*
G36*
X127291998Y-93136568D02*
X127359984Y-93157191D01*
X127422637Y-93190680D01*
X127477552Y-93235748D01*
X127522620Y-93290663D01*
X127556109Y-93353316D01*
X127576732Y-93421302D01*
X127584300Y-93498140D01*
X127584300Y-94461860D01*
X127576732Y-94538698D01*
X127556109Y-94606684D01*
X127522620Y-94669337D01*
X127477552Y-94724252D01*
X127422637Y-94769320D01*
X127359984Y-94802809D01*
X127291998Y-94823432D01*
X127215160Y-94831000D01*
X126251440Y-94831000D01*
X126174602Y-94823432D01*
X126106616Y-94802809D01*
X126043963Y-94769320D01*
X125989048Y-94724252D01*
X125943980Y-94669337D01*
X125910491Y-94606684D01*
X125889868Y-94538698D01*
X125882300Y-94461860D01*
X125882300Y-93498140D01*
X125889868Y-93421302D01*
X125910491Y-93353316D01*
X125943980Y-93290663D01*
X125989048Y-93235748D01*
X126043963Y-93190680D01*
X126106616Y-93157191D01*
X126174602Y-93136568D01*
X126251440Y-93129000D01*
X127215160Y-93129000D01*
X127291998Y-93136568D01*
X127291998Y-93136568D01*
G37*
G36*
X123672498Y-93136568D02*
X123740484Y-93157191D01*
X123803137Y-93190680D01*
X123858052Y-93235748D01*
X123903120Y-93290663D01*
X123936609Y-93353316D01*
X123957232Y-93421302D01*
X123964800Y-93498140D01*
X123964800Y-94461860D01*
X123957232Y-94538698D01*
X123936609Y-94606684D01*
X123903120Y-94669337D01*
X123858052Y-94724252D01*
X123803137Y-94769320D01*
X123740484Y-94802809D01*
X123672498Y-94823432D01*
X123595660Y-94831000D01*
X122631940Y-94831000D01*
X122555102Y-94823432D01*
X122487116Y-94802809D01*
X122424463Y-94769320D01*
X122369548Y-94724252D01*
X122324480Y-94669337D01*
X122290991Y-94606684D01*
X122270368Y-94538698D01*
X122262800Y-94461860D01*
X122262800Y-93498140D01*
X122270368Y-93421302D01*
X122290991Y-93353316D01*
X122324480Y-93290663D01*
X122369548Y-93235748D01*
X122424463Y-93190680D01*
X122487116Y-93157191D01*
X122555102Y-93136568D01*
X122631940Y-93129000D01*
X123595660Y-93129000D01*
X123672498Y-93136568D01*
X123672498Y-93136568D01*
G37*
G36*
X152412598Y-92679368D02*
X152480584Y-92699991D01*
X152543237Y-92733480D01*
X152598152Y-92778548D01*
X152643220Y-92833463D01*
X152676709Y-92896116D01*
X152697332Y-92964102D01*
X152704900Y-93040940D01*
X152704900Y-94004660D01*
X152697332Y-94081498D01*
X152676709Y-94149484D01*
X152643220Y-94212137D01*
X152598152Y-94267052D01*
X152543237Y-94312120D01*
X152480584Y-94345609D01*
X152412598Y-94366232D01*
X152335760Y-94373800D01*
X151372040Y-94373800D01*
X151295202Y-94366232D01*
X151227216Y-94345609D01*
X151164563Y-94312120D01*
X151109648Y-94267052D01*
X151064580Y-94212137D01*
X151031091Y-94149484D01*
X151010468Y-94081498D01*
X151002900Y-94004660D01*
X151002900Y-93040940D01*
X151010468Y-92964102D01*
X151031091Y-92896116D01*
X151064580Y-92833463D01*
X151109648Y-92778548D01*
X151164563Y-92733480D01*
X151227216Y-92699991D01*
X151295202Y-92679368D01*
X151372040Y-92671800D01*
X152335760Y-92671800D01*
X152412598Y-92679368D01*
X152412598Y-92679368D01*
G37*
G36*
X167652598Y-92679368D02*
X167720584Y-92699991D01*
X167783237Y-92733480D01*
X167838152Y-92778548D01*
X167883220Y-92833463D01*
X167916709Y-92896116D01*
X167937332Y-92964102D01*
X167944900Y-93040940D01*
X167944900Y-94004660D01*
X167937332Y-94081498D01*
X167916709Y-94149484D01*
X167883220Y-94212137D01*
X167838152Y-94267052D01*
X167783237Y-94312120D01*
X167720584Y-94345609D01*
X167652598Y-94366232D01*
X167575760Y-94373800D01*
X166612040Y-94373800D01*
X166535202Y-94366232D01*
X166467216Y-94345609D01*
X166404563Y-94312120D01*
X166349648Y-94267052D01*
X166304580Y-94212137D01*
X166271091Y-94149484D01*
X166250468Y-94081498D01*
X166242900Y-94004660D01*
X166242900Y-93040940D01*
X166250468Y-92964102D01*
X166271091Y-92896116D01*
X166304580Y-92833463D01*
X166349648Y-92778548D01*
X166404563Y-92733480D01*
X166467216Y-92699991D01*
X166535202Y-92679368D01*
X166612040Y-92671800D01*
X167575760Y-92671800D01*
X167652598Y-92679368D01*
X167652598Y-92679368D01*
G37*
G36*
X152412598Y-90139368D02*
X152480584Y-90159991D01*
X152543237Y-90193480D01*
X152598152Y-90238548D01*
X152643220Y-90293463D01*
X152676709Y-90356116D01*
X152697332Y-90424102D01*
X152704900Y-90500940D01*
X152704900Y-91464660D01*
X152697332Y-91541498D01*
X152676709Y-91609484D01*
X152643220Y-91672137D01*
X152598152Y-91727052D01*
X152543237Y-91772120D01*
X152480584Y-91805609D01*
X152412598Y-91826232D01*
X152335760Y-91833800D01*
X151372040Y-91833800D01*
X151295202Y-91826232D01*
X151227216Y-91805609D01*
X151164563Y-91772120D01*
X151109648Y-91727052D01*
X151064580Y-91672137D01*
X151031091Y-91609484D01*
X151010468Y-91541498D01*
X151002900Y-91464660D01*
X151002900Y-90500940D01*
X151010468Y-90424102D01*
X151031091Y-90356116D01*
X151064580Y-90293463D01*
X151109648Y-90238548D01*
X151164563Y-90193480D01*
X151227216Y-90159991D01*
X151295202Y-90139368D01*
X151372040Y-90131800D01*
X152335760Y-90131800D01*
X152412598Y-90139368D01*
X152412598Y-90139368D01*
G37*
G36*
X167652598Y-90139368D02*
X167720584Y-90159991D01*
X167783237Y-90193480D01*
X167838152Y-90238548D01*
X167883220Y-90293463D01*
X167916709Y-90356116D01*
X167937332Y-90424102D01*
X167944900Y-90500940D01*
X167944900Y-91464660D01*
X167937332Y-91541498D01*
X167916709Y-91609484D01*
X167883220Y-91672137D01*
X167838152Y-91727052D01*
X167783237Y-91772120D01*
X167720584Y-91805609D01*
X167652598Y-91826232D01*
X167575760Y-91833800D01*
X166612040Y-91833800D01*
X166535202Y-91826232D01*
X166467216Y-91805609D01*
X166404563Y-91772120D01*
X166349648Y-91727052D01*
X166304580Y-91672137D01*
X166271091Y-91609484D01*
X166250468Y-91541498D01*
X166242900Y-91464660D01*
X166242900Y-90500940D01*
X166250468Y-90424102D01*
X166271091Y-90356116D01*
X166304580Y-90293463D01*
X166349648Y-90238548D01*
X166404563Y-90193480D01*
X166467216Y-90159991D01*
X166535202Y-90139368D01*
X166612040Y-90131800D01*
X167575760Y-90131800D01*
X167652598Y-90139368D01*
X167652598Y-90139368D01*
G37*
G36*
X136938328Y-87751503D02*
X137093200Y-87815653D01*
X137232581Y-87908785D01*
X137351115Y-88027319D01*
X137444247Y-88166700D01*
X137508397Y-88321572D01*
X137541100Y-88485984D01*
X137541100Y-88653616D01*
X137508397Y-88818028D01*
X137444247Y-88972900D01*
X137351115Y-89112281D01*
X137232581Y-89230815D01*
X137093200Y-89323947D01*
X136938328Y-89388097D01*
X136773916Y-89420800D01*
X136606284Y-89420800D01*
X136441872Y-89388097D01*
X136287000Y-89323947D01*
X136147619Y-89230815D01*
X136029085Y-89112281D01*
X135935953Y-88972900D01*
X135871803Y-88818028D01*
X135839100Y-88653616D01*
X135839100Y-88485984D01*
X135871803Y-88321572D01*
X135935953Y-88166700D01*
X136029085Y-88027319D01*
X136147619Y-87908785D01*
X136287000Y-87815653D01*
X136441872Y-87751503D01*
X136606284Y-87718800D01*
X136773916Y-87718800D01*
X136938328Y-87751503D01*
X136938328Y-87751503D01*
G37*
G36*
X134398328Y-87751503D02*
X134553200Y-87815653D01*
X134692581Y-87908785D01*
X134811115Y-88027319D01*
X134904247Y-88166700D01*
X134968397Y-88321572D01*
X135001100Y-88485984D01*
X135001100Y-88653616D01*
X134968397Y-88818028D01*
X134904247Y-88972900D01*
X134811115Y-89112281D01*
X134692581Y-89230815D01*
X134553200Y-89323947D01*
X134398328Y-89388097D01*
X134233916Y-89420800D01*
X134066284Y-89420800D01*
X133901872Y-89388097D01*
X133747000Y-89323947D01*
X133607619Y-89230815D01*
X133489085Y-89112281D01*
X133395953Y-88972900D01*
X133331803Y-88818028D01*
X133299100Y-88653616D01*
X133299100Y-88485984D01*
X133331803Y-88321572D01*
X133395953Y-88166700D01*
X133489085Y-88027319D01*
X133607619Y-87908785D01*
X133747000Y-87815653D01*
X133901872Y-87751503D01*
X134066284Y-87718800D01*
X134233916Y-87718800D01*
X134398328Y-87751503D01*
X134398328Y-87751503D01*
G37*
G36*
X131858328Y-87751503D02*
X132013200Y-87815653D01*
X132152581Y-87908785D01*
X132271115Y-88027319D01*
X132364247Y-88166700D01*
X132428397Y-88321572D01*
X132461100Y-88485984D01*
X132461100Y-88653616D01*
X132428397Y-88818028D01*
X132364247Y-88972900D01*
X132271115Y-89112281D01*
X132152581Y-89230815D01*
X132013200Y-89323947D01*
X131858328Y-89388097D01*
X131693916Y-89420800D01*
X131526284Y-89420800D01*
X131361872Y-89388097D01*
X131207000Y-89323947D01*
X131067619Y-89230815D01*
X130949085Y-89112281D01*
X130855953Y-88972900D01*
X130791803Y-88818028D01*
X130759100Y-88653616D01*
X130759100Y-88485984D01*
X130791803Y-88321572D01*
X130855953Y-88166700D01*
X130949085Y-88027319D01*
X131067619Y-87908785D01*
X131207000Y-87815653D01*
X131361872Y-87751503D01*
X131526284Y-87718800D01*
X131693916Y-87718800D01*
X131858328Y-87751503D01*
X131858328Y-87751503D01*
G37*
G36*
X152412598Y-87599368D02*
X152480584Y-87619991D01*
X152543237Y-87653480D01*
X152598152Y-87698548D01*
X152643220Y-87753463D01*
X152676709Y-87816116D01*
X152697332Y-87884102D01*
X152704900Y-87960940D01*
X152704900Y-88924660D01*
X152697332Y-89001498D01*
X152676709Y-89069484D01*
X152643220Y-89132137D01*
X152598152Y-89187052D01*
X152543237Y-89232120D01*
X152480584Y-89265609D01*
X152412598Y-89286232D01*
X152335760Y-89293800D01*
X151372040Y-89293800D01*
X151295202Y-89286232D01*
X151227216Y-89265609D01*
X151164563Y-89232120D01*
X151109648Y-89187052D01*
X151064580Y-89132137D01*
X151031091Y-89069484D01*
X151010468Y-89001498D01*
X151002900Y-88924660D01*
X151002900Y-87960940D01*
X151010468Y-87884102D01*
X151031091Y-87816116D01*
X151064580Y-87753463D01*
X151109648Y-87698548D01*
X151164563Y-87653480D01*
X151227216Y-87619991D01*
X151295202Y-87599368D01*
X151372040Y-87591800D01*
X152335760Y-87591800D01*
X152412598Y-87599368D01*
X152412598Y-87599368D01*
G37*
G36*
X167652598Y-87599368D02*
X167720584Y-87619991D01*
X167783237Y-87653480D01*
X167838152Y-87698548D01*
X167883220Y-87753463D01*
X167916709Y-87816116D01*
X167937332Y-87884102D01*
X167944900Y-87960940D01*
X167944900Y-88924660D01*
X167937332Y-89001498D01*
X167916709Y-89069484D01*
X167883220Y-89132137D01*
X167838152Y-89187052D01*
X167783237Y-89232120D01*
X167720584Y-89265609D01*
X167652598Y-89286232D01*
X167575760Y-89293800D01*
X166612040Y-89293800D01*
X166535202Y-89286232D01*
X166467216Y-89265609D01*
X166404563Y-89232120D01*
X166349648Y-89187052D01*
X166304580Y-89132137D01*
X166271091Y-89069484D01*
X166250468Y-89001498D01*
X166242900Y-88924660D01*
X166242900Y-87960940D01*
X166250468Y-87884102D01*
X166271091Y-87816116D01*
X166304580Y-87753463D01*
X166349648Y-87698548D01*
X166404563Y-87653480D01*
X166467216Y-87619991D01*
X166535202Y-87599368D01*
X166612040Y-87591800D01*
X167575760Y-87591800D01*
X167652598Y-87599368D01*
X167652598Y-87599368D01*
G37*
G36*
X166382598Y-85059368D02*
X166450584Y-85079991D01*
X166513237Y-85113480D01*
X166568152Y-85158548D01*
X166613220Y-85213463D01*
X166646709Y-85276116D01*
X166667332Y-85344102D01*
X166674900Y-85420940D01*
X166674900Y-86384660D01*
X166667332Y-86461498D01*
X166646709Y-86529484D01*
X166613220Y-86592137D01*
X166568152Y-86647052D01*
X166513237Y-86692120D01*
X166450584Y-86725609D01*
X166382598Y-86746232D01*
X166305760Y-86753800D01*
X165342040Y-86753800D01*
X165265202Y-86746232D01*
X165197216Y-86725609D01*
X165134563Y-86692120D01*
X165079648Y-86647052D01*
X165034580Y-86592137D01*
X165001091Y-86529484D01*
X164980468Y-86461498D01*
X164972900Y-86384660D01*
X164972900Y-85420940D01*
X164980468Y-85344102D01*
X165001091Y-85276116D01*
X165034580Y-85213463D01*
X165079648Y-85158548D01*
X165134563Y-85113480D01*
X165197216Y-85079991D01*
X165265202Y-85059368D01*
X165342040Y-85051800D01*
X166305760Y-85051800D01*
X166382598Y-85059368D01*
X166382598Y-85059368D01*
G37*
G36*
X163842598Y-85059368D02*
X163910584Y-85079991D01*
X163973237Y-85113480D01*
X164028152Y-85158548D01*
X164073220Y-85213463D01*
X164106709Y-85276116D01*
X164127332Y-85344102D01*
X164134900Y-85420940D01*
X164134900Y-86384660D01*
X164127332Y-86461498D01*
X164106709Y-86529484D01*
X164073220Y-86592137D01*
X164028152Y-86647052D01*
X163973237Y-86692120D01*
X163910584Y-86725609D01*
X163842598Y-86746232D01*
X163765760Y-86753800D01*
X162802040Y-86753800D01*
X162725202Y-86746232D01*
X162657216Y-86725609D01*
X162594563Y-86692120D01*
X162539648Y-86647052D01*
X162494580Y-86592137D01*
X162461091Y-86529484D01*
X162440468Y-86461498D01*
X162432900Y-86384660D01*
X162432900Y-85420940D01*
X162440468Y-85344102D01*
X162461091Y-85276116D01*
X162494580Y-85213463D01*
X162539648Y-85158548D01*
X162594563Y-85113480D01*
X162657216Y-85079991D01*
X162725202Y-85059368D01*
X162802040Y-85051800D01*
X163765760Y-85051800D01*
X163842598Y-85059368D01*
X163842598Y-85059368D01*
G37*
G36*
X161302598Y-85059368D02*
X161370584Y-85079991D01*
X161433237Y-85113480D01*
X161488152Y-85158548D01*
X161533220Y-85213463D01*
X161566709Y-85276116D01*
X161587332Y-85344102D01*
X161594900Y-85420940D01*
X161594900Y-86384660D01*
X161587332Y-86461498D01*
X161566709Y-86529484D01*
X161533220Y-86592137D01*
X161488152Y-86647052D01*
X161433237Y-86692120D01*
X161370584Y-86725609D01*
X161302598Y-86746232D01*
X161225760Y-86753800D01*
X160262040Y-86753800D01*
X160185202Y-86746232D01*
X160117216Y-86725609D01*
X160054563Y-86692120D01*
X159999648Y-86647052D01*
X159954580Y-86592137D01*
X159921091Y-86529484D01*
X159900468Y-86461498D01*
X159892900Y-86384660D01*
X159892900Y-85420940D01*
X159900468Y-85344102D01*
X159921091Y-85276116D01*
X159954580Y-85213463D01*
X159999648Y-85158548D01*
X160054563Y-85113480D01*
X160117216Y-85079991D01*
X160185202Y-85059368D01*
X160262040Y-85051800D01*
X161225760Y-85051800D01*
X161302598Y-85059368D01*
X161302598Y-85059368D01*
G37*
G36*
X153682598Y-85059368D02*
X153750584Y-85079991D01*
X153813237Y-85113480D01*
X153868152Y-85158548D01*
X153913220Y-85213463D01*
X153946709Y-85276116D01*
X153967332Y-85344102D01*
X153974900Y-85420940D01*
X153974900Y-86384660D01*
X153967332Y-86461498D01*
X153946709Y-86529484D01*
X153913220Y-86592137D01*
X153868152Y-86647052D01*
X153813237Y-86692120D01*
X153750584Y-86725609D01*
X153682598Y-86746232D01*
X153605760Y-86753800D01*
X152642040Y-86753800D01*
X152565202Y-86746232D01*
X152497216Y-86725609D01*
X152434563Y-86692120D01*
X152379648Y-86647052D01*
X152334580Y-86592137D01*
X152301091Y-86529484D01*
X152280468Y-86461498D01*
X152272900Y-86384660D01*
X152272900Y-85420940D01*
X152280468Y-85344102D01*
X152301091Y-85276116D01*
X152334580Y-85213463D01*
X152379648Y-85158548D01*
X152434563Y-85113480D01*
X152497216Y-85079991D01*
X152565202Y-85059368D01*
X152642040Y-85051800D01*
X153605760Y-85051800D01*
X153682598Y-85059368D01*
X153682598Y-85059368D01*
G37*
G36*
X158762598Y-85059368D02*
X158830584Y-85079991D01*
X158893237Y-85113480D01*
X158948152Y-85158548D01*
X158993220Y-85213463D01*
X159026709Y-85276116D01*
X159047332Y-85344102D01*
X159054900Y-85420940D01*
X159054900Y-86384660D01*
X159047332Y-86461498D01*
X159026709Y-86529484D01*
X158993220Y-86592137D01*
X158948152Y-86647052D01*
X158893237Y-86692120D01*
X158830584Y-86725609D01*
X158762598Y-86746232D01*
X158685760Y-86753800D01*
X157722040Y-86753800D01*
X157645202Y-86746232D01*
X157577216Y-86725609D01*
X157514563Y-86692120D01*
X157459648Y-86647052D01*
X157414580Y-86592137D01*
X157381091Y-86529484D01*
X157360468Y-86461498D01*
X157352900Y-86384660D01*
X157352900Y-85420940D01*
X157360468Y-85344102D01*
X157381091Y-85276116D01*
X157414580Y-85213463D01*
X157459648Y-85158548D01*
X157514563Y-85113480D01*
X157577216Y-85079991D01*
X157645202Y-85059368D01*
X157722040Y-85051800D01*
X158685760Y-85051800D01*
X158762598Y-85059368D01*
X158762598Y-85059368D01*
G37*
G36*
X156222598Y-85059368D02*
X156290584Y-85079991D01*
X156353237Y-85113480D01*
X156408152Y-85158548D01*
X156453220Y-85213463D01*
X156486709Y-85276116D01*
X156507332Y-85344102D01*
X156514900Y-85420940D01*
X156514900Y-86384660D01*
X156507332Y-86461498D01*
X156486709Y-86529484D01*
X156453220Y-86592137D01*
X156408152Y-86647052D01*
X156353237Y-86692120D01*
X156290584Y-86725609D01*
X156222598Y-86746232D01*
X156145760Y-86753800D01*
X155182040Y-86753800D01*
X155105202Y-86746232D01*
X155037216Y-86725609D01*
X154974563Y-86692120D01*
X154919648Y-86647052D01*
X154874580Y-86592137D01*
X154841091Y-86529484D01*
X154820468Y-86461498D01*
X154812900Y-86384660D01*
X154812900Y-85420940D01*
X154820468Y-85344102D01*
X154841091Y-85276116D01*
X154874580Y-85213463D01*
X154919648Y-85158548D01*
X154974563Y-85113480D01*
X155037216Y-85079991D01*
X155105202Y-85059368D01*
X155182040Y-85051800D01*
X156145760Y-85051800D01*
X156222598Y-85059368D01*
X156222598Y-85059368D01*
G37*
G36*
X158631645Y-72106736D02*
X158631647Y-72106737D01*
X158631648Y-72106737D01*
X158868415Y-72204809D01*
X159081502Y-72347189D01*
X159262711Y-72528398D01*
X159405091Y-72741485D01*
X159503164Y-72978255D01*
X159553160Y-73229601D01*
X159553160Y-73485879D01*
X159503164Y-73737225D01*
X159464954Y-73829473D01*
X159457841Y-73852923D01*
X159455439Y-73877309D01*
X159457841Y-73901695D01*
X159464954Y-73925144D01*
X159476505Y-73946755D01*
X159492051Y-73965697D01*
X159510993Y-73981243D01*
X159532603Y-73992794D01*
X159556053Y-73999907D01*
X159580439Y-74002309D01*
X159604825Y-73999907D01*
X159628274Y-73992794D01*
X159649885Y-73981243D01*
X159668827Y-73965697D01*
X159684373Y-73946755D01*
X159695249Y-73930478D01*
X159876458Y-73749269D01*
X160089545Y-73606889D01*
X160326312Y-73508817D01*
X160326313Y-73508817D01*
X160326315Y-73508816D01*
X160577661Y-73458820D01*
X160833939Y-73458820D01*
X161085285Y-73508816D01*
X161085287Y-73508817D01*
X161085288Y-73508817D01*
X161322055Y-73606889D01*
X161535142Y-73749269D01*
X161716351Y-73930478D01*
X161727227Y-73946755D01*
X161742772Y-73965697D01*
X161761714Y-73981243D01*
X161783325Y-73992794D01*
X161806774Y-73999907D01*
X161831161Y-74002309D01*
X161855547Y-73999907D01*
X161878996Y-73992794D01*
X161900607Y-73981243D01*
X161919549Y-73965698D01*
X161935095Y-73946756D01*
X161946646Y-73925145D01*
X161953759Y-73901696D01*
X161956161Y-73877309D01*
X161953759Y-73852923D01*
X161946646Y-73829473D01*
X161908436Y-73737225D01*
X161858440Y-73485879D01*
X161858440Y-73229601D01*
X161908436Y-72978255D01*
X162006509Y-72741485D01*
X162148889Y-72528398D01*
X162330098Y-72347189D01*
X162543185Y-72204809D01*
X162779952Y-72106737D01*
X162779953Y-72106737D01*
X162779955Y-72106736D01*
X163031301Y-72056740D01*
X163287579Y-72056740D01*
X163538925Y-72106736D01*
X163538927Y-72106737D01*
X163538928Y-72106737D01*
X163775695Y-72204809D01*
X163988782Y-72347189D01*
X164169991Y-72528398D01*
X164312371Y-72741485D01*
X164410444Y-72978255D01*
X164460440Y-73229601D01*
X164460440Y-73485879D01*
X164414445Y-73717113D01*
X164410443Y-73737228D01*
X164352420Y-73877309D01*
X164312371Y-73973995D01*
X164169991Y-74187082D01*
X163988782Y-74368291D01*
X163988779Y-74368293D01*
X163775695Y-74510671D01*
X163538928Y-74608743D01*
X163538927Y-74608743D01*
X163538925Y-74608744D01*
X163287579Y-74658740D01*
X163031301Y-74658740D01*
X162779955Y-74608744D01*
X162779953Y-74608743D01*
X162779952Y-74608743D01*
X162543185Y-74510671D01*
X162330101Y-74368293D01*
X162330098Y-74368291D01*
X162148889Y-74187082D01*
X162138013Y-74170805D01*
X162122468Y-74151863D01*
X162103526Y-74136317D01*
X162081915Y-74124766D01*
X162058466Y-74117653D01*
X162034079Y-74115251D01*
X162009693Y-74117653D01*
X161986244Y-74124766D01*
X161964633Y-74136317D01*
X161945691Y-74151862D01*
X161930145Y-74170804D01*
X161918594Y-74192415D01*
X161911481Y-74215864D01*
X161909079Y-74240251D01*
X161911481Y-74264637D01*
X161918594Y-74288087D01*
X161956804Y-74380335D01*
X162006800Y-74631681D01*
X162006800Y-74887959D01*
X161956804Y-75139305D01*
X161858731Y-75376075D01*
X161716351Y-75589162D01*
X161535142Y-75770371D01*
X161535139Y-75770373D01*
X161322055Y-75912751D01*
X161085288Y-76010823D01*
X161085287Y-76010823D01*
X161085285Y-76010824D01*
X160833939Y-76060820D01*
X160577661Y-76060820D01*
X160326315Y-76010824D01*
X160326313Y-76010823D01*
X160326312Y-76010823D01*
X160089545Y-75912751D01*
X159876461Y-75770373D01*
X159876458Y-75770371D01*
X159695249Y-75589162D01*
X159552869Y-75376075D01*
X159454796Y-75139305D01*
X159404800Y-74887959D01*
X159404800Y-74631681D01*
X159454796Y-74380335D01*
X159493006Y-74288087D01*
X159500119Y-74264637D01*
X159502521Y-74240251D01*
X159500119Y-74215865D01*
X159493006Y-74192416D01*
X159481455Y-74170805D01*
X159465909Y-74151863D01*
X159446967Y-74136317D01*
X159425357Y-74124766D01*
X159401907Y-74117653D01*
X159377521Y-74115251D01*
X159353135Y-74117653D01*
X159329686Y-74124766D01*
X159308075Y-74136317D01*
X159289133Y-74151863D01*
X159273587Y-74170805D01*
X159262711Y-74187082D01*
X159081502Y-74368291D01*
X159081499Y-74368293D01*
X158868415Y-74510671D01*
X158631648Y-74608743D01*
X158631647Y-74608743D01*
X158631645Y-74608744D01*
X158380299Y-74658740D01*
X158124021Y-74658740D01*
X157872675Y-74608744D01*
X157872673Y-74608743D01*
X157872672Y-74608743D01*
X157635905Y-74510671D01*
X157422821Y-74368293D01*
X157422818Y-74368291D01*
X157241609Y-74187082D01*
X157099229Y-73973995D01*
X157059180Y-73877309D01*
X157001157Y-73737228D01*
X156997156Y-73717113D01*
X156951160Y-73485879D01*
X156951160Y-73229601D01*
X157001156Y-72978255D01*
X157099229Y-72741485D01*
X157241609Y-72528398D01*
X157422818Y-72347189D01*
X157635905Y-72204809D01*
X157872672Y-72106737D01*
X157872673Y-72106737D01*
X157872675Y-72106736D01*
X158124021Y-72056740D01*
X158380299Y-72056740D01*
X158631645Y-72106736D01*
X158631645Y-72106736D01*
G37*
G36*
X120689452Y-70773418D02*
X120689454Y-70773419D01*
X120689455Y-70773419D01*
X121062713Y-70928027D01*
X121394105Y-71149457D01*
X121398639Y-71152486D01*
X121684314Y-71438161D01*
X121684316Y-71438164D01*
X121908773Y-71774087D01*
X122063381Y-72147345D01*
X122063382Y-72147348D01*
X122142200Y-72543593D01*
X122142200Y-72947607D01*
X122068136Y-73319954D01*
X122063381Y-73343855D01*
X121908773Y-73717113D01*
X121887288Y-73749267D01*
X121684314Y-74053039D01*
X121398639Y-74338714D01*
X121398636Y-74338716D01*
X121062713Y-74563173D01*
X120689455Y-74717781D01*
X120689454Y-74717781D01*
X120689452Y-74717782D01*
X120293207Y-74796600D01*
X119889193Y-74796600D01*
X119492948Y-74717782D01*
X119492946Y-74717781D01*
X119492945Y-74717781D01*
X119119687Y-74563173D01*
X118783764Y-74338716D01*
X118783761Y-74338714D01*
X118498086Y-74053039D01*
X118295112Y-73749267D01*
X118273627Y-73717113D01*
X118119019Y-73343855D01*
X118114265Y-73319954D01*
X118040200Y-72947607D01*
X118040200Y-72543593D01*
X118119018Y-72147348D01*
X118119019Y-72147345D01*
X118273627Y-71774087D01*
X118498084Y-71438164D01*
X118498086Y-71438161D01*
X118783761Y-71152486D01*
X118788295Y-71149457D01*
X119119687Y-70928027D01*
X119492945Y-70773419D01*
X119492946Y-70773419D01*
X119492948Y-70773418D01*
X119889193Y-70694600D01*
X120293207Y-70694600D01*
X120689452Y-70773418D01*
X120689452Y-70773418D01*
G37*
G36*
X141009452Y-70773418D02*
X141009454Y-70773419D01*
X141009455Y-70773419D01*
X141382713Y-70928027D01*
X141714105Y-71149457D01*
X141718639Y-71152486D01*
X142004314Y-71438161D01*
X142004316Y-71438164D01*
X142228773Y-71774087D01*
X142383381Y-72147345D01*
X142383382Y-72147348D01*
X142462200Y-72543593D01*
X142462200Y-72947607D01*
X142388136Y-73319954D01*
X142383381Y-73343855D01*
X142228773Y-73717113D01*
X142207288Y-73749267D01*
X142004314Y-74053039D01*
X141718639Y-74338714D01*
X141718636Y-74338716D01*
X141382713Y-74563173D01*
X141009455Y-74717781D01*
X141009454Y-74717781D01*
X141009452Y-74717782D01*
X140613207Y-74796600D01*
X140209193Y-74796600D01*
X139812948Y-74717782D01*
X139812946Y-74717781D01*
X139812945Y-74717781D01*
X139439687Y-74563173D01*
X139103764Y-74338716D01*
X139103761Y-74338714D01*
X138818086Y-74053039D01*
X138615112Y-73749267D01*
X138593627Y-73717113D01*
X138439019Y-73343855D01*
X138434265Y-73319954D01*
X138360200Y-72947607D01*
X138360200Y-72543593D01*
X138439018Y-72147348D01*
X138439019Y-72147345D01*
X138593627Y-71774087D01*
X138818084Y-71438164D01*
X138818086Y-71438161D01*
X139103761Y-71152486D01*
X139108295Y-71149457D01*
X139439687Y-70928027D01*
X139812945Y-70773419D01*
X139812946Y-70773419D01*
X139812948Y-70773418D01*
X140209193Y-70694600D01*
X140613207Y-70694600D01*
X141009452Y-70773418D01*
X141009452Y-70773418D01*
G37*
G36*
X145754012Y-71879224D02*
X145917984Y-71947144D01*
X146065554Y-72045747D01*
X146191053Y-72171246D01*
X146289656Y-72318816D01*
X146357576Y-72482788D01*
X146392200Y-72656859D01*
X146392200Y-72834341D01*
X146357576Y-73008412D01*
X146289656Y-73172384D01*
X146191053Y-73319954D01*
X146065554Y-73445453D01*
X145917984Y-73544056D01*
X145754012Y-73611976D01*
X145579941Y-73646600D01*
X145402459Y-73646600D01*
X145228388Y-73611976D01*
X145064416Y-73544056D01*
X144916846Y-73445453D01*
X144791347Y-73319954D01*
X144692744Y-73172384D01*
X144624824Y-73008412D01*
X144590200Y-72834341D01*
X144590200Y-72656859D01*
X144624824Y-72482788D01*
X144692744Y-72318816D01*
X144791347Y-72171246D01*
X144916846Y-72045747D01*
X145064416Y-71947144D01*
X145228388Y-71879224D01*
X145402459Y-71844600D01*
X145579941Y-71844600D01*
X145754012Y-71879224D01*
X145754012Y-71879224D01*
G37*
G36*
X135594012Y-71879224D02*
X135757984Y-71947144D01*
X135905554Y-72045747D01*
X136031053Y-72171246D01*
X136129656Y-72318816D01*
X136197576Y-72482788D01*
X136232200Y-72656859D01*
X136232200Y-72834341D01*
X136197576Y-73008412D01*
X136129656Y-73172384D01*
X136031053Y-73319954D01*
X135905554Y-73445453D01*
X135757984Y-73544056D01*
X135594012Y-73611976D01*
X135419941Y-73646600D01*
X135242459Y-73646600D01*
X135068388Y-73611976D01*
X134904416Y-73544056D01*
X134756846Y-73445453D01*
X134631347Y-73319954D01*
X134532744Y-73172384D01*
X134464824Y-73008412D01*
X134430200Y-72834341D01*
X134430200Y-72656859D01*
X134464824Y-72482788D01*
X134532744Y-72318816D01*
X134631347Y-72171246D01*
X134756846Y-72045747D01*
X134904416Y-71947144D01*
X135068388Y-71879224D01*
X135242459Y-71844600D01*
X135419941Y-71844600D01*
X135594012Y-71879224D01*
X135594012Y-71879224D01*
G37*
G36*
X125434012Y-71879224D02*
X125597984Y-71947144D01*
X125745554Y-72045747D01*
X125871053Y-72171246D01*
X125969656Y-72318816D01*
X126037576Y-72482788D01*
X126072200Y-72656859D01*
X126072200Y-72834341D01*
X126037576Y-73008412D01*
X125969656Y-73172384D01*
X125871053Y-73319954D01*
X125745554Y-73445453D01*
X125597984Y-73544056D01*
X125434012Y-73611976D01*
X125259941Y-73646600D01*
X125082459Y-73646600D01*
X124908388Y-73611976D01*
X124744416Y-73544056D01*
X124596846Y-73445453D01*
X124471347Y-73319954D01*
X124372744Y-73172384D01*
X124304824Y-73008412D01*
X124270200Y-72834341D01*
X124270200Y-72656859D01*
X124304824Y-72482788D01*
X124372744Y-72318816D01*
X124471347Y-72171246D01*
X124596846Y-72045747D01*
X124744416Y-71947144D01*
X124908388Y-71879224D01*
X125082459Y-71844600D01*
X125259941Y-71844600D01*
X125434012Y-71879224D01*
X125434012Y-71879224D01*
G37*
G36*
X115274012Y-71879224D02*
X115437984Y-71947144D01*
X115585554Y-72045747D01*
X115711053Y-72171246D01*
X115809656Y-72318816D01*
X115877576Y-72482788D01*
X115912200Y-72656859D01*
X115912200Y-72834341D01*
X115877576Y-73008412D01*
X115809656Y-73172384D01*
X115711053Y-73319954D01*
X115585554Y-73445453D01*
X115437984Y-73544056D01*
X115274012Y-73611976D01*
X115099941Y-73646600D01*
X114922459Y-73646600D01*
X114748388Y-73611976D01*
X114584416Y-73544056D01*
X114436846Y-73445453D01*
X114311347Y-73319954D01*
X114212744Y-73172384D01*
X114144824Y-73008412D01*
X114110200Y-72834341D01*
X114110200Y-72656859D01*
X114144824Y-72482788D01*
X114212744Y-72318816D01*
X114311347Y-72171246D01*
X114436846Y-72045747D01*
X114584416Y-71947144D01*
X114748388Y-71879224D01*
X114922459Y-71844600D01*
X115099941Y-71844600D01*
X115274012Y-71879224D01*
X115274012Y-71879224D01*
G37*
G36*
X162619445Y-69109536D02*
X162619447Y-69109537D01*
X162619448Y-69109537D01*
X162803071Y-69185596D01*
X162856215Y-69207609D01*
X163069302Y-69349989D01*
X163250511Y-69531198D01*
X163392891Y-69744285D01*
X163490964Y-69981055D01*
X163540960Y-70232401D01*
X163540960Y-70488679D01*
X163490964Y-70740025D01*
X163392891Y-70976795D01*
X163250511Y-71189882D01*
X163069302Y-71371091D01*
X163069299Y-71371093D01*
X162856215Y-71513471D01*
X162619448Y-71611543D01*
X162619447Y-71611543D01*
X162619445Y-71611544D01*
X162368099Y-71661540D01*
X162111821Y-71661540D01*
X161860475Y-71611544D01*
X161860473Y-71611543D01*
X161860472Y-71611543D01*
X161623705Y-71513471D01*
X161410621Y-71371093D01*
X161410618Y-71371091D01*
X161229409Y-71189882D01*
X161087029Y-70976795D01*
X160988956Y-70740025D01*
X160938960Y-70488679D01*
X160938960Y-70232401D01*
X160988956Y-69981055D01*
X161087029Y-69744285D01*
X161229409Y-69531198D01*
X161410618Y-69349989D01*
X161623705Y-69207609D01*
X161676849Y-69185596D01*
X161860472Y-69109537D01*
X161860473Y-69109537D01*
X161860475Y-69109536D01*
X162111821Y-69059540D01*
X162368099Y-69059540D01*
X162619445Y-69109536D01*
X162619445Y-69109536D01*
G37*
G36*
X159546045Y-69109536D02*
X159546047Y-69109537D01*
X159546048Y-69109537D01*
X159729671Y-69185596D01*
X159782815Y-69207609D01*
X159995902Y-69349989D01*
X160177111Y-69531198D01*
X160319491Y-69744285D01*
X160417564Y-69981055D01*
X160467560Y-70232401D01*
X160467560Y-70488679D01*
X160417564Y-70740025D01*
X160319491Y-70976795D01*
X160177111Y-71189882D01*
X159995902Y-71371091D01*
X159995899Y-71371093D01*
X159782815Y-71513471D01*
X159546048Y-71611543D01*
X159546047Y-71611543D01*
X159546045Y-71611544D01*
X159294699Y-71661540D01*
X159038421Y-71661540D01*
X158787075Y-71611544D01*
X158787073Y-71611543D01*
X158787072Y-71611543D01*
X158550305Y-71513471D01*
X158337221Y-71371093D01*
X158337218Y-71371091D01*
X158156009Y-71189882D01*
X158013629Y-70976795D01*
X157915556Y-70740025D01*
X157865560Y-70488679D01*
X157865560Y-70232401D01*
X157915556Y-69981055D01*
X158013629Y-69744285D01*
X158156009Y-69531198D01*
X158337218Y-69349989D01*
X158550305Y-69207609D01*
X158603449Y-69185596D01*
X158787072Y-69109537D01*
X158787073Y-69109537D01*
X158787075Y-69109536D01*
X159038421Y-69059540D01*
X159294699Y-69059540D01*
X159546045Y-69109536D01*
X159546045Y-69109536D01*
G37*
G36*
X116616934Y-69098832D02*
X116826402Y-69185596D01*
X117014923Y-69311562D01*
X117175238Y-69471877D01*
X117301204Y-69660398D01*
X117387968Y-69869866D01*
X117432200Y-70092235D01*
X117432200Y-70318965D01*
X117387968Y-70541334D01*
X117301204Y-70750802D01*
X117175238Y-70939323D01*
X117014923Y-71099638D01*
X116826402Y-71225604D01*
X116616934Y-71312368D01*
X116394565Y-71356600D01*
X116167835Y-71356600D01*
X115945466Y-71312368D01*
X115735998Y-71225604D01*
X115547477Y-71099638D01*
X115387162Y-70939323D01*
X115261196Y-70750802D01*
X115174432Y-70541334D01*
X115130200Y-70318965D01*
X115130200Y-70092235D01*
X115174432Y-69869866D01*
X115261196Y-69660398D01*
X115387162Y-69471877D01*
X115547477Y-69311562D01*
X115735998Y-69185596D01*
X115945466Y-69098832D01*
X116167835Y-69054600D01*
X116394565Y-69054600D01*
X116616934Y-69098832D01*
X116616934Y-69098832D01*
G37*
G36*
X136936934Y-69098832D02*
X137146402Y-69185596D01*
X137334923Y-69311562D01*
X137495238Y-69471877D01*
X137621204Y-69660398D01*
X137707968Y-69869866D01*
X137752200Y-70092235D01*
X137752200Y-70318965D01*
X137707968Y-70541334D01*
X137621204Y-70750802D01*
X137495238Y-70939323D01*
X137334923Y-71099638D01*
X137146402Y-71225604D01*
X136936934Y-71312368D01*
X136714565Y-71356600D01*
X136487835Y-71356600D01*
X136265466Y-71312368D01*
X136055998Y-71225604D01*
X135867477Y-71099638D01*
X135707162Y-70939323D01*
X135581196Y-70750802D01*
X135494432Y-70541334D01*
X135450200Y-70318965D01*
X135450200Y-70092235D01*
X135494432Y-69869866D01*
X135581196Y-69660398D01*
X135707162Y-69471877D01*
X135867477Y-69311562D01*
X136055998Y-69185596D01*
X136265466Y-69098832D01*
X136487835Y-69054600D01*
X136714565Y-69054600D01*
X136936934Y-69098832D01*
X136936934Y-69098832D01*
G37*
G36*
X122966934Y-66558832D02*
X123176402Y-66645596D01*
X123364923Y-66771562D01*
X123525238Y-66931877D01*
X123651204Y-67120398D01*
X123737968Y-67329866D01*
X123782200Y-67552235D01*
X123782200Y-67778965D01*
X123737968Y-68001334D01*
X123651204Y-68210802D01*
X123525238Y-68399323D01*
X123364923Y-68559638D01*
X123176402Y-68685604D01*
X122966934Y-68772368D01*
X122744565Y-68816600D01*
X122517835Y-68816600D01*
X122295466Y-68772368D01*
X122085998Y-68685604D01*
X121897477Y-68559638D01*
X121737162Y-68399323D01*
X121611196Y-68210802D01*
X121524432Y-68001334D01*
X121480200Y-67778965D01*
X121480200Y-67552235D01*
X121524432Y-67329866D01*
X121611196Y-67120398D01*
X121737162Y-66931877D01*
X121897477Y-66771562D01*
X122085998Y-66645596D01*
X122295466Y-66558832D01*
X122517835Y-66514600D01*
X122744565Y-66514600D01*
X122966934Y-66558832D01*
X122966934Y-66558832D01*
G37*
G36*
X143286934Y-66558832D02*
X143496402Y-66645596D01*
X143684923Y-66771562D01*
X143845238Y-66931877D01*
X143971204Y-67120398D01*
X144057968Y-67329866D01*
X144102200Y-67552235D01*
X144102200Y-67778965D01*
X144057968Y-68001334D01*
X143971204Y-68210802D01*
X143845238Y-68399323D01*
X143684923Y-68559638D01*
X143496402Y-68685604D01*
X143286934Y-68772368D01*
X143064565Y-68816600D01*
X142837835Y-68816600D01*
X142615466Y-68772368D01*
X142405998Y-68685604D01*
X142217477Y-68559638D01*
X142057162Y-68399323D01*
X141931196Y-68210802D01*
X141844432Y-68001334D01*
X141800200Y-67778965D01*
X141800200Y-67552235D01*
X141844432Y-67329866D01*
X141931196Y-67120398D01*
X142057162Y-66931877D01*
X142217477Y-66771562D01*
X142405998Y-66645596D01*
X142615466Y-66558832D01*
X142837835Y-66514600D01*
X143064565Y-66514600D01*
X143286934Y-66558832D01*
X143286934Y-66558832D01*
G37*
G36*
X140984052Y-50593118D02*
X140984054Y-50593119D01*
X140984055Y-50593119D01*
X141357313Y-50747727D01*
X141688705Y-50969157D01*
X141693239Y-50972186D01*
X141978914Y-51257861D01*
X141978916Y-51257864D01*
X142203373Y-51593787D01*
X142232580Y-51664300D01*
X142357982Y-51967048D01*
X142436800Y-52363293D01*
X142436800Y-52767307D01*
X142362736Y-53139654D01*
X142357981Y-53163555D01*
X142203373Y-53536813D01*
X142203372Y-53536814D01*
X141978914Y-53872739D01*
X141693239Y-54158414D01*
X141693236Y-54158416D01*
X141357313Y-54382873D01*
X140984055Y-54537481D01*
X140984054Y-54537481D01*
X140984052Y-54537482D01*
X140587807Y-54616300D01*
X140183793Y-54616300D01*
X139787548Y-54537482D01*
X139787546Y-54537481D01*
X139787545Y-54537481D01*
X139414287Y-54382873D01*
X139078364Y-54158416D01*
X139078361Y-54158414D01*
X138792686Y-53872739D01*
X138568228Y-53536814D01*
X138568227Y-53536813D01*
X138413619Y-53163555D01*
X138408865Y-53139654D01*
X138334800Y-52767307D01*
X138334800Y-52363293D01*
X138413618Y-51967048D01*
X138539020Y-51664300D01*
X138568227Y-51593787D01*
X138792684Y-51257864D01*
X138792686Y-51257861D01*
X139078361Y-50972186D01*
X139082895Y-50969157D01*
X139414287Y-50747727D01*
X139787545Y-50593119D01*
X139787546Y-50593119D01*
X139787548Y-50593118D01*
X140183793Y-50514300D01*
X140587807Y-50514300D01*
X140984052Y-50593118D01*
X140984052Y-50593118D01*
G37*
G36*
X120689452Y-50593118D02*
X120689454Y-50593119D01*
X120689455Y-50593119D01*
X121062713Y-50747727D01*
X121394105Y-50969157D01*
X121398639Y-50972186D01*
X121684314Y-51257861D01*
X121684316Y-51257864D01*
X121908773Y-51593787D01*
X121937980Y-51664300D01*
X122063382Y-51967048D01*
X122142200Y-52363293D01*
X122142200Y-52767307D01*
X122068136Y-53139654D01*
X122063381Y-53163555D01*
X121908773Y-53536813D01*
X121908772Y-53536814D01*
X121684314Y-53872739D01*
X121398639Y-54158414D01*
X121398636Y-54158416D01*
X121062713Y-54382873D01*
X120689455Y-54537481D01*
X120689454Y-54537481D01*
X120689452Y-54537482D01*
X120293207Y-54616300D01*
X119889193Y-54616300D01*
X119492948Y-54537482D01*
X119492946Y-54537481D01*
X119492945Y-54537481D01*
X119119687Y-54382873D01*
X118783764Y-54158416D01*
X118783761Y-54158414D01*
X118498086Y-53872739D01*
X118273628Y-53536814D01*
X118273627Y-53536813D01*
X118119019Y-53163555D01*
X118114265Y-53139654D01*
X118040200Y-52767307D01*
X118040200Y-52363293D01*
X118119018Y-51967048D01*
X118244420Y-51664300D01*
X118273627Y-51593787D01*
X118498084Y-51257864D01*
X118498086Y-51257861D01*
X118783761Y-50972186D01*
X118788295Y-50969157D01*
X119119687Y-50747727D01*
X119492945Y-50593119D01*
X119492946Y-50593119D01*
X119492948Y-50593118D01*
X119889193Y-50514300D01*
X120293207Y-50514300D01*
X120689452Y-50593118D01*
X120689452Y-50593118D01*
G37*
G36*
X161164352Y-50593118D02*
X161164354Y-50593119D01*
X161164355Y-50593119D01*
X161537613Y-50747727D01*
X161869005Y-50969157D01*
X161873539Y-50972186D01*
X162159214Y-51257861D01*
X162159216Y-51257864D01*
X162383673Y-51593787D01*
X162412880Y-51664300D01*
X162538282Y-51967048D01*
X162617100Y-52363293D01*
X162617100Y-52767307D01*
X162543036Y-53139654D01*
X162538281Y-53163555D01*
X162383673Y-53536813D01*
X162383672Y-53536814D01*
X162159214Y-53872739D01*
X161873539Y-54158414D01*
X161873536Y-54158416D01*
X161537613Y-54382873D01*
X161164355Y-54537481D01*
X161164354Y-54537481D01*
X161164352Y-54537482D01*
X160768107Y-54616300D01*
X160364093Y-54616300D01*
X159967848Y-54537482D01*
X159967846Y-54537481D01*
X159967845Y-54537481D01*
X159594587Y-54382873D01*
X159258664Y-54158416D01*
X159258661Y-54158414D01*
X158972986Y-53872739D01*
X158748528Y-53536814D01*
X158748527Y-53536813D01*
X158593919Y-53163555D01*
X158589165Y-53139654D01*
X158515100Y-52767307D01*
X158515100Y-52363293D01*
X158593918Y-51967048D01*
X158719320Y-51664300D01*
X158748527Y-51593787D01*
X158972984Y-51257864D01*
X158972986Y-51257861D01*
X159258661Y-50972186D01*
X159263195Y-50969157D01*
X159594587Y-50747727D01*
X159967845Y-50593119D01*
X159967846Y-50593119D01*
X159967848Y-50593118D01*
X160364093Y-50514300D01*
X160768107Y-50514300D01*
X161164352Y-50593118D01*
X161164352Y-50593118D01*
G37*
G36*
X115274012Y-51698924D02*
X115437984Y-51766844D01*
X115585554Y-51865447D01*
X115711053Y-51990946D01*
X115809656Y-52138516D01*
X115877576Y-52302488D01*
X115912200Y-52476559D01*
X115912200Y-52654041D01*
X115877576Y-52828112D01*
X115809656Y-52992084D01*
X115711053Y-53139654D01*
X115585554Y-53265153D01*
X115437984Y-53363756D01*
X115274012Y-53431676D01*
X115099941Y-53466300D01*
X114922459Y-53466300D01*
X114748388Y-53431676D01*
X114584416Y-53363756D01*
X114436846Y-53265153D01*
X114311347Y-53139654D01*
X114212744Y-52992084D01*
X114144824Y-52828112D01*
X114110200Y-52654041D01*
X114110200Y-52476559D01*
X114144824Y-52302488D01*
X114212744Y-52138516D01*
X114311347Y-51990946D01*
X114436846Y-51865447D01*
X114584416Y-51766844D01*
X114748388Y-51698924D01*
X114922459Y-51664300D01*
X115099941Y-51664300D01*
X115274012Y-51698924D01*
X115274012Y-51698924D01*
G37*
G36*
X155748912Y-51698924D02*
X155912884Y-51766844D01*
X156060454Y-51865447D01*
X156185953Y-51990946D01*
X156284556Y-52138516D01*
X156352476Y-52302488D01*
X156387100Y-52476559D01*
X156387100Y-52654041D01*
X156352476Y-52828112D01*
X156284556Y-52992084D01*
X156185953Y-53139654D01*
X156060454Y-53265153D01*
X155912884Y-53363756D01*
X155748912Y-53431676D01*
X155574841Y-53466300D01*
X155397359Y-53466300D01*
X155223288Y-53431676D01*
X155059316Y-53363756D01*
X154911746Y-53265153D01*
X154786247Y-53139654D01*
X154687644Y-52992084D01*
X154619724Y-52828112D01*
X154585100Y-52654041D01*
X154585100Y-52476559D01*
X154619724Y-52302488D01*
X154687644Y-52138516D01*
X154786247Y-51990946D01*
X154911746Y-51865447D01*
X155059316Y-51766844D01*
X155223288Y-51698924D01*
X155397359Y-51664300D01*
X155574841Y-51664300D01*
X155748912Y-51698924D01*
X155748912Y-51698924D01*
G37*
G36*
X125434012Y-51698924D02*
X125597984Y-51766844D01*
X125745554Y-51865447D01*
X125871053Y-51990946D01*
X125969656Y-52138516D01*
X126037576Y-52302488D01*
X126072200Y-52476559D01*
X126072200Y-52654041D01*
X126037576Y-52828112D01*
X125969656Y-52992084D01*
X125871053Y-53139654D01*
X125745554Y-53265153D01*
X125597984Y-53363756D01*
X125434012Y-53431676D01*
X125259941Y-53466300D01*
X125082459Y-53466300D01*
X124908388Y-53431676D01*
X124744416Y-53363756D01*
X124596846Y-53265153D01*
X124471347Y-53139654D01*
X124372744Y-52992084D01*
X124304824Y-52828112D01*
X124270200Y-52654041D01*
X124270200Y-52476559D01*
X124304824Y-52302488D01*
X124372744Y-52138516D01*
X124471347Y-51990946D01*
X124596846Y-51865447D01*
X124744416Y-51766844D01*
X124908388Y-51698924D01*
X125082459Y-51664300D01*
X125259941Y-51664300D01*
X125434012Y-51698924D01*
X125434012Y-51698924D01*
G37*
G36*
X135568612Y-51698924D02*
X135732584Y-51766844D01*
X135880154Y-51865447D01*
X136005653Y-51990946D01*
X136104256Y-52138516D01*
X136172176Y-52302488D01*
X136206800Y-52476559D01*
X136206800Y-52654041D01*
X136172176Y-52828112D01*
X136104256Y-52992084D01*
X136005653Y-53139654D01*
X135880154Y-53265153D01*
X135732584Y-53363756D01*
X135568612Y-53431676D01*
X135394541Y-53466300D01*
X135217059Y-53466300D01*
X135042988Y-53431676D01*
X134879016Y-53363756D01*
X134731446Y-53265153D01*
X134605947Y-53139654D01*
X134507344Y-52992084D01*
X134439424Y-52828112D01*
X134404800Y-52654041D01*
X134404800Y-52476559D01*
X134439424Y-52302488D01*
X134507344Y-52138516D01*
X134605947Y-51990946D01*
X134731446Y-51865447D01*
X134879016Y-51766844D01*
X135042988Y-51698924D01*
X135217059Y-51664300D01*
X135394541Y-51664300D01*
X135568612Y-51698924D01*
X135568612Y-51698924D01*
G37*
G36*
X165908912Y-51698924D02*
X166072884Y-51766844D01*
X166220454Y-51865447D01*
X166345953Y-51990946D01*
X166444556Y-52138516D01*
X166512476Y-52302488D01*
X166547100Y-52476559D01*
X166547100Y-52654041D01*
X166512476Y-52828112D01*
X166444556Y-52992084D01*
X166345953Y-53139654D01*
X166220454Y-53265153D01*
X166072884Y-53363756D01*
X165908912Y-53431676D01*
X165734841Y-53466300D01*
X165557359Y-53466300D01*
X165383288Y-53431676D01*
X165219316Y-53363756D01*
X165071746Y-53265153D01*
X164946247Y-53139654D01*
X164847644Y-52992084D01*
X164779724Y-52828112D01*
X164745100Y-52654041D01*
X164745100Y-52476559D01*
X164779724Y-52302488D01*
X164847644Y-52138516D01*
X164946247Y-51990946D01*
X165071746Y-51865447D01*
X165219316Y-51766844D01*
X165383288Y-51698924D01*
X165557359Y-51664300D01*
X165734841Y-51664300D01*
X165908912Y-51698924D01*
X165908912Y-51698924D01*
G37*
G36*
X145728612Y-51698924D02*
X145892584Y-51766844D01*
X146040154Y-51865447D01*
X146165653Y-51990946D01*
X146264256Y-52138516D01*
X146332176Y-52302488D01*
X146366800Y-52476559D01*
X146366800Y-52654041D01*
X146332176Y-52828112D01*
X146264256Y-52992084D01*
X146165653Y-53139654D01*
X146040154Y-53265153D01*
X145892584Y-53363756D01*
X145728612Y-53431676D01*
X145554541Y-53466300D01*
X145377059Y-53466300D01*
X145202988Y-53431676D01*
X145039016Y-53363756D01*
X144891446Y-53265153D01*
X144765947Y-53139654D01*
X144667344Y-52992084D01*
X144599424Y-52828112D01*
X144564800Y-52654041D01*
X144564800Y-52476559D01*
X144599424Y-52302488D01*
X144667344Y-52138516D01*
X144765947Y-51990946D01*
X144891446Y-51865447D01*
X145039016Y-51766844D01*
X145202988Y-51698924D01*
X145377059Y-51664300D01*
X145554541Y-51664300D01*
X145728612Y-51698924D01*
X145728612Y-51698924D01*
G37*
G36*
X157091834Y-48918532D02*
X157301302Y-49005296D01*
X157489823Y-49131262D01*
X157650138Y-49291577D01*
X157776104Y-49480098D01*
X157862868Y-49689566D01*
X157907100Y-49911935D01*
X157907100Y-50138665D01*
X157862868Y-50361034D01*
X157776104Y-50570502D01*
X157650138Y-50759023D01*
X157489823Y-50919338D01*
X157301302Y-51045304D01*
X157091834Y-51132068D01*
X156869465Y-51176300D01*
X156642735Y-51176300D01*
X156420366Y-51132068D01*
X156210898Y-51045304D01*
X156022377Y-50919338D01*
X155862062Y-50759023D01*
X155736096Y-50570502D01*
X155649332Y-50361034D01*
X155605100Y-50138665D01*
X155605100Y-49911935D01*
X155649332Y-49689566D01*
X155736096Y-49480098D01*
X155862062Y-49291577D01*
X156022377Y-49131262D01*
X156210898Y-49005296D01*
X156420366Y-48918532D01*
X156642735Y-48874300D01*
X156869465Y-48874300D01*
X157091834Y-48918532D01*
X157091834Y-48918532D01*
G37*
G36*
X116616934Y-48918532D02*
X116826402Y-49005296D01*
X117014923Y-49131262D01*
X117175238Y-49291577D01*
X117301204Y-49480098D01*
X117387968Y-49689566D01*
X117432200Y-49911935D01*
X117432200Y-50138665D01*
X117387968Y-50361034D01*
X117301204Y-50570502D01*
X117175238Y-50759023D01*
X117014923Y-50919338D01*
X116826402Y-51045304D01*
X116616934Y-51132068D01*
X116394565Y-51176300D01*
X116167835Y-51176300D01*
X115945466Y-51132068D01*
X115735998Y-51045304D01*
X115547477Y-50919338D01*
X115387162Y-50759023D01*
X115261196Y-50570502D01*
X115174432Y-50361034D01*
X115130200Y-50138665D01*
X115130200Y-49911935D01*
X115174432Y-49689566D01*
X115261196Y-49480098D01*
X115387162Y-49291577D01*
X115547477Y-49131262D01*
X115735998Y-49005296D01*
X115945466Y-48918532D01*
X116167835Y-48874300D01*
X116394565Y-48874300D01*
X116616934Y-48918532D01*
X116616934Y-48918532D01*
G37*
G36*
X136911534Y-48918532D02*
X137121002Y-49005296D01*
X137309523Y-49131262D01*
X137469838Y-49291577D01*
X137595804Y-49480098D01*
X137682568Y-49689566D01*
X137726800Y-49911935D01*
X137726800Y-50138665D01*
X137682568Y-50361034D01*
X137595804Y-50570502D01*
X137469838Y-50759023D01*
X137309523Y-50919338D01*
X137121002Y-51045304D01*
X136911534Y-51132068D01*
X136689165Y-51176300D01*
X136462435Y-51176300D01*
X136240066Y-51132068D01*
X136030598Y-51045304D01*
X135842077Y-50919338D01*
X135681762Y-50759023D01*
X135555796Y-50570502D01*
X135469032Y-50361034D01*
X135424800Y-50138665D01*
X135424800Y-49911935D01*
X135469032Y-49689566D01*
X135555796Y-49480098D01*
X135681762Y-49291577D01*
X135842077Y-49131262D01*
X136030598Y-49005296D01*
X136240066Y-48918532D01*
X136462435Y-48874300D01*
X136689165Y-48874300D01*
X136911534Y-48918532D01*
X136911534Y-48918532D01*
G37*
G36*
X143261534Y-46378532D02*
X143471002Y-46465296D01*
X143659523Y-46591262D01*
X143819838Y-46751577D01*
X143945804Y-46940098D01*
X144032568Y-47149566D01*
X144076800Y-47371935D01*
X144076800Y-47598665D01*
X144032568Y-47821034D01*
X143945804Y-48030502D01*
X143819838Y-48219023D01*
X143659523Y-48379338D01*
X143471002Y-48505304D01*
X143261534Y-48592068D01*
X143039165Y-48636300D01*
X142812435Y-48636300D01*
X142590066Y-48592068D01*
X142380598Y-48505304D01*
X142192077Y-48379338D01*
X142031762Y-48219023D01*
X141905796Y-48030502D01*
X141819032Y-47821034D01*
X141774800Y-47598665D01*
X141774800Y-47371935D01*
X141819032Y-47149566D01*
X141905796Y-46940098D01*
X142031762Y-46751577D01*
X142192077Y-46591262D01*
X142380598Y-46465296D01*
X142590066Y-46378532D01*
X142812435Y-46334300D01*
X143039165Y-46334300D01*
X143261534Y-46378532D01*
X143261534Y-46378532D01*
G37*
G36*
X122966934Y-46378532D02*
X123176402Y-46465296D01*
X123364923Y-46591262D01*
X123525238Y-46751577D01*
X123651204Y-46940098D01*
X123737968Y-47149566D01*
X123782200Y-47371935D01*
X123782200Y-47598665D01*
X123737968Y-47821034D01*
X123651204Y-48030502D01*
X123525238Y-48219023D01*
X123364923Y-48379338D01*
X123176402Y-48505304D01*
X122966934Y-48592068D01*
X122744565Y-48636300D01*
X122517835Y-48636300D01*
X122295466Y-48592068D01*
X122085998Y-48505304D01*
X121897477Y-48379338D01*
X121737162Y-48219023D01*
X121611196Y-48030502D01*
X121524432Y-47821034D01*
X121480200Y-47598665D01*
X121480200Y-47371935D01*
X121524432Y-47149566D01*
X121611196Y-46940098D01*
X121737162Y-46751577D01*
X121897477Y-46591262D01*
X122085998Y-46465296D01*
X122295466Y-46378532D01*
X122517835Y-46334300D01*
X122744565Y-46334300D01*
X122966934Y-46378532D01*
X122966934Y-46378532D01*
G37*
G36*
X163441834Y-46378532D02*
X163651302Y-46465296D01*
X163839823Y-46591262D01*
X164000138Y-46751577D01*
X164126104Y-46940098D01*
X164212868Y-47149566D01*
X164257100Y-47371935D01*
X164257100Y-47598665D01*
X164212868Y-47821034D01*
X164126104Y-48030502D01*
X164000138Y-48219023D01*
X163839823Y-48379338D01*
X163651302Y-48505304D01*
X163441834Y-48592068D01*
X163219465Y-48636300D01*
X162992735Y-48636300D01*
X162770366Y-48592068D01*
X162560898Y-48505304D01*
X162372377Y-48379338D01*
X162212062Y-48219023D01*
X162086096Y-48030502D01*
X161999332Y-47821034D01*
X161955100Y-47598665D01*
X161955100Y-47371935D01*
X161999332Y-47149566D01*
X162086096Y-46940098D01*
X162212062Y-46751577D01*
X162372377Y-46591262D01*
X162560898Y-46465296D01*
X162770366Y-46378532D01*
X162992735Y-46334300D01*
X163219465Y-46334300D01*
X163441834Y-46378532D01*
X163441834Y-46378532D01*
G37*
G36*
X158653004Y-38981747D02*
X158689545Y-38992832D01*
X158723220Y-39010831D01*
X158752741Y-39035059D01*
X158776969Y-39064580D01*
X158794968Y-39098255D01*
X158806053Y-39134796D01*
X158810400Y-39178938D01*
X158810400Y-40627862D01*
X158806053Y-40672004D01*
X158794968Y-40708545D01*
X158776969Y-40742220D01*
X158752741Y-40771741D01*
X158723220Y-40795969D01*
X158689545Y-40813968D01*
X158653004Y-40825053D01*
X158608862Y-40829400D01*
X157659938Y-40829400D01*
X157615796Y-40825053D01*
X157579255Y-40813968D01*
X157545580Y-40795969D01*
X157516059Y-40771741D01*
X157491831Y-40742220D01*
X157473832Y-40708545D01*
X157462747Y-40672004D01*
X157458400Y-40627862D01*
X157458400Y-39178938D01*
X157462747Y-39134796D01*
X157473832Y-39098255D01*
X157491831Y-39064580D01*
X157516059Y-39035059D01*
X157545580Y-39010831D01*
X157579255Y-38992832D01*
X157615796Y-38981747D01*
X157659938Y-38977400D01*
X158608862Y-38977400D01*
X158653004Y-38981747D01*
X158653004Y-38981747D01*
G37*
G36*
X161453004Y-38981747D02*
X161489545Y-38992832D01*
X161523220Y-39010831D01*
X161552741Y-39035059D01*
X161576969Y-39064580D01*
X161594968Y-39098255D01*
X161606053Y-39134796D01*
X161610400Y-39178938D01*
X161610400Y-40627862D01*
X161606053Y-40672004D01*
X161594968Y-40708545D01*
X161576969Y-40742220D01*
X161552741Y-40771741D01*
X161523220Y-40795969D01*
X161489545Y-40813968D01*
X161453004Y-40825053D01*
X161408862Y-40829400D01*
X160459938Y-40829400D01*
X160415796Y-40825053D01*
X160379255Y-40813968D01*
X160345580Y-40795969D01*
X160316059Y-40771741D01*
X160291831Y-40742220D01*
X160273832Y-40708545D01*
X160262747Y-40672004D01*
X160258400Y-40627862D01*
X160258400Y-39178938D01*
X160262747Y-39134796D01*
X160273832Y-39098255D01*
X160291831Y-39064580D01*
X160316059Y-39035059D01*
X160345580Y-39010831D01*
X160379255Y-38992832D01*
X160415796Y-38981747D01*
X160459938Y-38977400D01*
X161408862Y-38977400D01*
X161453004Y-38981747D01*
X161453004Y-38981747D01*
G37*
G36*
X107472031Y-37181011D02*
X107799792Y-37316774D01*
X108094773Y-37513874D01*
X108345626Y-37764727D01*
X108542726Y-38059708D01*
X108678489Y-38387469D01*
X108747700Y-38735416D01*
X108747700Y-39090184D01*
X108678489Y-39438131D01*
X108542726Y-39765892D01*
X108345626Y-40060873D01*
X108094773Y-40311726D01*
X107799792Y-40508826D01*
X107472031Y-40644589D01*
X107124084Y-40713800D01*
X106769316Y-40713800D01*
X106421369Y-40644589D01*
X106093608Y-40508826D01*
X105798627Y-40311726D01*
X105547774Y-40060873D01*
X105350674Y-39765892D01*
X105214911Y-39438131D01*
X105145700Y-39090184D01*
X105145700Y-38735416D01*
X105214911Y-38387469D01*
X105350674Y-38059708D01*
X105547774Y-37764727D01*
X105798627Y-37513874D01*
X106093608Y-37316774D01*
X106421369Y-37181011D01*
X106769316Y-37111800D01*
X107124084Y-37111800D01*
X107472031Y-37181011D01*
X107472031Y-37181011D01*
G37*
G36*
X173715231Y-37181011D02*
X174042992Y-37316774D01*
X174337973Y-37513874D01*
X174588826Y-37764727D01*
X174785926Y-38059708D01*
X174921689Y-38387469D01*
X174990900Y-38735416D01*
X174990900Y-39090184D01*
X174921689Y-39438131D01*
X174785926Y-39765892D01*
X174588826Y-40060873D01*
X174337973Y-40311726D01*
X174042992Y-40508826D01*
X173715231Y-40644589D01*
X173367284Y-40713800D01*
X173012516Y-40713800D01*
X172664569Y-40644589D01*
X172336808Y-40508826D01*
X172041827Y-40311726D01*
X171790974Y-40060873D01*
X171593874Y-39765892D01*
X171458111Y-39438131D01*
X171388900Y-39090184D01*
X171388900Y-38735416D01*
X171458111Y-38387469D01*
X171593874Y-38059708D01*
X171790974Y-37764727D01*
X172041827Y-37513874D01*
X172336808Y-37316774D01*
X172664569Y-37181011D01*
X173012516Y-37111800D01*
X173367284Y-37111800D01*
X173715231Y-37181011D01*
X173715231Y-37181011D01*
G37*
G36*
X150811808Y-38678703D02*
X150966680Y-38742853D01*
X151106061Y-38835985D01*
X151224595Y-38954519D01*
X151317727Y-39093900D01*
X151381877Y-39248772D01*
X151414580Y-39413184D01*
X151414580Y-39580816D01*
X151381877Y-39745228D01*
X151317727Y-39900100D01*
X151224595Y-40039481D01*
X151106061Y-40158015D01*
X150966680Y-40251147D01*
X150811808Y-40315297D01*
X150647396Y-40348000D01*
X150479764Y-40348000D01*
X150315352Y-40315297D01*
X150160480Y-40251147D01*
X150021099Y-40158015D01*
X149902565Y-40039481D01*
X149809433Y-39900100D01*
X149745283Y-39745228D01*
X149712580Y-39580816D01*
X149712580Y-39413184D01*
X149745283Y-39248772D01*
X149809433Y-39093900D01*
X149902565Y-38954519D01*
X150021099Y-38835985D01*
X150160480Y-38742853D01*
X150315352Y-38678703D01*
X150479764Y-38646000D01*
X150647396Y-38646000D01*
X150811808Y-38678703D01*
X150811808Y-38678703D01*
G37*
G36*
X153346728Y-38678703D02*
X153501600Y-38742853D01*
X153640981Y-38835985D01*
X153759515Y-38954519D01*
X153852647Y-39093900D01*
X153916797Y-39248772D01*
X153949500Y-39413184D01*
X153949500Y-39580816D01*
X153916797Y-39745228D01*
X153852647Y-39900100D01*
X153759515Y-40039481D01*
X153640981Y-40158015D01*
X153501600Y-40251147D01*
X153346728Y-40315297D01*
X153182316Y-40348000D01*
X153014684Y-40348000D01*
X152850272Y-40315297D01*
X152695400Y-40251147D01*
X152556019Y-40158015D01*
X152437485Y-40039481D01*
X152344353Y-39900100D01*
X152280203Y-39745228D01*
X152247500Y-39580816D01*
X152247500Y-39413184D01*
X152280203Y-39248772D01*
X152344353Y-39093900D01*
X152437485Y-38954519D01*
X152556019Y-38835985D01*
X152695400Y-38742853D01*
X152850272Y-38678703D01*
X153014684Y-38646000D01*
X153182316Y-38646000D01*
X153346728Y-38678703D01*
X153346728Y-38678703D01*
G37*
G36*
X136595428Y-37421403D02*
X136750300Y-37485553D01*
X136889681Y-37578685D01*
X137008215Y-37697219D01*
X137101347Y-37836600D01*
X137165497Y-37991472D01*
X137198200Y-38155884D01*
X137198200Y-38323516D01*
X137165497Y-38487928D01*
X137101347Y-38642800D01*
X137008215Y-38782181D01*
X136889681Y-38900715D01*
X136750300Y-38993847D01*
X136595428Y-39057997D01*
X136431016Y-39090700D01*
X136263384Y-39090700D01*
X136098972Y-39057997D01*
X135944100Y-38993847D01*
X135804719Y-38900715D01*
X135686185Y-38782181D01*
X135593053Y-38642800D01*
X135528903Y-38487928D01*
X135496200Y-38323516D01*
X135496200Y-38155884D01*
X135528903Y-37991472D01*
X135593053Y-37836600D01*
X135686185Y-37697219D01*
X135804719Y-37578685D01*
X135944100Y-37485553D01*
X136098972Y-37421403D01*
X136263384Y-37388700D01*
X136431016Y-37388700D01*
X136595428Y-37421403D01*
X136595428Y-37421403D01*
G37*
G36*
X139135428Y-37421403D02*
X139290300Y-37485553D01*
X139429681Y-37578685D01*
X139548215Y-37697219D01*
X139641347Y-37836600D01*
X139705497Y-37991472D01*
X139738200Y-38155884D01*
X139738200Y-38323516D01*
X139705497Y-38487928D01*
X139641347Y-38642800D01*
X139548215Y-38782181D01*
X139429681Y-38900715D01*
X139290300Y-38993847D01*
X139135428Y-39057997D01*
X138971016Y-39090700D01*
X138803384Y-39090700D01*
X138638972Y-39057997D01*
X138484100Y-38993847D01*
X138344719Y-38900715D01*
X138226185Y-38782181D01*
X138133053Y-38642800D01*
X138068903Y-38487928D01*
X138036200Y-38323516D01*
X138036200Y-38155884D01*
X138068903Y-37991472D01*
X138133053Y-37836600D01*
X138226185Y-37697219D01*
X138344719Y-37578685D01*
X138484100Y-37485553D01*
X138638972Y-37421403D01*
X138803384Y-37388700D01*
X138971016Y-37388700D01*
X139135428Y-37421403D01*
X139135428Y-37421403D01*
G37*
G36*
X141675428Y-37421403D02*
X141830300Y-37485553D01*
X141969681Y-37578685D01*
X142088215Y-37697219D01*
X142181347Y-37836600D01*
X142245497Y-37991472D01*
X142278200Y-38155884D01*
X142278200Y-38323516D01*
X142245497Y-38487928D01*
X142181347Y-38642800D01*
X142088215Y-38782181D01*
X141969681Y-38900715D01*
X141830300Y-38993847D01*
X141675428Y-39057997D01*
X141511016Y-39090700D01*
X141343384Y-39090700D01*
X141178972Y-39057997D01*
X141024100Y-38993847D01*
X140884719Y-38900715D01*
X140766185Y-38782181D01*
X140673053Y-38642800D01*
X140608903Y-38487928D01*
X140576200Y-38323516D01*
X140576200Y-38155884D01*
X140608903Y-37991472D01*
X140673053Y-37836600D01*
X140766185Y-37697219D01*
X140884719Y-37578685D01*
X141024100Y-37485553D01*
X141178972Y-37421403D01*
X141343384Y-37388700D01*
X141511016Y-37388700D01*
X141675428Y-37421403D01*
X141675428Y-37421403D01*
G37*
G36*
X121649142Y-37089642D02*
X121797102Y-37150930D01*
X121930258Y-37239902D01*
X122043498Y-37353142D01*
X122132470Y-37486298D01*
X122193758Y-37634258D01*
X122225000Y-37791325D01*
X122225000Y-37951475D01*
X122193758Y-38108542D01*
X122174148Y-38155884D01*
X122132471Y-38256500D01*
X122044962Y-38387468D01*
X122043498Y-38389658D01*
X121930258Y-38502898D01*
X121797102Y-38591870D01*
X121649142Y-38653158D01*
X121492075Y-38684400D01*
X121331925Y-38684400D01*
X121174858Y-38653158D01*
X121026898Y-38591870D01*
X120893742Y-38502898D01*
X120780502Y-38389658D01*
X120779039Y-38387468D01*
X120691529Y-38256500D01*
X120649852Y-38155884D01*
X120630242Y-38108542D01*
X120599000Y-37951475D01*
X120599000Y-37791325D01*
X120630242Y-37634258D01*
X120691530Y-37486298D01*
X120780502Y-37353142D01*
X120893742Y-37239902D01*
X121026898Y-37150930D01*
X121174858Y-37089642D01*
X121331925Y-37058400D01*
X121492075Y-37058400D01*
X121649142Y-37089642D01*
X121649142Y-37089642D01*
G37*
G36*
X124189142Y-37089642D02*
X124337102Y-37150930D01*
X124470258Y-37239902D01*
X124583498Y-37353142D01*
X124672470Y-37486298D01*
X124733758Y-37634258D01*
X124765000Y-37791325D01*
X124765000Y-37951475D01*
X124733758Y-38108542D01*
X124714148Y-38155884D01*
X124672471Y-38256500D01*
X124584962Y-38387468D01*
X124583498Y-38389658D01*
X124470258Y-38502898D01*
X124337102Y-38591870D01*
X124189142Y-38653158D01*
X124032075Y-38684400D01*
X123871925Y-38684400D01*
X123714858Y-38653158D01*
X123566898Y-38591870D01*
X123433742Y-38502898D01*
X123320502Y-38389658D01*
X123319039Y-38387468D01*
X123231529Y-38256500D01*
X123189852Y-38155884D01*
X123170242Y-38108542D01*
X123139000Y-37951475D01*
X123139000Y-37791325D01*
X123170242Y-37634258D01*
X123231530Y-37486298D01*
X123320502Y-37353142D01*
X123433742Y-37239902D01*
X123566898Y-37150930D01*
X123714858Y-37089642D01*
X123871925Y-37058400D01*
X124032075Y-37058400D01*
X124189142Y-37089642D01*
X124189142Y-37089642D01*
G37*
G36*
X126729142Y-37089642D02*
X126877102Y-37150930D01*
X127010258Y-37239902D01*
X127123498Y-37353142D01*
X127212470Y-37486298D01*
X127273758Y-37634258D01*
X127305000Y-37791325D01*
X127305000Y-37951475D01*
X127273758Y-38108542D01*
X127254148Y-38155884D01*
X127212471Y-38256500D01*
X127124962Y-38387468D01*
X127123498Y-38389658D01*
X127010258Y-38502898D01*
X126877102Y-38591870D01*
X126729142Y-38653158D01*
X126572075Y-38684400D01*
X126411925Y-38684400D01*
X126254858Y-38653158D01*
X126106898Y-38591870D01*
X125973742Y-38502898D01*
X125860502Y-38389658D01*
X125859039Y-38387468D01*
X125771529Y-38256500D01*
X125729852Y-38155884D01*
X125710242Y-38108542D01*
X125679000Y-37951475D01*
X125679000Y-37791325D01*
X125710242Y-37634258D01*
X125771530Y-37486298D01*
X125860502Y-37353142D01*
X125973742Y-37239902D01*
X126106898Y-37150930D01*
X126254858Y-37089642D01*
X126411925Y-37058400D01*
X126572075Y-37058400D01*
X126729142Y-37089642D01*
X126729142Y-37089642D01*
G37*
M02*
