G04 #@! TF.GenerationSoftware,KiCad,Pcbnew,5.0.2+dfsg1-1~bpo9+1*
G04 #@! TF.CreationDate,2019-11-16T16:08:00+00:00*
G04 #@! TF.ProjectId,remote_cherry,72656d6f-7465-45f6-9368-657272792e6b,rev?*
G04 #@! TF.SameCoordinates,Original*
G04 #@! TF.FileFunction,Legend,Bot*
G04 #@! TF.FilePolarity,Positive*
%FSLAX46Y46*%
G04 Gerber Fmt 4.6, Leading zero omitted, Abs format (unit mm)*
G04 Created by KiCad (PCBNEW 5.0.2+dfsg1-1~bpo9+1) date Sat 16 Nov 2019 16:08:00 GMT*
%MOMM*%
%LPD*%
G01*
G04 APERTURE LIST*
%ADD10C,0.150000*%
G04 APERTURE END LIST*
D10*
G04 #@! TO.C,U5*
X136423400Y-109308900D02*
X136423400Y-106895900D01*
X136423400Y-110172500D02*
X130441700Y-110172500D01*
X130441700Y-110172500D02*
X130441700Y-104165400D01*
X130441700Y-104165400D02*
X136423400Y-104165400D01*
X136423400Y-104165400D02*
X136436100Y-110185200D01*
X134200804Y-112190280D02*
X134200804Y-112999804D01*
X134153185Y-113095042D01*
X134105566Y-113142661D01*
X134010328Y-113190280D01*
X133819852Y-113190280D01*
X133724614Y-113142661D01*
X133676995Y-113095042D01*
X133629376Y-112999804D01*
X133629376Y-112190280D01*
X132676995Y-112190280D02*
X133153185Y-112190280D01*
X133200804Y-112666471D01*
X133153185Y-112618852D01*
X133057947Y-112571233D01*
X132819852Y-112571233D01*
X132724614Y-112618852D01*
X132676995Y-112666471D01*
X132629376Y-112761709D01*
X132629376Y-112999804D01*
X132676995Y-113095042D01*
X132724614Y-113142661D01*
X132819852Y-113190280D01*
X133057947Y-113190280D01*
X133153185Y-113142661D01*
X133200804Y-113095042D01*
X132803852Y-107792828D02*
X132041947Y-107792828D01*
X132422900Y-108173780D02*
X132422900Y-107411876D01*
X134899352Y-107824519D02*
X134137447Y-107824519D01*
X134835852Y-111132928D02*
X134073947Y-111132928D01*
X132803852Y-111145628D02*
X132041947Y-111145628D01*
X132422900Y-111526580D02*
X132422900Y-110764676D01*
G04 #@! TD*
M02*
